<svg width="1000" height="1300" viewBox="0 0 1000 1300" fill="none" xmlns="http://www.w3.org/2000/svg">
<path d="M1000 1273.93C1000 1288.32 776.141 1300 500 1300C223.859 1300 0 1288.32 0 1273.93C0 1259.53 223.859 1247.85 500 1247.85C776.141 1247.85 1000 1259.53 1000 1273.93Z" fill="#FFF0E7"/>
<path d="M588.45 780.227L671.523 1252.21H647.801L565.039 780.227H588.45Z" fill="#C99D8D"/>
<path d="M479.245 780.227H502.655L419.896 1252.21H396.172L479.245 780.227Z" fill="#C99D8D"/>
<path d="M334.868 851.387L732.812 851.387V460.634L334.868 460.634L334.868 851.387Z" fill="#C99D8D"/>
<path d="M347.764 833.598L719.961 833.598V477.393L347.764 477.393L347.764 833.598Z" fill="#FDE4D9"/>
<path d="M753.714 362.432L750.085 377.082L746.547 362.389C741.994 343.472 732.462 327.615 719.844 317.974C732.521 308.483 742.149 292.742 746.824 273.878L750.452 259.229L753.991 273.921C758.543 292.838 768.076 308.695 780.694 318.336C768.016 327.83 758.386 343.572 753.714 362.432Z" fill="#FFC253"/>
<path d="M807.481 230.458L804.649 241.889L801.89 230.426C798.337 215.669 790.9 203.296 781.055 195.774C790.944 188.37 798.461 176.087 802.105 161.373L804.937 149.945L807.696 161.409C811.249 176.169 818.685 188.539 828.529 196.06C818.639 203.464 811.125 215.744 807.481 230.458Z" fill="#FFC253"/>
<path d="M200.237 239.23C186.471 239.23 175.312 223.796 175.312 204.754V170.277H225.162V204.754C225.165 223.796 214.004 239.23 200.237 239.23Z" fill="#FACC07"/>
<path d="M200.216 231.16C189.909 231.16 181.523 219.56 181.523 205.305V188.066H218.911V205.305C218.911 219.56 210.525 231.16 200.216 231.16Z" fill="#CD2B7B"/>
<path d="M200.237 241.438C186.471 241.438 175.312 256.875 175.312 275.914V310.39H225.162V275.914C225.165 256.875 214.004 241.438 200.237 241.438Z" fill="#FACC07"/>
<path d="M218.911 274.477H181.523V291.715H218.911V274.477Z" fill="#CD2B7B"/>
<path d="M203.342 226.189H197.109V273.593H203.342V226.189Z" fill="#CD2B7B"/>
<path d="M225.162 170.277H175.312V178.898H225.162V170.277Z" fill="#131D42"/>
<path d="M225.162 299.891H175.312V308.508H225.162V299.891Z" fill="#131D42"/>
<path d="M237.6 188.066H231.367V239.781H237.6V188.066Z" fill="#6FB1FE"/>
<path d="M234.481 245.72L222.93 229.745L227.338 223.648L234.481 233.533L241.625 223.648L246.03 229.745L234.481 245.72Z" fill="#6FB1FE"/>
<path d="M169.084 241.438H162.852V293.152H169.084V241.438Z" fill="#6FB1FE"/>
<path d="M173.106 255.88L165.963 245.999L158.819 255.88L154.414 249.787L165.963 233.812L177.514 249.787L173.106 255.88Z" fill="#6FB1FE"/>
<path d="M499.639 41.6676C413.476 52.4401 345.485 152.078 342.563 271.678C340.392 360.507 373.027 438.514 422.778 482.298C441.725 498.971 454.715 525.936 459.917 556.152L471.722 624.725L520.796 623.304L569.869 621.879L579.676 552.039C584.009 521.182 596.862 493.944 615.417 475.8C660.784 431.44 689.939 357.74 688.686 275.122C686.6 137.249 600.667 29.037 499.639 41.6676Z" fill="#FACC07"/>
<path d="M505.229 652.809C505.038 652.813 504.844 652.806 504.647 652.781C501.911 652.423 499.9 649.064 500.162 645.277C506.604 551.213 502.069 468.238 492.883 419.265C491.69 419.187 490.482 419.094 489.262 418.993C468.202 418.131 460.398 405.915 457.634 398.716C454.484 390.499 454.722 380.983 458.271 373.24C462.039 365.02 468.849 360.434 476.451 360.906C480.512 361.178 484.36 364.168 487.891 369.796C492.42 377.024 496.644 389.336 500.294 405.858C513.67 406.298 524.641 405.339 533.589 403.502C538.533 386.905 545.039 373.029 552.248 365.181C559.161 357.641 565.039 357.695 568.753 359.027C576.464 361.837 580.861 370.522 579.688 380.636C578.092 394.459 566.605 409.005 540.929 415.807C536.56 432.669 533.718 452.499 534.008 471.76C532.745 532.898 536.591 643.709 536.63 644.822C536.762 648.621 534.645 651.846 531.899 652.036C529.207 652.283 526.818 649.29 526.686 645.488C526.647 644.375 522.78 533.026 524.056 471.707C523.785 454.146 525.959 435.297 529.802 418.109C521.95 419.326 513.054 419.921 503.042 419.713C512.228 471.259 516.478 553.093 510.072 646.576C509.831 650.096 507.719 652.738 505.229 652.809ZM475.03 374.65C471.398 374.754 468.386 376.888 466.677 380.615C465.047 384.173 464.956 388.412 466.429 392.257C469.405 400.015 477.89 404.745 489.708 405.228C489.775 405.231 489.84 405.239 489.907 405.249C487.008 393.245 483.781 384.259 480.369 378.818C478.739 376.222 477.178 374.747 475.98 374.668C475.656 374.647 475.34 374.643 475.03 374.65ZM564.728 372.108C562.852 372.162 560.735 373.462 558.41 376C554.083 380.711 549.631 389.243 545.736 400.09C563.238 393.628 569.276 383.5 569.858 378.46C570.319 374.464 567.777 372.918 566.222 372.352C565.74 372.173 565.243 372.094 564.728 372.108Z" fill="#EA830C"/>
<path d="M547.302 735.166L497.711 736.605L486.328 703.511L557.673 701.441L547.302 735.166Z" fill="#FF3E98"/>
<path d="M576.759 617.576L464.661 620.827C458.175 621.016 453.03 628.438 453.167 637.41L453.449 656.023C453.586 664.994 458.952 672.112 465.438 671.925L466.191 671.904C462.984 676.608 461.051 682.977 461.154 689.951C461.369 704.06 469.812 715.259 480.012 714.965L564.278 712.52C574.479 712.223 582.575 700.545 582.362 686.436C582.256 679.462 580.129 673.211 576.785 668.696L577.538 668.675C584.024 668.485 589.172 661.063 589.035 652.092L588.753 633.479C588.613 624.507 583.245 617.386 576.759 617.576Z" fill="#CD2B7B"/>
<path d="M576.777 617.576L521.914 619.169L523.804 713.694L564.292 712.52C574.492 712.223 582.588 700.545 582.376 686.436C582.27 679.461 580.142 673.211 576.798 668.696L577.551 668.675C584.038 668.485 589.186 661.063 589.048 652.092L588.766 633.482C588.632 624.507 583.264 617.386 576.777 617.576Z" fill="#AE115D"/>
<path d="M410.573 558.134C409.372 551.489 407.48 545.231 404.993 539.514C414.142 525.655 419.508 516.512 418.822 515.563L405.285 496.839C404.597 495.883 397.989 503.315 387.967 515.96C383.834 512.531 379.309 509.906 374.508 508.249C373.887 489.511 373.012 477.793 372.036 477.793H352.896C351.923 477.793 351.043 489.511 350.427 508.249C345.626 509.906 341.104 512.534 336.968 515.96C326.949 503.315 320.336 495.883 319.645 496.839L306.113 515.563C305.425 516.512 310.793 525.655 319.942 539.514C317.455 545.231 315.56 551.489 314.362 558.134C300.813 558.986 292.344 560.207 292.344 561.553V588.028C292.344 589.37 300.813 590.584 314.362 591.443C315.56 598.084 317.458 604.346 319.942 610.06C310.793 623.922 305.425 633.069 306.113 634.021L319.645 652.741C320.336 653.694 326.946 646.261 336.968 633.62C341.101 637.053 345.626 639.674 350.427 641.328C351.045 660.073 351.923 671.791 352.896 671.791H372.036C373.012 671.791 373.887 660.073 374.508 641.328C379.309 639.674 383.834 637.053 387.967 633.62C397.989 646.265 404.597 653.694 405.285 652.741L418.822 634.021C419.508 633.069 414.142 623.925 404.993 610.06C407.48 604.349 409.372 598.084 410.573 591.443C424.117 590.584 432.591 589.37 432.591 588.028V561.553C432.591 560.203 424.117 558.986 410.573 558.134Z" fill="#6FB1FE"/>
<path d="M394.329 575.271C394.329 599.633 380.05 619.381 362.437 619.381C344.824 619.381 330.547 599.63 330.547 575.271C330.547 550.912 344.826 531.164 362.437 531.164C380.053 531.164 394.329 550.915 394.329 575.271Z" fill="#4A80E8"/>
<path d="M384.701 574.624C384.701 591.612 374.746 605.377 362.465 605.377C350.186 605.377 340.234 591.612 340.234 574.624C340.234 557.64 350.186 543.871 362.465 543.871C374.746 543.871 384.701 557.644 384.701 574.624Z" fill="#3547C7"/>
<path d="M798.409 556.043C796.592 545.997 793.732 536.535 789.972 527.896C803.801 506.945 811.915 493.122 810.877 491.687L790.414 463.383C789.374 461.936 779.383 473.174 764.234 492.288C757.989 487.104 751.148 483.138 743.89 480.628C742.951 452.302 741.631 434.588 740.155 434.588H711.224C709.754 434.588 708.423 452.299 707.489 480.628C700.232 483.134 693.396 487.104 687.145 492.288C671.999 473.174 662.006 461.94 660.96 463.383L640.505 491.687C639.464 493.119 647.581 506.945 661.41 527.896C657.649 536.535 654.787 545.997 652.972 556.043C632.489 557.328 619.688 559.172 619.688 561.209V601.227C619.688 603.257 632.489 605.09 652.972 606.386C654.784 616.424 657.649 625.89 661.41 634.525C647.579 655.483 639.464 669.306 640.505 670.745L660.96 699.046C662.003 700.485 671.996 689.254 687.145 670.14C693.396 675.328 700.232 679.291 707.489 681.793C708.423 710.13 709.754 727.844 711.224 727.844H740.155C741.631 727.844 742.951 710.13 743.89 681.793C751.148 679.291 757.989 675.328 764.234 670.14C779.386 689.254 789.374 700.485 790.414 699.046L810.877 670.745C811.912 669.306 803.801 655.483 789.972 634.525C793.73 625.89 796.592 616.424 798.409 606.386C818.885 605.086 831.694 603.253 831.694 601.227V561.209C831.694 559.172 818.885 557.328 798.409 556.043Z" fill="#6FB1FE"/>
<path d="M773.881 582.59C773.881 619.415 752.298 649.273 725.67 649.273C699.047 649.273 677.461 619.418 677.461 582.59C677.461 545.768 699.044 515.914 725.67 515.914C752.298 515.914 773.881 545.768 773.881 582.59Z" fill="#4A80E8"/>
<path d="M759.29 582.734C759.29 608.414 744.242 629.225 725.676 629.225C707.116 629.225 692.07 608.414 692.07 582.734C692.07 557.061 707.116 536.246 725.676 536.246C744.242 536.246 759.29 557.061 759.29 582.734Z" fill="#3547C7"/>
<path d="M206.367 762.436C206.367 762.436 228.559 789.805 231.96 806.166C235.361 822.527 239.098 873.529 239.098 873.529L294.355 903.531V923.93H210.154V832.126L206.367 762.436Z" fill="#6FB1FE"/>
<path d="M295.547 1192.56C296.934 1205.74 301.95 1229.96 303.009 1235.02L303.721 1237.49L306.045 1245.6L316.3 1240.08L315.761 1230.19L315.518 1225.83L318.432 1228.56L325.441 1235.14L378.105 1206.77L375.087 1196.16C374.895 1195.68 374.652 1195.18 374.393 1194.7C373.681 1193.5 372.693 1192.46 371.323 1192.3C365.787 1191.55 345.956 1190.62 339.814 1187.5C335.059 1185.07 329.419 1177.44 327.129 1174.15L295.547 1192.56Z" fill="#EA830C"/>
<path d="M328.811 1191.9C328.796 1192.05 328.783 1192.2 328.77 1192.35C328.682 1193.46 328.863 1195.01 329.859 1195.13C330.367 1195.18 330.838 1194.83 331.262 1194.45C332.719 1193.14 333.894 1191.36 334.961 1189.44C336.107 1187.39 337.321 1185.17 337.686 1182.49C338.064 1179.71 336.079 1178.38 334.513 1179.82C331.803 1182.32 329.308 1187.16 328.811 1191.9Z" fill="#E05D00"/>
<path d="M335.842 1194.44C335.827 1194.59 335.814 1194.74 335.801 1194.89C335.713 1196 335.894 1197.55 336.891 1197.67C337.398 1197.72 337.871 1197.37 338.293 1196.99C339.751 1195.68 340.926 1193.9 341.992 1191.99C343.139 1189.93 344.353 1187.72 344.717 1185.03C345.095 1182.25 343.11 1180.92 341.544 1182.36C338.834 1184.86 336.339 1189.7 335.842 1194.44Z" fill="#E05D00"/>
<path d="M343.577 1194.44C343.561 1194.59 343.548 1194.74 343.535 1194.89C343.447 1196.01 343.628 1197.56 344.622 1197.67C345.13 1197.73 345.603 1197.37 346.025 1196.99C347.482 1195.69 348.657 1193.9 349.724 1191.99C350.87 1189.93 352.084 1187.72 352.449 1185.03C352.827 1182.25 350.842 1180.92 349.276 1182.36C346.569 1184.86 344.074 1189.7 343.577 1194.44Z" fill="#E05D00"/>
<path d="M374.396 1194.48L318.438 1228.35L325.447 1234.92L378.11 1206.55L375.092 1195.95C374.898 1195.47 374.657 1194.96 374.396 1194.48Z" fill="#E05D00"/>
<path d="M303.711 1237.36L306.035 1245.47L316.29 1239.95L315.752 1230.06L303.711 1237.36Z" fill="#AE115D"/>
<path d="M203.057 960.668C203.057 960.668 268.936 980.638 276.833 986.488C284.73 992.337 333.249 1171.11 333.249 1171.11L286.718 1202.31L232.545 1020.83L155.987 1027L145 967.642L203.057 960.668Z" fill="#AE115D"/>
<path d="M373.918 947.959H357.188V1244.93H373.918V947.959Z" fill="#131D42"/>
<path d="M312.539 1257.52H418.575C418.575 1245.16 411.333 1235.14 402.398 1235.14H328.718C319.781 1235.14 312.539 1245.16 312.539 1257.52Z" fill="#131D42"/>
<path d="M232.544 963.209H481.211V943.021H232.544V963.209Z" fill="#FACC07"/>
<path d="M117.306 1058.69L91.25 881.883H103.612L132.429 1061.7L117.306 1058.69Z" fill="#131D42"/>
<path d="M82.0792 852.862C87.2195 845.387 123.771 845.483 158.596 847.402V888.985H77.5031C77.5031 888.985 71.9306 867.622 82.0792 852.862Z" fill="#131A70"/>
<path d="M232.545 1072.49L256.104 1258.63H247.881L214.922 1081.18L232.545 1072.49Z" fill="#131D42"/>
<path d="M114.806 1072.49L91.25 1258.63H99.4729L132.429 1081.18L114.806 1072.49Z" fill="#131D42"/>
<path d="M103.582 1209.73H242.812V1197.9H103.582V1209.73Z" fill="#131D42"/>
<path d="M252.436 1053.64C252.436 1053.64 119.845 1038.88 109.696 1053.64C99.5478 1068.4 105.12 1089.76 105.12 1089.76H256.083L252.436 1053.64Z" fill="#131A70"/>
<path d="M273.672 1217.97C275.059 1231.15 280.075 1255.37 281.134 1260.43L281.846 1262.9L284.17 1271.01L294.425 1265.49L293.886 1255.6L293.643 1251.24L296.557 1253.97L303.566 1260.55L356.23 1232.18L353.212 1221.57C353.02 1221.09 352.777 1220.59 352.518 1220.11C351.806 1218.91 350.818 1217.88 349.448 1217.71C343.912 1216.96 324.081 1216.03 317.936 1212.91C313.182 1210.48 307.542 1202.85 305.254 1199.56L273.672 1217.97Z" fill="#FACC07"/>
<path d="M306.936 1217.32C306.921 1217.47 306.905 1217.62 306.895 1217.77C306.807 1218.88 306.988 1220.43 307.982 1220.54C308.489 1220.6 308.963 1220.24 309.385 1219.87C310.842 1218.56 312.017 1216.78 313.083 1214.86C314.23 1212.8 315.444 1210.59 315.809 1207.9C316.187 1205.13 314.201 1203.79 312.635 1205.24C309.931 1207.74 307.436 1212.58 306.936 1217.32Z" fill="#E05D00"/>
<path d="M313.967 1219.86C313.952 1220.01 313.939 1220.15 313.926 1220.3C313.838 1221.42 314.019 1222.97 315.013 1223.08C315.52 1223.14 315.994 1222.78 316.416 1222.4C317.873 1221.1 319.048 1219.31 320.114 1217.4C321.261 1215.34 322.475 1213.13 322.84 1210.45C323.218 1207.67 321.233 1206.34 319.667 1207.78C316.959 1210.28 314.464 1215.11 313.967 1219.86Z" fill="#E05D00"/>
<path d="M321.702 1222.4C321.686 1222.55 321.673 1222.7 321.66 1222.85C321.572 1223.96 321.753 1225.51 322.747 1225.62C323.255 1225.68 323.728 1225.33 324.15 1224.95C325.607 1223.64 326.782 1221.86 327.849 1219.94C328.995 1217.88 330.209 1215.67 330.574 1212.99C330.952 1210.21 328.967 1208.88 327.401 1210.32C324.694 1212.82 322.199 1217.66 321.702 1222.4Z" fill="#E05D00"/>
<path d="M352.521 1219.9L296.562 1253.76L303.572 1260.34L356.235 1231.97L353.217 1221.36C353.025 1220.88 352.782 1220.38 352.521 1219.9Z" fill="#E05D00"/>
<path d="M281.836 1262.77L284.16 1270.89L294.415 1265.36L293.877 1255.48L281.836 1262.77Z" fill="#E05D00"/>
<path d="M314.931 1196.76L286.688 1216.36L267.313 1227.56L218.174 1067.14C218.174 1067.14 151.773 1074.5 138.836 1065.95C125.9 1057.41 109.688 989.851 109.688 989.851L158.36 973.375L178.729 999.513C178.729 999.513 229.273 999.238 238.086 1004.72C251.819 1013.27 314.931 1196.76 314.931 1196.76Z" fill="#CD2B7B"/>
<path d="M286.688 1215.13L267.313 1226.34L218.174 1065.92C218.174 1065.92 151.773 1073.28 138.836 1064.73C125.9 1056.18 109.688 988.625 109.688 988.625H125.631C121.676 1008.25 127.746 1030.38 138.774 1044.05C150.227 1058.26 166.075 1064.23 181.455 1064.28C196.834 1064.34 211.942 1058.98 226.677 1052.9C245.31 1094.94 268.053 1173.11 286.688 1215.13Z" fill="#AE115D"/>
<path d="M111.743 1003.06C118.864 992.527 206.466 962.268 206.466 962.268L223.044 967.448V957.989C223.044 953.869 222.029 949.794 219.977 946.812C216.607 941.918 212.802 942.62 212.802 942.62L212.623 928.475C213.408 918.558 218.913 840.047 218.178 804.35V804.078C217.916 791.945 215.01 780.198 209.895 770.346C207.985 766.687 206.678 764.492 206.368 763.952C206.334 763.93 206.334 763.905 206.318 763.862C206.318 763.841 206.3 763.841 206.3 763.841C205.174 762.305 204.015 760.859 202.822 759.48C188.498 742.783 170.53 737.137 170.53 737.137C169.029 736.686 165.582 737.613 161.989 738.923C157.514 740.556 144.547 755.56 144.531 755.571C131.044 782.289 123.098 799.835 114.671 849.903C113.56 856.476 112.515 864.069 111.518 872.293C107.9 902.244 105.819 932.485 105.146 962.812C104.833 976.781 107.09 990.64 111.743 1003.06Z" fill="#6FB1FE"/>
<path d="M204.106 1074.52L219.219 1069.08L201.233 973.615L116.517 973.375L104.414 1069.07L119.509 1070.54L129.525 995.013L189.159 995.185L204.106 1074.52Z" fill="#131A70"/>
<path d="M191.601 748.569C191.601 748.569 200.988 754.247 204.379 761.074C205.106 762.542 204.379 792.275 204.379 792.275L192.266 781.273L181.095 796.775C181.095 796.775 157.738 762.37 156.255 757.412C154.412 751.254 157.197 740.571 157.197 740.571C157.197 740.571 164.737 736.93 167.411 737.023L189.82 772.205L191.601 748.569Z" fill="#FFF5F2"/>
<path d="M204.378 791.226C204.378 791.226 201.953 805.529 198.2 806.327C194.447 807.129 181.094 795.726 181.094 795.726L192.265 780.225L204.378 791.226Z" fill="#CD2B7B"/>
<path d="M155.508 776.384C160.583 787.572 166.668 797.428 174.26 805.487C181.409 813.08 200.782 831.668 206.836 813.492C207.379 811.863 209.38 813.019 208.942 814.72C204.822 830.737 191.888 824.673 183.482 819.177C170.333 810.585 159.53 796.35 152.231 779.034C150.994 776.105 154.211 773.527 155.508 776.384Z" fill="#4A80E8"/>
<path d="M384.671 942.257H280.703L298.065 843.762H402.036L384.671 942.257Z" fill="#131D42"/>
<path d="M355.11 894.665C351.468 894.665 348.517 890.583 348.517 885.546C348.517 883.416 349.069 881.479 349.954 879.925C349.071 879.585 348.16 879.342 347.2 879.342C341.519 879.342 336.914 885.711 336.914 893.569C336.914 901.427 341.519 907.796 347.2 907.796C352.762 907.796 357.266 901.674 357.452 894.045C356.719 894.432 355.935 894.665 355.11 894.665Z" fill="#FFF5F2"/>
<path d="M384.659 930.172H262.656V944.048H384.659V930.172Z" fill="#131D42"/>
<path d="M148.19 790.391C148.19 790.391 169.445 811.116 171.614 825.053C173.783 838.991 181.107 895.237 181.107 895.237C181.107 895.237 226.958 893.283 235.508 895.237C244.057 897.192 259.239 904.993 259.239 904.993V935.596C259.239 935.596 246.169 949.161 234.045 949.927C221.922 950.693 168.169 942.796 158.613 933.795C149.057 924.795 129.102 862.394 129.102 849.792C129.102 837.19 133.403 790.251 148.19 790.391Z" fill="#6FB1FE"/>
<path d="M131.163 846.076C133.135 875.934 139.176 905.305 149.353 931.837C152.133 939.087 155.314 945.957 161.032 949.022C166.048 951.711 171.897 951.191 177.211 951.174C188.136 951.134 198.963 949.623 209.787 947.679C210.636 947.529 210.814 949.487 209.989 949.742C197.159 953.701 183.811 955.667 170.657 955.18C162.08 954.865 155.133 952.226 149.884 942.198C135.882 915.451 129.98 878.272 127.666 846.076C127.444 842.99 130.961 842.99 131.163 846.076Z" fill="#4A80E8"/>
<path d="M259.219 932.7L262.648 930.115H283.127L285.495 916.686C285.495 916.686 270.641 909.042 268.762 908.971C266.883 908.899 259.219 907.299 259.219 907.299V932.7Z" fill="#D8684E"/>
<path d="M260.945 897.347L259.209 939.348L251.402 943.838L250.352 894.59L260.945 897.347Z" fill="#FFF5F2"/>
<path d="M155.469 823.359C154.835 821.895 156.276 820.42 157.151 821.566C168.594 836.556 176.667 862.987 178.965 885.023C191.65 880.215 205.984 879.083 219.358 882.227C221.335 855.902 221.446 830.054 220.005 803.629C219.971 803.024 220.698 802.881 220.776 803.486C224.226 829.581 224.337 856.586 221.529 882.821C231.16 885.442 240.221 890.3 247.691 897.693C248.437 898.43 248.02 900.442 247.013 899.92C233.637 893.006 221.545 886.315 207.035 885.363C197.725 884.754 188.881 886.405 180.145 889.401C179.944 891.517 178.732 893.45 178.155 895.369C177.218 898.473 177.089 901.502 176.843 904.796C176.755 905.984 175.774 907.223 174.902 906.335C174.477 905.902 174.221 905.605 173.928 905.01C173.786 904.724 173.817 904.166 174.027 903.944C174.097 903.868 174.156 903.829 174.221 903.768C174.063 900.682 174.57 897.46 175.474 894.682C175.893 893.389 176.465 891.75 177.234 890.45C173.582 891.829 169.94 893.411 166.285 895.172C164.976 895.806 164.077 892.91 165.335 892.054C169.068 889.512 173.126 887.414 177.363 885.685C175 874.515 172.676 863.564 168.969 852.985C165.227 842.294 159.843 833.448 155.469 823.359Z" fill="#4A80E8"/>
<path d="M194.443 723.711L193.273 745.84L193.134 748.271L191.236 771.921C191.236 771.921 167.422 738.186 167.422 736.736C167.476 736.303 167.701 732.708 167.952 728.14C168.426 719.179 169.096 706.523 169.096 706.523L194.443 723.711Z" fill="#D8684E"/>
<path d="M194.423 723.715L193.253 745.844C191.553 746.821 189.544 746.316 187.732 745.625C182.072 743.377 176.8 739.421 172.449 734.198C171.028 732.493 169.382 730.424 167.93 728.14C168.403 719.179 169.074 706.523 169.074 706.523L194.423 723.715Z" fill="#AC4732"/>
<path d="M164.355 716.14C164.355 716.14 165.083 719.043 168.331 723.021H168.339C169.001 723.837 169.775 724.7 170.668 725.591C174.08 728.974 206.024 747.91 210.947 747.004C215.87 746.094 220.508 722.702 220.761 720.243C222.343 705.149 226.694 658.504 226.694 658.504C214.555 607.674 171.243 633.998 166.323 638.989C161.402 643.979 164.355 716.14 164.355 716.14Z" fill="#D8684E"/>
<path d="M208.732 701.439C208.732 701.439 201.213 702.907 199.453 701.439L200.517 708.002C200.517 708.002 210.673 704.876 211.869 703.731L208.732 701.439Z" fill="#ED7864"/>
<path d="M206.626 673.484C205.264 682.506 206.033 692.344 208.738 700.507C206.266 703.865 203.564 706.35 200.391 707.105C204.213 708.555 208.714 707.119 211.707 702.949C208.572 694.263 206.486 683.577 206.626 673.484Z" fill="#AC4732"/>
<path d="M188.555 714.924C188.555 714.924 197.704 711.817 211.867 718.039C211.867 718.039 207.239 732.009 198.843 730.129C190.449 728.25 188.555 714.924 188.555 714.924Z" fill="white"/>
<path d="M168.359 724.55C169.022 725.366 169.796 726.229 170.689 727.12C174.1 730.503 206.044 749.438 210.967 748.533C215.89 747.623 220.528 724.231 220.782 721.771C217.718 732.046 214.254 746.252 210.768 745.801C205.522 745.117 172.239 727.374 168.359 724.55Z" fill="#ED7864"/>
<path d="M222.932 676.318C222.932 676.318 219.673 663.491 215.61 666.248C211.546 669.004 212.858 670.05 212.858 670.05L222.932 676.318Z" fill="#131A70"/>
<path d="M177.422 670.136C177.422 670.136 190.236 655.637 193.865 662.733C195.982 666.875 193.906 668.858 193.906 668.858L177.422 670.136Z" fill="#131A70"/>
<path d="M182.656 684.528C182.656 689.225 184.37 693.031 186.484 693.031C188.599 693.031 190.312 689.225 190.312 684.528C190.312 679.831 188.599 676.025 186.484 676.025C184.37 676.025 182.656 679.835 182.656 684.528Z" fill="#161818"/>
<path d="M179.023 678.812C179.023 678.812 180.369 681.733 182.701 683.037C185.033 684.343 187.472 683.541 187.472 683.541C187.472 683.541 186.126 680.62 183.791 679.313C181.459 678.006 179.023 678.812 179.023 678.812Z" fill="#FFF0E7"/>
<path d="M218.897 687.518C218.897 691.058 217.605 693.926 216.011 693.926C214.417 693.926 213.125 691.058 213.125 687.518C213.125 683.977 214.417 681.109 216.011 681.109C217.605 681.109 218.897 683.977 218.897 687.518Z" fill="#161818"/>
<path d="M221.364 683.728C221.364 683.728 220.352 685.619 218.69 686.55C217.031 687.477 215.352 687.094 215.352 687.094C215.352 687.094 216.364 685.203 218.025 684.276C219.687 683.345 221.364 683.728 221.364 683.728Z" fill="#FFF0E7"/>
<path d="M216.013 706.227C216.517 708.088 219.421 708.303 222.504 706.706C225.584 705.113 227.675 702.31 227.171 700.448C226.666 698.587 223.762 698.372 220.679 699.969C217.597 701.562 215.508 704.365 216.013 706.227Z" fill="#ED7864"/>
<path d="M177.281 699.252C176.756 702.059 180.097 705.682 184.743 707.351C189.389 709.015 193.582 708.088 194.107 705.281C194.633 702.474 191.291 698.851 186.645 697.183C182.002 695.522 177.809 696.446 177.281 699.252Z" fill="#ED7864"/>
<path d="M169.062 717.815C162.483 717.099 157.695 711.701 155.13 707.179C154.553 706.159 154.089 705.185 153.742 704.318C151.863 699.607 151.325 683.26 156.162 679.462C159.553 676.805 162.02 680.661 163.192 683.214V683.224C163.692 684.309 163.958 685.158 163.958 685.158L169.062 717.815Z" fill="#ED7864"/>
<path d="M169.076 718.814C162.497 718.098 157.708 712.699 155.143 708.178C154.921 707.716 154.729 707.276 154.564 706.86C152.684 702.145 152.144 685.802 156.984 682.007C159.73 679.852 161.87 681.972 163.208 684.213V684.223C163.708 685.308 163.974 686.157 163.974 686.157L169.076 718.814Z" fill="#D8684E"/>
<path d="M204.111 658.046C198.548 655.873 192.968 653.65 187.841 649.934C184.587 647.578 181.523 644.542 179.043 640.801C169.226 654.33 163.928 674.794 166.539 693.45C165.973 689.497 163.871 686.046 161.166 684.553C158.441 683.089 155.508 683.06 153.145 685.416C151.574 678.481 150.006 671.493 149.022 664.376C148.53 660.842 148.189 657.312 148.057 653.725C147.679 642.892 149.457 631.482 154.584 623.266C159.256 615.755 167.07 611.648 173.88 614.265C174.353 612.042 175.127 610.105 176.357 608.745C178.873 605.891 183.64 605.659 186.705 605.236C190.962 604.635 195.274 604.764 199.532 605.63C207.061 607.173 214.477 611.151 220.114 618.218C225.127 624.472 228.531 632.871 230.821 641.639C230.953 642.111 231.067 642.609 231.181 643.078C233.223 651.398 234.398 660.112 235.55 668.801C223.745 666.893 212.432 659.485 203.883 648.051C202.863 651.19 202.956 654.982 204.111 658.046Z" fill="#131D42"/>
<path d="M192.777 626.67C192.606 632.112 193.004 637.636 193.949 642.92C188.501 640.958 183.619 636.089 180.537 629.574C175.541 634.074 170.492 638.603 166.252 644.41C161.994 650.191 158.552 657.441 157.493 665.554C154.636 665.844 151.761 665.45 149.02 664.376C148.528 660.842 148.186 657.312 148.054 653.725C147.865 648.072 148.243 642.265 149.397 636.82C150.438 631.847 152.12 627.189 154.582 623.266C159.254 615.755 167.067 611.648 173.877 614.265C174.351 612.042 175.125 610.105 176.354 608.745C178.87 605.891 183.638 605.659 186.702 605.236C190.96 604.635 195.272 604.764 199.529 605.63C207.059 607.173 214.474 611.151 220.111 618.218C220.585 618.794 221.038 619.395 221.473 620.076C225.749 626.044 228.738 633.684 230.819 641.639C230.951 642.111 231.065 642.609 231.179 643.078C226.564 642.555 221.985 641.767 217.445 640.514C208.669 638.105 200.06 633.841 192.777 626.67Z" fill="#131A70"/>
<path d="M184.941 616.983C184.089 620.437 184.107 624.257 184.979 627.687C180.817 626.484 176.826 624.311 173.174 621.304C165.684 626.302 159.516 634.99 156.035 645.43C153.633 642.892 151.399 640.013 149.414 636.82C150.455 631.847 152.137 627.189 154.598 623.266C159.27 615.755 167.084 611.648 173.894 614.265C174.367 612.042 175.141 610.105 176.371 608.745C178.887 605.891 183.654 605.659 186.719 605.236C190.976 604.635 195.288 604.764 199.546 605.63C207.075 607.173 214.491 611.151 220.128 618.218C220.602 618.794 221.055 619.396 221.489 620.076C209.306 622.113 196.839 621.118 184.941 616.983Z" fill="#172D8A"/>
<path d="M154.651 694.215C154.407 695.522 154.563 696.882 154.873 698.175C156.196 703.66 160.156 707.845 163.948 711.733C162.804 709.073 162.384 706.069 162.617 703.144C162.698 702.127 162.858 701.114 162.863 700.09C162.892 695.977 156.082 686.486 154.651 694.215Z" fill="#ED7864"/>
<path d="M165.853 713.375C165.853 713.375 165.778 713.318 165.638 713.207C165.501 713.093 165.278 712.942 165.027 712.702C164.52 712.233 163.818 711.482 163.156 710.365C162.498 709.251 161.901 707.769 161.618 706.011C161.362 704.261 161.417 702.216 162.097 700.247C162.17 699.997 162.271 699.76 162.372 699.528L162.447 699.352C162.465 699.309 162.454 699.334 162.454 699.334L162.457 699.331C162.457 699.331 162.462 699.341 162.447 699.302L162.385 699.145L162.258 698.833C162.17 698.629 162.084 698.421 161.994 698.221C161.637 697.415 161.248 696.664 160.852 695.962C160.454 695.26 160.042 694.616 159.633 694.025C159.222 693.438 158.826 692.89 158.435 692.482C158.044 692.07 157.612 691.805 157.208 691.734C156.802 691.669 156.421 691.798 156.162 691.974C155.901 692.153 155.756 692.385 155.699 692.557C155.634 692.729 155.64 692.833 155.632 692.833C155.632 692.833 155.611 692.733 155.642 692.539C155.668 692.35 155.774 692.06 156.033 691.795C156.292 691.537 156.696 691.293 157.231 691.276C157.767 691.268 158.342 691.515 158.857 691.92C159.377 692.324 159.843 692.829 160.332 693.384C160.819 693.943 161.313 694.573 161.789 695.274C162.263 695.976 162.721 696.75 163.138 697.587C163.244 697.795 163.342 698.01 163.443 698.228L163.588 698.557L163.78 699.023L163.914 699.349C163.881 699.456 163.826 699.567 163.785 699.674L163.591 700.14C163.503 700.344 163.415 700.548 163.355 700.766C162.762 702.474 162.633 704.261 162.742 705.861C162.879 707.465 163.27 708.89 163.743 710.021C164.22 711.152 164.766 711.994 165.175 712.548C165.377 712.828 165.56 713.021 165.674 713.168C165.791 713.3 165.853 713.375 165.853 713.375Z" fill="#CF4A57"/>
<path d="M419.413 943.666H440.226C441.929 943.666 443.308 941.758 443.308 939.402V894.59H416.328V939.402C416.331 941.758 417.71 943.666 419.413 943.666Z" fill="#FF3E98"/>
<path d="M406.523 927.538V909.422C406.523 904.049 409.686 899.674 413.571 899.674H424.108V937.283H413.571C409.684 937.286 406.523 932.915 406.523 927.538ZM420.081 905.244H413.571C411.907 905.244 410.551 907.12 410.551 909.422V927.538C410.551 929.84 411.904 931.716 413.571 931.716H420.081V905.244Z" fill="#FF3E98"/>
<path d="M905.593 955.902L890.747 940.336L870.359 966.499C870.359 966.499 819.771 966.224 810.953 971.716C797.209 980.268 739.336 1191.23 739.336 1191.23H763.508L830.883 1034.19C830.883 1034.19 897.341 1041.56 910.288 1033C923.232 1024.44 905.593 955.902 905.593 955.902Z" fill="#FF7D6F"/>
<path d="M773.625 1238.9L763.407 1242.02L760.718 1220.04C760.718 1220.04 754.501 1244.87 751.397 1246.67C748.294 1248.47 717.9 1252.42 706.344 1249.83C694.546 1247.18 694.805 1242.43 694.805 1242.43C695.815 1238.98 704.278 1229.79 712.571 1225.2C714.248 1224.27 716.412 1222.23 718.801 1219.55C728.157 1209.08 740.93 1188.97 740.93 1188.97L763.12 1186.86C773.103 1201.78 773.625 1238.9 773.625 1238.9Z" fill="#FF7D6F"/>
<path d="M773.625 1236.85L763.407 1239.95L760.718 1217.99C760.718 1217.99 754.501 1242.81 751.397 1244.61C748.294 1246.41 717.9 1250.36 706.344 1247.77C694.546 1245.12 694.805 1240.37 694.805 1240.37C695.815 1236.92 704.278 1227.73 712.571 1223.14C712.571 1223.14 717.328 1238.56 725.507 1237.45C733.702 1236.34 753.323 1213.72 755.733 1203.45C758.158 1193.18 765.625 1189.4 765.625 1189.4C775.608 1204.32 773.625 1236.85 773.625 1236.85Z" fill="#3547C7"/>
<path d="M832.32 765.589C835.323 773.719 841.868 778.073 848.168 780.808C870.676 790.574 896.085 786.69 916.508 770.357C920.929 766.824 925.197 762.617 928.135 756.843C929.978 753.166 931.223 748.787 931.458 744.377C931.549 742.873 931.523 741.355 931.339 739.855C931.23 738.806 931.044 737.779 930.796 736.765C929.173 730.343 925.057 725.75 922.687 719.789C919.462 711.69 919.749 701.956 918.579 692.863C917.35 683.315 914.218 674.343 909.838 666.81C902.485 654.144 890.186 643.869 878.225 643.031C865.628 642.154 850.353 654.183 843.98 668.819C840.137 677.629 838.7 687.972 837.331 698.075C836.777 702.164 836.218 706.227 835.664 710.316L831.696 739.511C831.161 743.371 830.658 747.377 830.508 751.34C830.332 756.302 830.71 761.182 832.32 765.589Z" fill="#131D42"/>
<path d="M918.789 844.942C924.951 819.774 927.961 796.02 927.961 796.02C927.961 796.02 905.273 774.268 898.719 768.829C892.166 763.391 877.832 776.745 872.658 774.787C867.484 772.828 860.353 775.728 860.353 775.728C860.353 775.728 851.636 893.968 851.817 896.922C851.895 898.175 853.572 900.512 857.519 902.363L854.636 905.063L844.57 967.052C844.57 967.052 929.822 1010.8 929.822 1005.12C929.822 999.438 918.791 844.939 918.791 844.939L918.789 844.942Z" fill="#CD2B7B"/>
<path d="M860.36 775.143C860.36 775.143 839.056 790.19 835.653 806.565C832.249 822.94 828.506 873.985 828.506 873.985L773.203 904.012V924.429H857.474V832.549L860.36 775.143Z" fill="#CD2B7B"/>
<path d="M710.34 947.961H693.594V1245.18H710.34V947.961Z" fill="#131D42"/>
<path d="M755.03 1257.54H648.906C648.906 1245.17 656.156 1235.14 665.098 1235.14H738.841C747.783 1235.14 755.03 1245.17 755.03 1257.54Z" fill="#131D42"/>
<path d="M835.082 942.879H453.164V963.085H835.082V942.879Z" fill="#FACC07"/>
<path d="M950.412 1058.84L976.489 881.883H964.117L935.273 1061.85L950.412 1058.84Z" fill="#131A70"/>
<path d="M985.646 852.869C980.501 845.386 943.919 845.483 909.062 847.402V889.017H990.225C990.225 889.017 995.803 867.64 985.646 852.869Z" fill="#131D42"/>
<path d="M835.061 1072.49L811.484 1258.79H819.712L852.7 1081.19L835.061 1072.49Z" fill="#131D42"/>
<path d="M952.912 1072.49L976.489 1258.79H968.261L935.273 1081.19L952.912 1072.49Z" fill="#131D42"/>
<path d="M964.112 1197.02H824.766V1208.86H964.112V1197.02Z" fill="#131D42"/>
<path d="M815.134 1053.64C815.134 1053.64 947.836 1038.87 957.995 1053.64C968.152 1068.42 962.574 1089.8 962.574 1089.8H811.484L815.134 1053.64Z" fill="#131A70"/>
<path d="M924.148 988.941L909.301 973.375L888.914 999.535C888.914 999.535 838.326 999.259 829.508 1004.75C815.764 1013.3 757.891 1224.26 757.891 1224.26H782.062L849.437 1067.22C849.437 1067.22 915.894 1074.59 928.843 1066.03C941.787 1057.48 924.148 988.941 924.148 988.941Z" fill="#FFA07F"/>
<path d="M792.18 1271.94L781.962 1275.05L779.272 1253.08C779.272 1253.08 773.055 1277.91 769.952 1279.71C766.849 1281.5 736.455 1285.45 724.898 1282.87C713.101 1280.21 713.36 1275.47 713.36 1275.47C714.369 1272.02 722.833 1262.82 731.126 1258.24C732.803 1257.3 734.967 1255.26 737.356 1252.59C746.712 1242.12 759.485 1222.01 759.485 1222.01L781.674 1219.9C791.657 1234.81 792.18 1271.94 792.18 1271.94Z" fill="#FFA07F"/>
<path d="M792.18 1269.88L781.962 1272.99L779.272 1251.02C779.272 1251.02 773.055 1275.85 769.952 1277.65C766.849 1279.45 736.455 1283.4 724.898 1280.81C713.101 1278.16 713.36 1273.41 713.36 1273.41C714.369 1269.96 722.833 1260.77 731.126 1256.18C731.126 1256.18 735.883 1271.6 744.062 1270.49C752.256 1269.38 771.878 1246.76 774.287 1236.49C776.713 1226.21 784.18 1222.44 784.18 1222.44C794.163 1237.36 792.18 1269.88 792.18 1269.88Z" fill="#3547C7"/>
<path d="M844.565 965.9C844.565 965.9 800.096 962.75 790.755 985.508C781.417 1008.26 760.664 1067.59 760.664 1067.59L811.922 1103.43C811.922 1103.43 826.768 1083.97 824.773 1088.94C822.775 1093.92 832.62 1120.34 832.62 1120.34L849.434 1066.18C849.434 1066.18 912.512 1082.13 928.839 1064.99C945.166 1047.85 924.146 983.063 924.146 983.063L844.565 965.9Z" fill="#FACC07"/>
<path d="M863.522 1074.61L848.398 1069.16L866.397 973.615L951.183 973.375L963.299 1069.16L948.191 1070.62L938.167 995.031L878.482 995.203L863.522 1074.61Z" fill="#131D42"/>
<path d="M682.807 942.34H786.863L769.485 843.762H665.43L682.807 942.34Z" fill="#131D42"/>
<path d="M712.381 894.675C716.026 894.675 718.979 890.59 718.979 885.55C718.979 883.416 718.428 881.479 717.542 879.925C718.425 879.585 719.339 879.342 720.299 879.342C725.985 879.342 730.592 885.718 730.592 893.58C730.592 901.445 725.983 907.818 720.299 907.818C714.732 907.818 710.225 901.692 710.039 894.056C710.769 894.439 711.553 894.675 712.381 894.675Z" fill="#FFF5F2"/>
<path d="M682.816 942.879H804.922V928.992H682.816V942.879Z" fill="#131D42"/>
<path d="M919.504 790.391C919.504 790.391 898.232 811.134 896.06 825.086C893.888 839.034 886.558 895.331 886.558 895.331C886.558 895.331 840.669 893.376 832.112 895.331C823.555 897.285 808.359 905.094 808.359 905.094V935.721C808.359 935.721 821.443 949.297 833.574 950.063C845.708 950.829 899.505 942.928 909.069 933.92C918.635 924.913 938.606 862.458 938.606 849.846C938.606 837.233 934.302 790.255 919.504 790.391Z" fill="#CD2B7B"/>
<path d="M808.367 932.721L804.935 930.136H784.439L782.07 916.693C782.07 916.693 796.937 909.042 798.819 908.971C800.701 908.899 808.37 907.299 808.37 907.299V932.721H808.367Z" fill="#FFA07F"/>
<path d="M806.602 897.346L808.338 939.384L816.152 943.877L817.203 894.59L806.602 897.346Z" fill="#FFF5F2"/>
<path d="M840.321 850.037C838.361 868.231 843.732 887.61 853.987 899.324C845.269 887.238 841.905 868.292 845.577 851.992C846.936 845.963 849.157 840.367 850.663 834.406C851.574 830.804 853.202 824.307 851.978 820.558C850.164 815.016 848.124 821.332 847.151 823.895C844.04 832.126 841.317 840.789 840.321 850.037Z" fill="#AE115D"/>
<path d="M898.707 767.644C898.707 767.644 882.067 776.91 879.287 776.04C876.51 775.191 872.646 773.602 872.646 773.602C873.107 772.563 875.979 763.176 875.511 760.363C874.424 753.872 871.797 745.029 871.797 745.029L887.006 734.479C887.006 734.479 888.276 740.665 889.845 747.173C891.429 753.764 897.597 766.796 898.707 767.644Z" fill="#FFA07F"/>
<path d="M889.842 747.163C885.9 752.501 881.034 758.855 879.355 760.012C877.983 760.95 876.603 760.796 875.519 760.359C874.424 753.865 871.797 745.033 871.797 745.033L887.003 734.479C887.003 734.479 888.284 740.676 889.842 747.163Z" fill="#FF7D6F"/>
<path d="M889.795 670.832C879.706 658.609 864.645 657.17 854.023 668.501C851.582 671.107 849.698 673.9 849.004 676.717C846.224 687.991 844.575 727.88 852.213 745.491C859.851 763.101 868.776 758.837 871.915 756.915C875.055 754.992 889.547 743.293 892.425 735.71C895.303 728.127 899.447 690.977 896.848 681.98C895.981 678.973 893.162 674.909 889.795 670.832Z" fill="#FFBF90"/>
<path d="M890.575 668.291C880.486 656.068 865.422 654.629 854.803 665.96C852.362 668.566 850.48 671.359 849.784 674.176C847.007 685.45 845.356 725.339 852.994 742.95C860.632 760.56 869.556 756.296 872.695 754.374C875.835 752.451 890.327 740.752 893.205 733.169C896.083 725.586 900.227 688.436 897.628 679.439C896.758 676.432 893.942 672.368 890.575 668.291Z" fill="#FFA07F"/>
<path d="M865.902 722.451C866.59 722.164 867.284 721.713 867.993 721.871C867.188 724.062 865.736 725.784 864.046 726.546C863.916 726.603 863.779 726.661 863.645 726.643C863.476 726.621 863.329 726.496 863.189 726.367C862.307 725.551 861.543 724.491 860.953 723.27C860.834 723.023 860.72 722.758 860.684 722.468C860.562 721.498 861.028 721.745 861.429 722.003C861.895 722.3 862.389 722.519 862.894 722.651C863.888 722.909 864.928 722.851 865.902 722.451Z" fill="#FF7D6F"/>
<path d="M863.891 725.327C863.493 724.772 863.037 724.289 862.626 723.745C862.118 723.071 861.65 722.348 861.246 721.55C863.586 719.588 863.702 716.341 863.752 712.65C863.775 710.985 863.508 709.317 862.985 707.817C862.711 707.029 862.367 706.288 861.963 705.615C861.759 705.271 861.539 704.949 861.303 704.645C861.075 704.348 860.832 704.172 860.55 703.982C860.679 704.212 860.762 704.476 860.879 704.709C861.181 705.325 861.5 705.901 861.753 706.56C862.007 707.219 862.222 707.91 862.39 708.619C862.732 710.036 862.903 711.536 862.877 713.033C862.851 714.501 862.633 715.965 862.188 717.3C861.678 718.825 860.829 720.308 859.766 721.135C859.758 721.142 861.197 723.737 861.339 723.952C861.707 724.503 862.113 725.008 862.556 725.449C862.988 725.878 863.485 726.39 864.036 726.405C864.21 726.408 864.388 726.369 864.533 726.243C864.443 726.15 864.357 726.043 864.282 725.928C864.249 725.878 864.217 725.825 864.186 725.771C864.091 725.617 863.992 725.47 863.891 725.327Z" fill="#FC5B68"/>
<path d="M878.242 729.396C873.216 734.552 866.528 736.474 860.43 734.523C863.528 736.746 866.846 737.91 870.27 736.979C873.695 736.048 875.985 733.077 878.242 729.396Z" fill="#FC5B68"/>
<path d="M873.709 739.562C871.628 741.893 868.7 742.699 866.133 741.646C867.21 743.092 868.599 743.873 870.088 743.594C871.578 743.311 872.95 741.356 873.709 739.562Z" fill="#FC5B68"/>
<path d="M892.031 717.61C892.8 716.919 896.222 708.678 899.553 712.712C902.884 716.747 904.372 724.14 902.03 728.855C899.892 733.162 896.804 737.949 892.414 737.218L892.031 717.61Z" fill="#FFA07F"/>
<path d="M900.009 718.707C900.27 719.681 900.252 720.748 900.113 721.775C899.525 726.15 896.945 729.841 894.465 733.285C895.112 731.105 895.216 728.745 894.851 726.526C894.724 725.753 894.543 724.994 894.468 724.21C894.173 721.052 898.456 712.939 900.009 718.707Z" fill="#FF7D6F"/>
<path d="M893.203 734.722C893.203 734.722 893.252 734.668 893.348 734.568C893.441 734.464 893.589 734.321 893.757 734.106C894.093 733.684 894.549 733.021 894.953 732.087C895.354 731.153 895.685 729.939 895.773 728.553C895.841 727.175 895.667 725.614 895.043 724.182C894.973 724 894.885 723.831 894.797 723.663L894.73 723.538C894.715 723.506 894.722 723.527 894.722 723.527H894.72C894.72 723.527 894.717 723.534 894.725 723.502L894.759 723.373L894.831 723.119C894.88 722.951 894.929 722.782 894.981 722.618C895.186 721.959 895.416 721.332 895.657 720.745C895.897 720.158 896.151 719.614 896.407 719.113C896.666 718.612 896.915 718.143 897.171 717.781C897.427 717.419 897.72 717.162 898.007 717.058C898.294 716.961 898.579 717.011 898.778 717.115C898.98 717.223 899.099 717.384 899.153 717.505C899.21 717.631 899.216 717.709 899.216 717.709C899.216 717.709 899.229 717.627 899.192 717.484C899.161 717.341 899.066 717.133 898.861 716.958C898.657 716.789 898.349 716.65 897.96 716.7C897.572 716.757 897.174 717.018 896.829 717.391C896.48 717.763 896.18 718.207 895.861 718.694C895.545 719.181 895.232 719.725 894.935 720.323C894.64 720.921 894.36 721.569 894.117 722.26C894.055 722.432 893.998 722.607 893.941 722.786L893.858 723.054L893.749 723.434L893.674 723.699C893.705 723.778 893.752 723.856 893.791 723.932L893.961 724.265C894.039 724.411 894.114 724.558 894.174 724.716C894.715 725.954 894.929 727.311 894.958 728.557C894.966 729.807 894.779 730.949 894.513 731.872C894.244 732.799 893.907 733.512 893.648 733.988C893.521 734.228 893.4 734.396 893.33 734.521C893.242 734.658 893.203 734.722 893.203 734.722Z" fill="#CF4A57"/>
<path d="M848.398 696.452C848.398 696.452 852.038 691.401 854.597 691.279C857.157 691.154 858.223 694.226 857.289 695.042C856.352 695.858 848.398 696.452 848.398 696.452Z" fill="#131A70"/>
<path d="M884.696 695.112C884.696 695.112 878.192 689.076 874.167 688.754C870.145 688.431 868.975 691.875 870.572 692.874C872.166 693.877 884.696 695.112 884.696 695.112Z" fill="#131A70"/>
<path d="M876.748 722.417C877.064 724.053 879.852 724.44 882.976 723.28C886.097 722.124 888.372 719.857 888.054 718.221C887.738 716.585 884.951 716.199 881.827 717.358C878.705 718.518 876.43 720.785 876.748 722.417Z" fill="#FF7D6F"/>
<path d="M844.988 720.169C844.706 721.39 846.632 723.334 849.293 724.516C851.953 725.694 854.337 725.661 854.619 724.437C854.901 723.216 852.976 721.272 850.315 720.094C847.657 718.913 845.27 718.949 844.988 720.169Z" fill="#FF7D6F"/>
<path d="M882.671 701.439C882.221 702.836 880.838 703.86 879.878 704.425C879.425 703.63 878.853 703.136 878.219 703.093C876.596 702.982 875.178 705.811 875.049 709.416C874.919 713.021 876.128 716.028 877.751 716.139C879.374 716.25 880.792 713.422 880.921 709.817C880.963 708.7 880.872 707.644 880.683 706.709C881.975 705.288 882.671 701.439 882.671 701.439Z" fill="#282828"/>
<path d="M850.469 703.982C850.777 705.139 851.848 706.059 852.599 706.585C852.995 705.98 853.471 705.622 853.984 705.636C855.291 705.665 856.323 708.042 856.29 710.946C856.256 713.849 855.169 716.18 853.862 716.151C852.555 716.123 851.522 713.745 851.556 710.842C851.566 709.943 851.677 709.098 851.866 708.364C850.88 707.126 850.469 703.982 850.469 703.982Z" fill="#282828"/>
<path d="M853.858 709.255C853.858 709.255 852.525 709.846 851.298 709.158C850.072 708.467 849.414 706.76 849.414 706.76C849.414 706.76 850.747 706.169 851.974 706.856C853.201 707.547 853.858 709.255 853.858 709.255Z" fill="white"/>
<path d="M878.008 709.564C878.008 709.564 879.625 710.448 881.186 709.732C882.749 709.016 883.663 706.972 883.663 706.972C883.663 706.972 882.045 706.087 880.485 706.803C878.924 707.519 878.008 709.564 878.008 709.564Z" fill="white"/>
<path d="M855.487 681.243C851.475 684.662 848.214 689.742 846.237 695.66C841.319 683.165 844.593 666.5 852.226 656.966C859.859 647.436 870.859 644.336 881.077 645.925C888.244 647.042 895.445 650.447 900.683 657.303C906.466 664.868 909.336 676.073 909.452 687.078C909.569 698.084 906.618 710.335 903.067 720.187C903.067 720.187 902.022 714.473 899.457 712.647C896.892 710.822 894.811 713.94 894.811 713.94C893.77 710.743 892.248 690.959 892.248 690.959C892.248 690.959 873.766 688.822 870.01 677.899L872.857 686.62C872.857 686.62 857.78 690.261 855.487 681.243Z" fill="#131D42"/>
<path d="M835.664 710.323C835.853 709.668 836.058 709.034 836.249 708.4C840.771 693.747 846.421 678.936 855.928 669.932C858.886 674.239 862.522 677.658 866.511 679.863C866.172 675.399 865.835 670.935 865.496 666.47C873.134 676.172 882.944 682.513 893.227 684.385C896.848 685.047 900.735 685.262 903.759 688.119C907.949 692.068 909.176 699.644 910.887 706.245C914.552 720.304 921.988 732.387 931.336 739.855C931.228 738.806 931.041 737.779 930.793 736.765C929.17 730.343 925.055 725.75 922.684 719.789C920.44 714.175 919.907 707.767 919.371 701.337C919.154 698.501 918.934 695.645 918.576 692.863C917.347 683.315 914.215 674.343 909.836 666.81C902.483 654.144 890.183 643.869 878.223 643.031C865.626 642.154 850.35 654.183 843.978 668.819C843.17 670.663 842.469 672.567 841.858 674.54C839.528 681.951 838.413 690.085 837.328 698.075C836.777 702.171 836.221 706.234 835.664 710.323Z" fill="#131A70"/>
<path d="M841.836 674.543C846.798 668.139 852.083 662.235 857.635 656.843C859.529 660.348 861.424 663.832 863.319 667.337C863.453 664.097 863.583 660.835 863.712 657.574C869.559 663.968 876.604 668.282 883.957 669.939C882.412 666.503 880.869 663.109 879.309 659.675C881.605 664.469 885.707 667.161 889.714 668.869C894.015 670.727 898.586 671.819 902.463 674.994C906.452 678.277 909.369 683.469 912.2 688.527C914.589 692.802 916.96 697.08 919.344 701.337C919.127 698.501 918.907 695.645 918.549 692.863C917.32 683.315 914.188 674.343 909.809 666.81C902.456 654.144 890.156 643.869 878.196 643.031C865.599 642.154 850.323 654.183 843.951 668.819C843.148 670.666 842.447 672.571 841.836 674.543Z" fill="#172D8A"/>
<path d="M648.054 943.709H627.231C625.525 943.709 624.141 941.793 624.141 939.434V894.59H651.141V939.434C651.144 941.797 649.762 943.709 648.054 943.709Z" fill="#6FB1FE"/>
<path d="M653.904 937.315H643.359V899.674H653.907C657.794 899.674 660.96 904.049 660.96 909.43V927.563C660.957 932.94 657.794 937.315 653.904 937.315ZM647.389 931.741H653.904C655.571 931.741 656.927 929.865 656.927 927.559V909.426C656.927 907.12 655.571 905.244 653.904 905.244H647.389V931.741Z" fill="#6FB1FE"/>
<path d="M860.352 774.416C860.352 774.416 869.716 804.249 878.84 799.416C887.963 794.583 907.145 775.068 907.145 775.068L898.72 767.518L872.659 773.475C872.659 773.475 865.94 772.379 860.352 774.416Z" fill="#FFA07F"/>
<path d="M876.68 800.021C876.68 800.021 887.504 818.827 897.339 808.856C907.175 798.886 907.133 775.143 907.133 775.143L876.68 800.021Z" fill="white"/>
<path d="M860.343 775.143C860.343 775.143 855.627 807.693 863.055 808.599C870.481 809.504 876.683 800.669 876.683 800.669C876.683 800.669 866.192 799.455 860.343 775.143Z" fill="white"/>
<path d="M817.227 892.972C817.227 892.972 837.726 890.348 851.813 895.06C865.901 899.771 890.21 895.99 889.851 893.653C889.491 891.315 894.802 839.35 900.227 829.078C905.652 818.807 919.37 803.098 919.37 803.098C919.37 803.098 905.968 827.872 903.19 840.56C900.413 853.248 893.303 906.118 892.053 904.457C890.803 902.796 836.714 902.22 830.468 898.883C824.225 895.543 817.227 892.972 817.227 892.972Z" fill="#AE115D"/>
<path d="M847.383 947.12C847.383 947.12 894.631 940.783 902.523 935.478C910.415 930.172 910.415 930.172 910.415 930.172C911.719 935.12 888.541 947.446 871.128 947.124C854.41 946.812 847.383 947.12 847.383 947.12Z" fill="#AE115D"/>
<path d="M325.646 291.979L229.922 424.422L247.935 449.331L343.659 316.887L325.646 291.979Z" fill="#FDE4D9"/>
<path d="M325.634 292.013L305.234 320.223L323.242 345.139L343.642 316.929L325.634 292.013Z" fill="#CCA190"/>
<path d="M318.792 362.22L290.914 323.662C287.598 319.076 282.225 319.076 278.909 323.662L184.127 454.762C180.812 459.348 180.812 466.784 184.127 471.366L212.011 509.931C215.326 514.517 220.699 514.517 224.015 509.931L318.794 378.828C322.107 374.238 322.107 366.806 318.792 362.22Z" fill="#131A70"/>
<path d="M318.81 359.841L304.865 340.555L198.086 488.266L212.029 507.552C215.344 512.138 220.72 512.138 224.033 507.552L318.81 376.449C322.126 371.859 322.126 364.427 318.81 359.841Z" fill="#131D42"/>
<path d="M325.632 315.718C273.483 243.594 273.489 126.224 325.639 54.0921C377.775 -18.0289 462.634 -18.0325 514.777 54.0921C566.93 126.224 566.93 243.586 514.777 315.707C462.631 387.85 377.777 387.85 325.632 315.718ZM494.583 82.0276C453.572 25.3081 386.844 25.2974 345.833 82.0276C304.82 138.754 304.82 231.067 345.828 287.786C386.839 344.509 453.572 344.509 494.586 287.786C535.597 231.052 535.589 138.751 494.583 82.0276Z" fill="#FDE4D9"/>
<path d="M494.848 176.735C494.848 199.952 481.239 218.776 464.454 218.776C447.669 218.776 434.062 199.955 434.062 176.735C434.062 153.518 447.669 134.697 464.454 134.697C481.239 134.697 494.848 153.518 494.848 176.735Z" fill="#FDE4D9"/>
<path d="M892.996 344.595H848.382V408.22C823.695 408.22 803.711 380.55 803.711 346.431C803.711 312.31 823.695 284.643 848.382 284.643C872.603 284.643 892.312 311.311 892.996 344.595Z" fill="#E1BFB2"/>
<path d="M859.023 421.007V360.887H905.871C905.871 360.887 907.445 430.101 859.023 421.007Z" fill="#E1BFB2"/>
</svg>
