<?xml version="1.0" encoding="utf-8"?>
<!-- Generator: Adobe Illustrator 27.5.0, SVG Export Plug-In . SVG Version: 6.00 Build 0)  -->
<svg version="1.1" xmlns="http://www.w3.org/2000/svg" xmlns:xlink="http://www.w3.org/1999/xlink" x="0px" y="0px"
	 viewBox="0 0 2000 3000" style="enable-background:new 0 0 2000 3000;" xml:space="preserve">
<g id="Слой_2">
	<g>
		<rect style="fill:#FFE19F;" width="2000" height="3000"/>
		<rect style="fill:#F4AA5B;" width="2000" height="1982"/>
		<polygon style="fill:#C12925;" points="0,0 0,183.454 2000,389 2000,0 		"/>
		<polygon style="fill:#E6E6E6;" points="0,183 411,226 0,1398.682 		"/>
		<g>
			<g>
				<g>
					<path style="fill:#E57C0A;" d="M161.783,2663.684V2405.49h79.799c26.955,0,47.437,6.001,61.445,17.999
						c14.009,12,21.014,29.587,21.014,52.756c0,13.122-2.898,24.413-8.689,33.87c-5.793,9.46-13.715,16.375-23.762,20.748
						c11.584,3.311,20.509,9.961,26.776,19.949c6.265,9.991,9.398,22.316,9.398,36.974c0,25.064-6.888,43.978-20.658,56.746
						c-13.774,12.768-33.724,19.151-59.85,19.151H161.783z M213.919,2513.484h27.132c20.451,0,30.678-10.579,30.678-31.742
						c0-11.704-2.366-20.097-7.093-25.181c-4.73-5.082-12.413-7.625-23.054-7.625h-27.663V2513.484z M213.919,2551.434v68.981
						h33.338c9.338,0,16.431-2.896,21.28-8.689c4.846-5.791,7.271-14.009,7.271-24.648c0-23.17-8.396-35.051-25.182-35.644H213.919z
						"/>
					<path style="fill:#E57C0A;" d="M457.748,2520.223l-16.669-1.418c-13.715,0-22.994,6.029-27.841,18.088v126.791h-50.361
						v-191.872h47.347l1.419,20.748c7.919-16.195,18.855-24.294,32.806-24.294c5.675,0,10.285,0.77,13.832,2.305L457.748,2520.223z"
						/>
					<path style="fill:#E57C0A;" d="M471.226,2561.541c0-29.082,6.855-51.896,20.57-68.449
						c13.713-16.55,32.688-24.826,56.924-24.826c24.472,0,43.563,8.276,57.277,24.826c13.713,16.553,20.57,39.486,20.57,68.804
						v12.236c0,29.201-6.8,52.019-20.393,68.449c-13.597,16.434-32.629,24.649-57.101,24.649c-24.591,0-43.712-8.246-57.366-24.738
						c-13.655-16.491-20.482-39.395-20.482-68.715V2561.541z M521.588,2574.132c0,34.285,9.16,51.426,27.486,51.426
						c16.904,0,26.007-14.303,27.309-42.914l0.178-21.103c0-17.495-2.425-30.471-7.271-38.924c-4.85-8.451-11.704-12.68-20.57-12.68
						c-8.513,0-15.162,4.229-19.95,12.68c-4.788,8.453-7.182,21.429-7.182,38.924V2574.132z"/>
					<path style="fill:#E57C0A;" d="M727.114,2625.558c14.541,0,21.928-9.457,22.166-28.373h47.17
						c-0.238,20.925-6.681,37.832-19.329,50.717c-12.651,12.887-28.966,19.329-48.943,19.329c-24.71,0-43.565-7.684-56.568-23.054
						c-13.006-15.366-19.626-38.007-19.861-67.917v-15.251c0-30.146,6.412-53.138,19.24-68.981
						c12.826-15.841,31.771-23.762,56.835-23.762c21.16,0,37.829,6.533,50.007,19.595c12.175,13.064,18.382,31.596,18.62,55.593
						h-47.17c-0.119-10.756-1.893-19.032-5.32-24.826c-3.43-5.791-9.104-8.689-17.023-8.689c-8.75,0-15.015,3.104-18.797,9.311
						c-3.785,6.206-5.794,18.237-6.029,36.087v19.506c0,15.605,0.768,26.511,2.305,32.718c1.535,6.206,4.079,10.759,7.626,13.654
						C715.587,2624.111,720.61,2625.558,727.114,2625.558z"/>
					<path style="fill:#E57C0A;" d="M873.767,2488.658c10.875-13.594,24.233-20.393,40.076-20.393
						c17.495,0,30.795,6.148,39.899,18.442c9.103,12.296,13.713,30.619,13.832,54.972v122.004h-50.362v-121.472
						c0-11.229-1.745-19.356-5.231-24.383c-3.488-5.023-9.132-7.536-16.935-7.536c-9.104,0-16.198,4.197-21.279,12.59v140.801
						h-50.185v-272.38h50.185V2488.658z"/>
					<path style="fill:#E57C0A;" d="M1097.912,2646.128c-10.404,14.07-24.355,21.103-41.85,21.103
						c-17.617,0-30.975-6.058-40.077-18.177c-9.104-12.116-13.654-29.761-13.654-52.933v-124.31h50.185v125.551
						c0.235,18.681,6.442,28.018,18.619,28.018c11.467,0,19.742-4.965,24.826-14.896v-138.673h50.539v191.872h-47.17
						L1097.912,2646.128z"/>
					<path style="fill:#E57C0A;" d="M1277.017,2520.223l-16.669-1.418c-13.716,0-22.995,6.029-27.842,18.088v126.791h-50.361
						v-191.872h47.347l1.419,20.748c7.919-16.195,18.855-24.294,32.807-24.294c5.674,0,10.285,0.77,13.831,2.305L1277.017,2520.223z
						"/>
					<path style="fill:#E57C0A;" d="M1376.854,2667.23c-25.774,0-45.871-7.684-60.293-23.054
						c-14.425-15.366-21.634-37.355-21.634-65.967v-15.25c0-30.263,6.619-53.612,19.86-70.046
						c13.239-16.431,32.214-24.648,56.924-24.648c24.117,0,42.263,7.702,54.44,23.108c12.175,15.405,18.381,38.214,18.619,68.433
						v24.61h-99.837c0.71,14.247,3.841,24.668,9.398,31.257c5.556,6.589,14.126,9.884,25.713,9.884
						c16.786,0,30.795-5.732,42.027-17.201l19.684,30.323c-6.147,8.512-15.072,15.4-26.776,20.659
						S1390.566,2667.23,1376.854,2667.23z M1345.288,2549.482h50.185v-4.61c-0.238-11.466-2.128-20.154-5.674-26.067
						c-3.547-5.91-9.695-8.867-18.442-8.867c-8.751,0-15.104,3.134-19.063,9.399
						C1348.331,2525.604,1345.998,2535.65,1345.288,2549.482z"/>
				</g>
			</g>
			<g>
				<path style="fill:#C12925;" d="M1179.902,2685.569c0,0.708,0.656,1.061,1.971,1.061c0.909,0,5.024-0.605,12.35-1.818
					c7.324-1.212,13.966-1.868,19.928-1.97c-6.668,1.818-12.402,3.663-17.199,5.531c-4.8,1.87-9.751,3.939-14.852,6.213
					c-5.103,2.273-8.765,3.788-10.986,4.546c-2.223,0.758-4.144,1.137-5.758,1.137c-5.152,0-7.729-3.334-7.729-10.002
					c0-17.173,4.345-29.246,13.032-36.217c3.535-2.827,9.218-6.188,17.048-10.077c7.828-3.888,16.669-7.577,26.519-11.063
					c9.851-3.485,20.686-6.49,32.505-9.017c11.82-2.523,23.488-3.788,35.005-3.788c11.82,0,22.679,1.719,32.581,5.152
					c9.899,3.436,18.185,8.259,24.852,14.472c6.668,6.213,11.794,13.815,15.381,22.807c3.585,8.992,5.38,19.094,5.38,30.307
					c0,17.074-4.925,33.642-14.774,49.704c-9.851,16.063-22.984,30.232-39.4,42.507c-16.418,12.274-34.929,21.999-55.538,29.171
					c-20.608,7.172-40.915,10.759-60.918,10.759c-3.738,0-6.693-0.404-8.864-1.212c-2.174-0.81-3.713-2.401-4.622-4.773
					c-0.909-2.373-1.364-5.884-1.364-10.532c0-5.758,0.455-10.456,1.364-14.093s2.425-7.828,4.546-12.577
					c14.548-32.226,39.854-72.788,75.92-121.685c-7.273,0.81-15.256,2.349-23.942,4.622c-8.69,2.272-16.923,4.773-24.701,7.501
					c-7.78,2.728-14.346,5.355-19.699,7.88C1182.578,2682.641,1179.902,2684.459,1179.902,2685.569z M1260.672,2659.202
					c0,0.203,0.201,1.34,0.606,3.409c0.402,2.072,0.606,3.864,0.606,5.38c0,2.325-1.189,5.583-3.562,9.774
					c-2.375,4.193-7.047,11.645-14.018,22.352c-6.971,10.709-12.933,20.104-17.881,28.186c-4.951,8.084-10.812,18.487-17.578,31.217
					c-2.122,4.042-3.588,6.77-4.395,8.183c-0.811,1.416-2.099,3.739-3.864,6.971c-1.769,3.234-3.057,6.012-3.864,8.335
					c-0.81,2.325-1.213,4.092-1.213,5.304c0,2.628,1.44,4.471,4.319,5.531s6.994,1.591,12.35,1.591
					c13.738,0,28.286-2.5,43.644-7.501c15.354-5.001,29.776-11.945,43.264-20.836c13.486-8.889,24.27-18.942,32.353-30.156
					c8.082-11.214,12.123-22.932,12.123-35.156c0-13.941-5.103-24.675-15.305-32.202c-10.205-7.524-25.056-11.289-44.552-11.289
					C1275.522,2658.293,1267.844,2658.596,1260.672,2659.202z"/>
				<path style="fill:#C12925;" d="M1390.994,2776.491v3.789c0,5.962,1.463,10.607,4.395,13.941
					c2.929,3.334,6.767,5.001,11.517,5.001c4.948,0,10.077-1.16,15.381-3.485c5.304-2.323,10.582-5.403,15.836-9.244
					c5.251-3.838,11.668-8.99,19.245-15.457v9.244c-11.418,13.74-22.125,24.271-32.126,31.596
					c-10.002,7.323-20.154,10.986-30.459,10.986c-8.993,0-16.115-3.485-21.367-10.456c-5.254-6.971-7.88-16.518-7.88-28.641
					c0-10.607,2.475-20.23,7.426-28.868c4.948-8.638,13.032-17.753,24.246-27.353c7.676-6.565,15.305-11.517,22.882-14.851
					s14.344-5.001,20.306-5.001c4.748,0,8.51,1.087,11.29,3.259c2.777,2.173,4.167,5.432,4.167,9.773
					c0,6.365-2.375,12.706-7.122,19.019c-4.75,6.314-11.998,12.577-21.746,18.79
					C1417.233,2764.747,1405.238,2770.733,1390.994,2776.491z M1392.509,2766.642c9.093-3.535,16.871-7.93,23.337-13.184
					c6.464-5.252,11.237-10.278,14.32-15.078c3.08-4.797,4.622-8.309,4.622-10.531c0-2.323-1.061-3.485-3.183-3.485
					c-1.818,0-4.773,1.162-8.864,3.485c-4.092,2.325-8.235,5.355-12.427,9.092c-4.193,3.738-7.955,8.134-11.289,13.184
					C1395.691,2755.177,1393.518,2760.682,1392.509,2766.642z"/>
				<path style="fill:#C12925;" d="M1456.761,2775.279v-3.637c26.064-27.479,43.995-46.724,53.796-57.735
					c2.221-12.427,7.577-18.64,16.063-18.64c2.122,0,4.395,0.606,6.819,1.818l0.909,2.88c-0.404,1.212-0.606,2.931-0.606,5.152
					c0,1.92,0.732,5.48,2.197,10.683c1.464,5.205,2.601,9.573,3.41,13.108c0.808,3.537,1.212,7.527,1.212,11.972
					c0,6.667-1.515,13.058-4.546,19.169c-3.03,6.113-7.425,11.972-13.184,17.578c-5.759,5.607-13.184,11.342-22.276,17.2
					c3.638,0.605,6.517,0.909,8.638,0.909c4.142,0,8.612-1.035,13.411-3.107c4.797-2.069,9.698-4.849,14.699-8.334
					s10.835-8.006,17.503-13.563v10.153c-12.933,12.629-24.5,22.199-34.702,28.716c-10.205,6.516-18.994,9.774-26.367,9.774
					c-9.498,0-18.287-4.04-26.368-12.123c-4.749-4.85-7.704-9.495-8.864-13.941
					C1457.341,2788.868,1456.761,2782.856,1456.761,2775.279z M1513.284,2752.094l-2.728-22.124
					c-6.266,7.072-19.65,20.661-40.157,40.764c6.062,1.313,10.202,3.083,12.426,5.304c2.221,2.224,5.354,6.516,9.396,12.881
					c6.869-2.827,12.146-6.691,15.835-11.593c3.688-4.899,5.531-11.593,5.531-20.079c0-1.009-0.025-1.918-0.075-2.728
					C1513.459,2753.711,1513.384,2752.904,1513.284,2752.094z"/>
				<path style="fill:#C12925;" d="M1626.634,2771.036v11.063c-9.8,12.63-18.942,22.15-27.429,28.564
					c-8.485,6.417-15.71,9.623-21.669,9.623c-8.285,0-14.448-4.343-18.488-13.032c-4.041-8.688-6.062-18.185-6.062-28.489
					c0-3.939,0.403-7.702,1.213-11.289c0.808-3.585,1.767-6.54,2.879-8.865c1.11-2.323,3.183-5.96,6.213-10.911
					c14.344-22.325,27.479-33.489,39.399-33.489c6.161,0,9.244,2.375,9.244,7.122c0,3.234-1.996,8.285-5.985,15.154
					c-3.992,6.871-7.554,11.77-10.684,14.698c-8.789,8.486-14.524,14.396-17.199,17.73c-2.679,3.334-4.016,7.122-4.016,11.365
					c0,3.637,1.363,6.667,4.091,9.092s6.263,3.637,10.607,3.637c4.748,0,9.976-1.742,15.685-5.228
					C1610.14,2784.296,1617.542,2778.715,1626.634,2771.036z M1616.329,2703.299c-2.526,0-4.925-0.959-7.198-2.879
					c-2.272-1.918-3.409-4.343-3.409-7.273c0-4.444,2.121-9.396,6.364-14.851c4.243-5.456,8.638-8.184,13.184-8.184
					c3.031,0,5.555,0.936,7.577,2.804c2.02,1.87,3.031,4.572,3.031,8.107c0,4.345-2.072,9.145-6.214,14.396
					C1625.521,2700.674,1621.076,2703.299,1616.329,2703.299z"/>
				<path style="fill:#C12925;" d="M1745.742,2781.189l-50.311,41.369c-14.145,24.447-27.025,42.708-38.642,54.781
					c-11.619,12.07-20.256,18.108-25.913,18.108c-3.03,0-4.546-1.87-4.546-5.606c0-7.274,3.687-16.57,11.063-27.883
					c2.929-4.447,6.288-8.79,10.077-13.032c3.788-4.243,7.373-7.906,10.759-10.986c3.384-3.083,7.854-6.922,13.411-11.518
					c5.555-4.598,9.343-7.752,11.365-9.471c10.101-20.609,17.375-36.369,21.821-47.279c-9.497,10.103-17.782,18.388-24.852,24.852
					c-7.073,6.467-13.563,11.441-19.473,14.927s-11.24,5.228-15.987,5.228c-5.152,0-9.902-4.115-14.244-12.35
					c-4.346-8.233-6.517-16.693-6.517-25.383c0-4.039,0.933-8.282,2.804-12.729c1.868-4.444,4.797-9.191,8.789-14.244
					c3.989-5.051,9.066-10.229,15.229-15.532c6.161-5.304,13.385-10.48,21.67-15.533c15.658-9.798,27.83-14.699,36.521-14.699
					c6.464,0,9.698,2.375,9.698,7.123c0,6.567-7.023,12.982-21.063,19.245c-8.588,3.738-17.101,8.689-25.534,14.851
					c-8.437,6.163-15.256,12.705-20.458,19.624c-5.204,6.921-7.804,13.16-7.804,18.715c0,2.728,0.655,4.901,1.97,6.516
					c1.312,1.617,3.031,2.425,5.152,2.425c3.535,0,7.577-1.614,12.123-4.849c4.546-3.232,11.264-8.941,20.154-17.124
					c4.039-3.736,9.419-9.774,16.139-18.108c6.718-8.335,12.274-14.699,16.669-19.094s8.358-6.592,11.896-6.592
					c2.021,0,3.661,0.632,4.926,1.894c1.262,1.265,1.894,3.106,1.894,5.531c0,4.648-1.845,11.392-5.531,20.23
					c-3.688,8.841-10.33,23.313-19.927,43.415l36.672-26.67V2781.189z"/>
				<path style="fill:#C12925;" d="M1846.817,2743.608c-17.782,19.802-26.671,33.591-26.671,41.369c0,4.345,1.767,6.517,5.305,6.517
					c2.929,0,6.743-1.539,11.44-4.622c4.698-3.081,12.047-8.562,22.049-16.441v10.456c-14.347,14.145-25.358,24.348-33.035,30.61
					c-7.679,6.265-13.941,9.395-18.791,9.395c-8.284,0-12.426-5.455-12.426-16.365c0-3.232,0.505-6.415,1.516-9.547
					c1.009-3.131,2.398-6.389,4.167-9.774c1.767-3.384,4.471-8.232,8.107-14.548c3.637-6.313,7.828-13.461,12.577-21.442
					c-5.758,2.932-12.982,8.739-21.669,17.427c-5.659,5.455-10.456,10.634-14.396,15.532c-3.939,4.901-8.159,10.357-12.653,16.366
					c-4.496,6.012-7.78,10.054-9.85,12.123c-2.072,2.072-4.168,3.106-6.289,3.106c-3.234,0-6.213-3.383-8.94-10.152
					c-2.728-6.768-4.092-14.647-4.092-23.641c0-5.555,0.63-9.899,1.895-13.032c1.262-3.13,3.762-7.576,7.501-13.335
					c6.971-10.707,12.979-18.563,18.033-23.563c5.05-5.001,9.899-7.501,14.547-7.501c3.232,0,5.834,0.556,7.805,1.666
					c1.97,1.113,2.955,2.83,2.955,5.152c0,1.012-0.304,2.072-0.909,3.183c-0.606,1.113-1.288,2.121-2.046,3.03
					c-0.758,0.91-2.35,2.679-4.773,5.305c-15.964,17.68-23.943,29.146-23.943,34.398c0,2.932,0.959,4.395,2.88,4.395
					c1.212,0,3.561-1.943,7.046-5.834c3.485-3.888,7.979-8.99,13.487-15.306c5.505-6.313,12.021-12.904,19.548-19.775
					c7.524-6.869,16.087-13.486,25.686-19.852c5.354-3.736,9.798-5.606,13.335-5.606c1.615,0,3.206,2.224,4.773,6.668
					c1.565,4.446,2.35,8.94,2.35,13.486C1853.334,2735.679,1851.16,2739.062,1846.817,2743.608z"/>
			</g>
		</g>
	</g>
</g>
<g id="Layer_1">
	<g>
		<path style="fill:#F7971E;" d="M726.026,1064.199c-8.495-7.719-17.266-15.14-25.603-23.024c-1.522-1.439-2.576-4.714-2.092-6.718
			c3.119-12.925,6.98-25.671,10.011-38.615c0.881-3.767,2.035-5.64,5.903-6.541c13.621-3.172,27.157-6.713,40.721-10.129
			c2.2-0.554,4.379-1.186,8.184-2.221c-3.267-20.532-6.498-40.833-9.809-61.646c-16.953,0.884-32.376,1.438-47.751,2.624
			c-5.421,0.419-8.195-0.604-10.87-5.962c-5.466-10.949-12.456-21.129-18.503-31.804c-0.927-1.636-0.987-4.678-0.076-6.297
			c6.958-12.367,13.907-24.768,21.599-36.68c3.691-5.717,2.77-9.213-2.305-12.856c-1.951-1.4-3.396-3.505-5.071-5.288
			c-8.732-6.463-17.462-12.926-26.194-19.389c-1.156-0.409-2.414-0.644-3.451-1.254c-10.869-6.4-8.656-5.981-16.613,2.711
			c-9.696,10.591-19.213,21.345-27.542,30.619c-17.458-4.218-33.773-8.159-50.625-12.23c-4.192-16.632-8.573-34.013-12.982-51.506
			c-21.251-0.214-41.36,3.573-61.447,9.767c0.901,16.674,1.74,32.933,2.697,49.184c0.172,2.917-0.25,4.606-3.326,6.28
			c-12.045,6.553-23.94,13.427-35.504,20.789c-3.333,2.123-5.241,1.859-8.231,0.059c-12.342-7.43-24.856-14.574-37.229-21.954
			c-3.074-1.833-5.206-2.04-8.092,0.808c-12.943,12.775-22.676,27.754-31.185,43.664c-1.684,3.149-0.293,4.82,1.98,6.815
			c10.519,9.229,20.814,18.714,31.395,27.869c3.048,2.638,3.807,4.639,2.506,8.884c-4.494,14.667-8.133,29.596-12.417,45.62
			c-15.118,3.81-32.274,8.134-49.423,12.456c-0.307,21.643,2.54,42.13,9.237,62.237c18.189-1.072,35.883-2.115,51.91-3.059
			c8.085,12.595,15.298,24.497,23.254,35.88c3.006,4.302,3.223,7.249,0.466,11.627c-7.342,11.66-14.232,23.607-21.182,35.51
			c-1.374,2.352-3.787,4.973-0.185,7.597c14.654,10.676,29.297,21.366,43.955,32.037c3.115,2.269,5.408,1.442,7.91-1.439
			c9.309-10.722,19.089-21.04,28.212-31.913c3.519-4.195,6.612-3.927,11.301-2.591c11.581,3.3,23.29,6.382,35.145,8.376
			c5.109,0.859,6.794,2.467,7.865,7.277c3.438,15.454,7.483,30.773,11.215,45.823c12.706,1.837,48.887-3.994,62.483-9.939
			c-1.007-16.066-1.859-32.324-3.163-48.544c-0.327-4.058,1.084-5.577,4.431-7.506c10.801-6.223,21.16-13.209,31.9-19.544
			c1.807-1.065,5.198-1.306,6.939-0.315c11.071,6.293,21.923,12.975,32.77,19.654c6.064,3.734,8.498,5.264,11.222,3.959
			l34.404-46.478C735.43,1072.789,732.899,1070.445,726.026,1064.199z M627.867,1031.935
			c-30.751,41.543-89.357,50.292-130.901,19.541l0,0c-41.543-30.75-50.293-89.357-19.542-130.901h0.001
			c30.751-41.544,89.357-50.292,130.901-19.542l0,0C649.869,931.785,658.618,990.391,627.867,1031.935L627.867,1031.935z"/>
		<rect x="612.332" y="1858.362" style="fill:#353535;" width="12.934" height="189.148"/>
		<path style="fill:#E57C0A;" d="M1230.979,760.742c-11.231,1.563-22.411,3.524-33.667,4.864c-2.056,0.245-5.207-1.027-6.422-2.662
			c-7.836-10.542-15.065-21.536-22.971-32.022c-2.301-3.052-2.992-5.112-1.229-8.617c6.209-12.343,12.084-24.855,18.072-37.309
			c0.97-2.02,1.87-4.073,3.49-7.615c-17.646-10.508-35.096-20.899-52.985-31.551c-10.052,13.423-19.388,25.478-28.214,37.896
			c-3.111,4.378-5.643,5.835-11.399,4.477c-11.766-2.778-23.913-3.913-35.839-6.077c-1.829-0.331-4.174-2.21-4.827-3.926
			c-4.984-13.103-9.999-26.22-14.172-39.592c-2.004-6.417-5.24-7.93-11.214-6.384c-2.297,0.595-4.809,0.36-7.222,0.503
			c-10.426,2.538-20.853,5.075-31.281,7.612c-1.041,0.618-2.016,1.425-3.135,1.826c-11.731,4.2-10.014,2.785-8.451,14.322
			c1.904,14.057,4.044,28.082,5.813,40.268c-14.244,10.58-27.556,20.468-41.305,30.68c-15.272-7.339-31.233-15.009-47.297-22.728
			c-13.605,15.99-23.452,33.646-31.458,52.806c13.224,9.863,26.092,19.512,39.03,29.065c2.322,1.714,3.337,3.103,2.662,6.497
			c-2.646,13.286-4.955,26.66-6.682,40.093c-0.498,3.873-1.905,5.153-5.162,6.283c-13.445,4.665-26.782,9.644-40.208,14.365
			c-3.336,1.172-4.841,2.66-4.506,6.651c1.508,17.902,6.718,34.764,13.408,51.285c1.325,3.269,3.472,3.271,6.424,2.808
			c13.657-2.143,27.367-3.957,41.008-6.194c3.931-0.645,5.928,0.045,8.327,3.717c8.288,12.688,17.315,24.893,26.765,38.279
			c-6.672,13.883-14.242,29.636-21.81,45.385c16.23,13.922,33.578,24.722,53.071,32.358c10.692-14.48,21.094-28.567,30.516-41.327
			c14.671,1.831,28.266,3.887,41.937,5.05c5.166,0.44,7.539,2.14,9.118,7.001c4.203,12.948,8.911,25.733,13.548,38.536
			c0.916,2.531,1.379,6.02,5.648,4.946c17.371-4.368,34.746-8.716,52.115-13.089c3.692-0.93,4.515-3.192,3.911-6.913
			c-2.248-13.846-3.891-27.794-6.372-41.595c-0.957-5.325,1.203-7.503,5.183-10.216c9.829-6.7,19.576-13.635,28.588-21.37
			c3.885-3.334,6.17-3.595,10.497-1.365c13.903,7.167,28.086,13.787,41.867,20.476c9.431-8.481,27.894-39.625,31.983-53.703
			c-12.83-9.398-25.705-19.036-38.84-28.307c-3.286-2.319-3.547-4.351-2.893-8.11c2.108-12.133,3.361-24.413,5.348-36.57
			c0.334-2.045,2.297-4.77,4.149-5.466c11.779-4.42,23.714-8.428,35.644-12.435c6.67-2.24,9.37-3.119,10.104-6.012l-13.508-55.507
			C1243.444,759.039,1240.065,759.476,1230.979,760.742z M1144.402,814.82c12.073,49.614-18.359,99.622-67.973,111.695l0,0
			c-49.615,12.074-99.623-18.359-111.696-67.973v0c-12.073-49.614,18.359-99.622,67.974-111.695l0,0
			C1082.321,734.773,1132.329,765.206,1144.402,814.82L1144.402,814.82z"/>
		<g>
			<path style="fill:#ADAEB5;" d="M823.128,1290.622c0,17.167-22.471,31.083-50.189,31.083c-27.719,0-50.19-13.917-50.19-31.083
				c0-17.166,22.471-31.083,50.19-31.083C800.658,1259.54,823.128,1273.456,823.128,1290.622z"/>
			<path style="fill:#FFD800;" d="M772.938,630.182c-124.971,0-226.281,101.309-226.281,226.281
				c0,68.283,30.246,129.5,78.07,170.989c0.168,0.181,35.349,38.205,41.151,78.026l1.052,24.375
				c0.345,7.992,3.48,15.61,8.862,21.529c0.477,0.525,0.973,1.027,1.478,1.519h191.336c0.505-0.491,1.002-0.994,1.478-1.519
				c5.381-5.919,8.517-13.537,8.862-21.529l1.052-24.375c5.802-39.821,40.983-77.845,41.151-78.026
				c47.823-41.489,78.07-102.706,78.07-170.989C999.22,731.491,897.911,630.182,772.938,630.182z"/>
			<path style="fill:#353535;" d="M818.033,1294.096h-90.189c-28.196,0-51.054-22.857-51.054-51.054V1152.9h192.297v90.142
				C869.087,1271.239,846.229,1294.096,818.033,1294.096z"/>
			<path style="opacity:0.3;fill:#EAB054;" d="M829.664,1029.47c-125.042,0-226.408-101.366-226.408-226.408
				c0-50.769,16.711-97.634,44.931-135.397c-61.175,40.505-101.529,109.933-101.529,188.797c0,68.283,30.246,129.5,78.07,170.989
				c0.168,0.181,35.349,38.205,41.151,78.026l1.052,24.375c0.345,7.992,3.48,15.61,8.862,21.529
				c0.477,0.525,0.973,1.027,1.478,1.519h191.336c0.505-0.491,1.002-0.994,1.478-1.519c5.381-5.919,8.517-13.537,8.862-21.529
				l1.052-24.375c5.802-39.821,40.983-77.845,41.151-78.026c12.098-10.496,23.066-22.258,32.71-35.074
				C918.199,1015.819,875.529,1029.47,829.664,1029.47z"/>
			<g>
				<polygon style="fill:#FFFFFF;" points="771.346,966.206 726.386,770.096 686.926,884.162 675.353,880.158 728.778,725.727 
					774.653,925.831 821.643,811.127 865.164,884.604 854.627,890.844 823.646,838.539 				"/>
			</g>
			<g>
				<path style="fill:#353535;" d="M714.676,1182.383l-1.08,0.112c-5.682,0.588-10.764-3.541-11.353-9.222L670.8,869.631
					c-0.589-5.681,3.54-10.764,9.222-11.352l1.079-0.112c5.682-0.588,10.765,3.541,11.353,9.222l31.444,303.642
					C724.486,1176.712,720.357,1181.795,714.676,1182.383z"/>
				<path style="fill:#353535;" d="M831.862,1182.439L831.862,1182.439c5.979,0.619,11.329-3.727,11.948-9.706l31.333-302.562
					c0.619-5.979-3.727-11.329-9.706-11.949l0,0c-5.979-0.619-11.329,3.726-11.948,9.706l-31.333,302.563
					C821.537,1176.471,825.883,1181.82,831.862,1182.439z"/>
			</g>
			<path style="fill:#ADAEB5;" d="M867.943,1174.187H678.055c-5.174,0-9.368-4.194-9.368-9.368v-2.55
				c0-5.174,4.194-9.368,9.368-9.368h189.888c5.174,0,9.368,4.194,9.368,9.368v2.55
				C877.312,1169.993,873.117,1174.187,867.943,1174.187z"/>
			<path style="fill:#ADAEB5;" d="M867.943,1216.863H678.055c-5.174,0-9.368-4.194-9.368-9.368v-2.55
				c0-5.174,4.194-9.368,9.368-9.368h189.888c5.174,0,9.368,4.194,9.368,9.368v2.55
				C877.312,1212.669,873.117,1216.863,867.943,1216.863z"/>
			<path style="fill:#ADAEB5;" d="M867.943,1264.619H678.055c-5.174,0-9.368-4.194-9.368-9.368v-2.55
				c0-5.174,4.194-9.368,9.368-9.368h189.888c5.174,0,9.368,4.194,9.368,9.368v2.55
				C877.312,1260.425,873.117,1264.619,867.943,1264.619z"/>
		</g>
		<g>
			<path style="fill:#DC4437;" d="M1213.668,1061.347h275.248c9.508,0,17.216,7.708,17.216,17.215v113.589
				c0,9.507-7.708,17.215-17.216,17.215h-216.702c-8.771,12.238-24.672,34.154-26.075,34.154c-1.314,0,1.216-20.7,2.999-34.154
				h-35.47c-9.508,0-17.215-7.708-17.215-17.215v-113.589C1196.453,1069.055,1204.16,1061.347,1213.668,1061.347z"/>
			<path style="fill:#FFFFFF;" d="M1390.405,1105.676h76.649c2.07,0,3.749-1.679,3.749-3.75l0,0c0-2.071-1.679-3.75-3.749-3.75
				h-76.649c-2.071,0-3.75,1.679-3.75,3.75l0,0C1386.655,1103.997,1388.334,1105.676,1390.405,1105.676z"/>
			<path style="fill:#FFFFFF;" d="M1417.713,1130.169h49.342c2.07,0,3.749-1.679,3.749-3.75l0,0c0-2.071-1.679-3.75-3.749-3.75
				h-49.342c-2.071,0-3.75,1.679-3.75,3.75l0,0C1413.963,1128.491,1415.642,1130.169,1417.713,1130.169z"/>
			<path style="fill:#FFFFFF;" d="M1340.899,1130.169h62.449c2.07,0,3.749-1.679,3.749-3.75l0,0c0-2.071-1.679-3.75-3.749-3.75
				h-62.449c-2.071,0-3.75,1.679-3.75,3.75l0,0C1337.149,1128.491,1338.828,1130.169,1340.899,1130.169z"/>
			<path style="fill:#FFFFFF;" d="M1234.28,1130.169h90.26c2.071,0,3.75-1.679,3.75-3.75l0,0c0-2.071-1.679-3.75-3.75-3.75h-90.259
				c-2.071,0-3.75,1.679-3.75,3.75l0,0C1230.531,1128.491,1232.21,1130.169,1234.28,1130.169z"/>
			<path style="fill:#FFFFFF;" d="M1233.869,1105.676h133.639c2.071,0,3.75-1.679,3.75-3.75l0,0c0-2.071-1.679-3.75-3.75-3.75
				h-133.639c-2.07,0-3.749,1.679-3.749,3.75l0,0C1230.12,1103.997,1231.799,1105.676,1233.869,1105.676z"/>
			<path style="fill:#FFFFFF;" d="M1233.87,1178.144h233.185c2.07,0,3.749-1.679,3.749-3.75v0c0-2.071-1.679-3.75-3.749-3.75
				h-233.186c-2.07,0-3.749,1.679-3.749,3.75v0C1230.12,1176.465,1231.799,1178.144,1233.87,1178.144z"/>
			<path style="fill:#FFFFFF;" d="M1350.217,1154.439h116.838c2.07,0,3.749-1.679,3.749-3.75l0,0c0-2.071-1.679-3.75-3.749-3.75
				h-116.838c-2.071,0-3.75,1.679-3.75,3.75l0,0C1346.467,1152.761,1348.146,1154.439,1350.217,1154.439z"/>
			<path style="fill:#FFFFFF;" d="M1233.869,1154.439h102.68c2.072,0,3.75-1.679,3.75-3.75l0,0c0-2.071-1.678-3.75-3.75-3.75
				h-102.68c-2.07,0-3.749,1.679-3.749,3.75l0,0C1230.12,1152.76,1231.799,1154.439,1233.869,1154.439z"/>
		</g>
		<g>
			<path style="fill:#FFFBF3;" d="M568.185,1239.762H292.936c-9.507,0-17.215,7.708-17.215,17.215v113.589
				c0,9.508,7.707,17.214,17.215,17.214h216.703c8.77,12.239,24.672,34.154,26.075,34.154c1.314,0-1.216-20.7-2.999-34.154h35.469
				c9.508,0,17.215-7.707,17.215-17.214v-113.589C585.4,1247.469,577.693,1239.762,568.185,1239.762z"/>
			<path style="fill:#FFD800;" d="M391.448,1284.09h-76.649c-2.071,0-3.75-1.679-3.75-3.75l0,0c0-2.071,1.679-3.75,3.75-3.75h76.649
				c2.071,0,3.75,1.679,3.75,3.75l0,0C395.198,1282.412,393.519,1284.09,391.448,1284.09z"/>
			<path style="fill:#FFD800;" d="M364.14,1308.584h-49.341c-2.071,0-3.75-1.679-3.75-3.75l0,0c0-2.071,1.679-3.75,3.75-3.75h49.341
				c2.071,0,3.75,1.679,3.75,3.75l0,0C367.89,1306.905,366.211,1308.584,364.14,1308.584z"/>
			<path style="fill:#FFD800;" d="M440.954,1308.584h-62.449c-2.071,0-3.75-1.679-3.75-3.75l0,0c0-2.071,1.679-3.75,3.75-3.75
				h62.449c2.071,0,3.75,1.679,3.75,3.75l0,0C444.704,1306.905,443.024,1308.584,440.954,1308.584z"/>
			<path style="fill:#FFD800;" d="M547.572,1308.584h-90.259c-2.071,0-3.75-1.679-3.75-3.75l0,0c0-2.071,1.679-3.75,3.75-3.75
				h90.259c2.071,0,3.75,1.679,3.75,3.75l0,0C551.322,1306.905,549.643,1308.584,547.572,1308.584z"/>
			<path style="fill:#FFD800;" d="M547.983,1284.09H414.345c-2.071,0-3.75-1.679-3.75-3.75l0,0c0-2.071,1.679-3.75,3.75-3.75
				h133.638c2.071,0,3.749,1.679,3.749,3.75l0,0C551.733,1282.412,550.054,1284.09,547.983,1284.09z"/>
			<path style="fill:#FFD800;" d="M547.983,1356.559H314.799c-2.071,0-3.75-1.678-3.75-3.75l0,0c0-2.07,1.679-3.749,3.75-3.749
				h233.185c2.071,0,3.749,1.679,3.749,3.749l0,0C551.733,1354.88,550.054,1356.559,547.983,1356.559z"/>
			<path style="fill:#FFD800;" d="M431.637,1332.854H314.799c-2.071,0-3.75-1.679-3.75-3.75l0,0c0-2.07,1.679-3.75,3.75-3.75
				h116.838c2.071,0,3.749,1.679,3.749,3.75v0C435.386,1331.175,433.707,1332.854,431.637,1332.854z"/>
			<path style="fill:#FFD800;" d="M547.983,1332.854h-102.68c-2.071,0-3.75-1.679-3.75-3.75l0,0c0-2.071,1.679-3.75,3.75-3.75
				h102.68c2.071,0,3.749,1.679,3.749,3.75l0,0C551.733,1331.175,550.054,1332.854,547.983,1332.854z"/>
		</g>
		<g>
			<path style="fill:#748828;" d="M1741.031,1823.294c-1.273-11.243-2.785-22.741-8.004-32.775
				c-6.346-12.2-17.492-21.003-27.231-30.698c-18.198-18.117-32.202-40.438-40.608-64.726c-6.498-18.779-9.738-38.787-18.694-56.522
				c-5.47-10.828-12.927-20.511-19.14-30.929c-14.683-24.625-22.674-53.729-42.584-74.341c-3.832,24.99,3.74,51.51,20.184,70.688
				c4.902,5.719,10.591,10.875,14.326,17.42c6.781,11.881,6.164,26.377,6.958,40.041c1.493,25.682,8.73,51.012,21.027,73.592
				c13.063,23.988,31.918,45.35,38.901,71.764c5.234,19.795,3.679,41.999,14.838,59.155c1.208,1.858,2.593,3.726,2.889,5.925
				c0.167,1.235-0.027,2.488-0.219,3.72c-0.251,1.594-0.501,3.187-0.75,4.78c-2.539,16.201-5.161,36.816,8.76,48.941
				c9.649,8.404,22.066,8.592,28.996-2.57c6.977-11.24,6.358-27.689,5.841-40.339
				C1745.658,1865.356,1743.402,1844.232,1741.031,1823.294z"/>
			<path style="fill:#5B6B1A;" d="M1766.107,1810.263c-5.417-18.754-13.823-36.615-18.036-55.678
				c-4.087-18.489-4.118-37.604-4.132-56.542c-0.016-20.751-0.029-41.502-0.044-62.254c-0.01-12.918-0.024-25.907-2.158-38.648
				c-4.594-27.412-18.841-52.76-21.255-80.452c-1.043-11.974,0.168-24.077-1.148-36.024c-0.752-6.825-2.504-13.793-5.662-19.848
				c-3.398-6.513-12.785-6.224-15.864,0.445c-6.921,14.994-11.31,31.201-8.514,47.266c1.678,9.636,5.851,18.624,8.968,27.894
				c13.876,41.281,6.51,86.979,17.247,129.189c3.241,12.741,8.142,25.236,8.712,38.372c1.364,31.44-22.117,60.16-19.963,91.556
				c1.766,25.741,20.272,47.044,28.04,71.643c4.349,13.771,5.279,28.471,9.938,42.14c3.619,10.62,12.036,23.517,25.111,20.293
				c12.411-3.06,8.661-13.192,8.107-22.869C1773.579,1874.008,1775.344,1842.245,1766.107,1810.263z"/>
			<path style="fill:#748828;" d="M1794.518,1827.448c-0.546-9.745-2.191-19.544-0.828-29.208
				c1.151-8.161,4.399-15.853,6.719-23.762c4.348-14.818,5.426-30.373,6.479-45.783c1.914-28.012,3.829-56.024,5.742-84.037
				c2.976-43.542,5.965-87.21,14.107-130.087c2.261-11.904,4.799-24.803-0.553-35.671c-1.127-2.291-3.347-4.721-5.779-3.958
				c-1.732,0.543-2.583,2.452-3.211,4.159c-17.797,48.365-24.523,100.437-44.389,147.986c-4.758,11.391-10.293,22.598-12.757,34.696
				c-2.958,14.529-1.333,29.536-0.951,44.358c0.548,21.26-1.522,42.68-7.393,63.116c-3.071,10.692-7.184,21.144-8.867,32.142
				c-2.099,13.713-0.336,27.682,0.978,41.492c2.525,26.552,3.381,53.263,2.561,79.923c-0.482,15.673,12.748,15.262,21.513,5.633
				c6.129-6.733,6.071-14.126,8.171-22.509C1782.949,1878.419,1796.189,1857.286,1794.518,1827.448z"/>
			<path style="fill:#5B6B1A;" d="M1711.858,1869.949c-11.699-18.798-35.006-29.484-42.482-50.333
				c-1.903-5.306-2.646-11.011-4.972-16.146c-5.163-11.401-16.9-17.846-28.44-23.092c-1.603-0.728-3.424,0.434-3.448,2.196l0,0
				c-0.038,2.804,1.291,5.478,3.613,7.041c8.89,5.985,15.646,15.133,18.654,25.442c3.563,12.218,2.018,25.612,6.448,37.543
				c3.719,10.016,11.377,18.202,14.973,28.264c3.288,9.196,2.942,19.244,4.488,28.89s5.83,19.881,14.687,23.962
				C1727.426,1948.483,1719.416,1882.093,1711.858,1869.949z"/>
			<path style="fill:#748828;" d="M1845.145,1863.745c-0.499,9.089,0.891,18.616-2.666,26.991c-2.274,5.358-6.367,9.69-9.727,14.442
				c-11.797,16.686-16.074,40.327-34.201,49.721c-1.195,0.62-2.529,1.175-3.854,0.928c-1.858-0.346-3.075-2.136-3.821-3.876
				c-4.444-10.354,0.542-22.018,3.495-32.892c0.516-1.903,0.949-4.024,0.043-5.774c-0.998-1.925-3.273-2.76-4.826-4.27
				c-3.097-3.013-2.805-7.996-2.189-12.277c1.536-10.695,3.696-21.301,6.465-31.743c1.57-5.923,3.384-11.896,6.795-16.98
				c3.757-5.598,9.212-9.775,14.318-14.169c22.57-19.416,39.86-44.938,49.537-73.125c2.096-6.102,3.963-12.544,8.291-17.322
				c4.327-4.779,12.041-7.239,17.311-3.531c3.75,2.639-11.609,27.345-13.399,30.307c-5.117,8.466-5.185,15.833-8.078,25.234
				C1861.552,1818.444,1846.5,1839.063,1845.145,1863.745z"/>
			<path style="fill:#5B6B1A;" d="M1827.279,1874.254c3.353-8.67,6.734-17.452,7.839-26.684c1.229-10.263-0.401-20.758,1.353-30.943
				c2.253-13.095,9.889-24.613,13.668-37.35c2.729-9.198,3.399-18.862,5.039-28.316c4.688-27.035,17.398-53.453,13.751-80.648
				c-0.794-5.916-3.464-12.811-9.335-13.82c-5.314-0.913-10.153,3.947-11.535,9.17c-1.382,5.222-0.351,10.73,0.028,16.12
				c1.059,15.03-3.229,30.386-11.921,42.682c-8.349,11.815-20.463,20.711-27.978,33.076c-9.217,15.167-10.47,33.683-15.173,50.804
				c-9.353,34.048-32.81,63.75-37.086,98.804c-1.701,13.948,1.572,30.903,14.445,36.476
				C1807.606,1959.74,1818.846,1896.065,1827.279,1874.254z"/>
			<path style="fill:#FFFBF3;" d="M1762.193,1917.466h-5.954h-79.489c-5.843,0-10.152,5.467-8.803,11.161l31.148,131.344
				c0.969,4.086,4.61,6.969,8.801,6.969h48.343h5.954h48.343c4.19,0,7.833-2.883,8.801-6.969l31.147-131.344
				c1.352-5.694-2.96-11.161-8.801-11.161H1762.193z"/>
		</g>
		<path style="fill:#5B6B1A;" d="M288.039,1961.695h3.73c1.229-12.557,3.645-26.428,7.944-40.94
			c16.262-54.882,9.147-61.982,36.588-96.291c27.441-34.309,29.474-105.452,29.474-105.452s13.212-80.799,0-116.369
			c-13.212-35.572-14.228-71.144-46.243-108.749c0,0-6.098,50.308-13.721,73.176c-7.623,22.867-14.861,44.719-9.209,99.601
			c5.652,54.882,9.162,59.456,10.456,73.685c1.294,14.229-0.739,74.206,2.31,84.108c3.049,9.902-17.786,78.505-19.311,107.979
			C289.6,1941.299,288.775,1951.396,288.039,1961.695z"/>
		<path style="fill:#748828;" d="M299.726,1961.695c5.293-12.214,14.614-24.352,30.932-31.637
			c42.686-19.056,71.482-18.633,91.3-64.367c19.819-45.735,19.819-108.24,26.679-121.199c0,0-18.294-3.049-36.588,29.729
			c-18.294,32.777-30.704,57.17-41.268,76.226c-10.565,19.057-25.81,13.721-38.768,28.203
			c-10.86,12.138-20.889,40.374-24.698,54.703c-1.237,4.654-3.037,9.138-5.411,13.328c-2.16,3.811-4.701,8.448-6.226,11.752
			c-0.339,0.734-0.676,1.854-1.006,3.263H299.726z"/>
		<path style="fill:#5B6B1A;" d="M179.277,1744.929c-3.049,39.13,21.851,36.08,22.868,60.979
			c1.016,24.901,33.539,67.079,48.606,97.061c7.836,15.595,10.73,39.435,11.704,58.727h12.105
			c-4.683-48.827-24.494-82.813-36.336-110.052c-15.245-35.063-17.532-51.07-4.574-78.512c12.958-27.44-6.098-98.33,12.35-129.934
			c18.448-31.605,8.994-81.21,4.751-100.267c-4.243-19.057,0.432-32.015,4.243-52.105c3.812-20.09-4.243-49.274-4.243-49.274
			c-0.686,24.9-19.641,58.947-33.361,80.799c-13.72,21.851-39.637,81.307-36.588,108.24c3.049,26.932,1.524,28.965,1.524,28.965
			C172.671,1695.637,182.326,1705.8,179.277,1744.929z"/>
		<path style="fill:#748828;" d="M251.912,1929.899c1.558,4.671,6.548,16.599,11.116,31.796h7.424
			c-3.377-19.346-9.207-41.796-19.047-54.663c-19.818-25.917-59.456-37.097-64.029-55.898c-4.574-18.803,0.508-75.21-28.457-106.716
			c0,0,4.066,35.077,0,44.472c-4.065,9.395-38.621,53.097-18.294,89.685c20.327,36.588,66.062,32.015,80.291,40.146
			C235.142,1926.85,249.371,1922.277,251.912,1929.899z"/>
		<path style="fill:#748828;" d="M233.618,1761.156c-0.508,37.604,28.966,51.833,28.458,72.668
			c-0.509,20.835,6.098,43.194,11.688,59.964c3.539,10.616,1.58,40.169,0.954,67.907h8.179c2.059-20.383,4.316-49.791,3.572-62.826
			c-1.016-17.785,7.114-32.014,8.131-63.012c1.016-30.999,7.623-58.948-6.098-98.077c-13.721-39.129-11.18-85.881-68.603-129.074
			c0,0-10.163,45.735-2.54,70.635C224.979,1704.241,234.126,1723.553,233.618,1761.156z"/>
		<path style="fill:#DC4437;" d="M291.792,1929.604h-5.485h-73.223c-5.381,0-9.352,5.035-8.107,10.282l28.692,120.989
			c0.892,3.763,4.247,6.42,8.107,6.42h44.531h5.485h44.531c3.86,0,7.215-2.657,8.108-6.42l28.692-120.989
			c1.244-5.247-2.727-10.282-8.108-10.282H291.792z"/>
		<g>
			<path style="fill:#F9C38A;" d="M808.887,1999.132c0,0,2.829,29.522,0.969,39.149c-0.249,1.289-0.797,2.922-1.436,4.721
				c-1.916,5.397,3.333,21.879,3.333,21.879l70.38,0.248c3.833,0.014,1.27-2.309-1.849-4.44c-5.104-3.489-9.217-5.786-25.473-13.052
				c-1.06-0.473-4.927-2.755-6.321-3.545c-3.535-2.003-7.1-5.178-10.175-8.363c-5.122-5.307-5.901-31.325-5.901-31.325
				L808.887,1999.132z"/>
			<path style="fill:#353535;" d="M848.48,2044.086c-18.551,4.775-32.347,1.842-40.081-1.027c-1.915,5.389-5.518,23.61-3.369,23.61
				c17.649,0,32.586,3.193,83.155,2.433c1.81-0.027,1.59-5.974,0.409-7.285C885.333,2058.192,849.877,2044.879,848.48,2044.086z"/>
			<path style="fill:#F9C38A;" d="M888.547,1950.179c0,0,15.394,25.736,17.882,35.234c0.333,1.271,0.544,2.974,0.744,4.863
				c0.6,5.671,12.533,18.583,12.533,18.583l64.139-27.7c3.493-1.509,0.152-2.604-3.61-3.307c-6.16-1.148-10.898-1.606-28.843-1.766
				c-1.17-0.011-5.679-0.553-7.291-0.718c-4.085-0.42-8.708-1.893-12.889-3.571c-6.964-2.795-18.972-26.157-18.972-26.157
				L888.547,1950.179z"/>
			<path style="fill:#353535;" d="M944.089,1975.368c-14.803,11.705-28.628,14.51-36.91,14.969
				c0.598,5.662,5.232,23.669,7.188,22.816c16.057-7.003,31.033-10.024,76.708-30.782c1.635-0.743-1.147-6.064-2.791-6.789
				C983.743,1973.579,945.705,1975.534,944.089,1975.368z"/>
			<path style="fill:#FFFBF3;" d="M669.638,1730.396v15.172l149.207,29.994l37.034,106.34l-20.637-13.468l4.766,163.749
				l-31.385,0.209c0,0-54.379-137.388-36.541-206.483l-165.139,2.415c0,0-74.843-27.625-36.225-110.924L669.638,1730.396z"/>
			<path style="fill:#E6E6E6;" d="M669.638,1745.568c0,0,154.782,0.991,165.774,9.083c10.992,8.092,93.478,209.178,93.478,209.178
				l-35.977,12.843c0,0-71.573-114.079-75.361-122.218c-3.788-8.138-31.509-67.626-42.09-73.695
				C764.88,1774.69,669.638,1745.568,669.638,1745.568z"/>
		</g>
		<path style="fill:#EFBE5E;" d="M1082.107,1158.956c-4.628-0.996-9.292-1.829-13.896-2.917c-0.841-0.198-1.894-1.148-2.136-1.963
			c-1.562-5.256-2.821-10.602-4.417-15.845c-0.465-1.526-0.441-2.433,0.752-3.554c4.203-3.95,8.298-8.013,12.43-12.038
			c0.67-0.652,1.316-1.329,2.459-2.485c-5.412-6.647-10.764-13.221-16.251-19.96c-5.864,3.823-11.251,7.211-16.49,10.814
			c-1.848,1.271-3.048,1.479-5.11,0.122c-4.215-2.775-8.814-4.96-13.18-7.517c-0.67-0.392-1.32-1.465-1.33-2.23
			c-0.076-5.851-0.163-11.712,0.116-17.552c0.134-2.803-0.918-3.86-3.481-4.109c-0.985-0.096-1.937-0.548-2.903-0.837
			c-4.45-0.499-8.902-0.998-13.354-1.497c-0.497,0.093-0.993,0.27-1.49,0.266c-5.2-0.034-4.325-0.342-5.365,4.405
			c-1.267,5.783-2.438,11.588-3.49,16.619c-7.1,2.107-13.735,4.076-20.589,6.11c-4.936-5.066-10.094-10.359-15.286-15.687
			c-7.625,4.32-14.015,9.831-19.898,16.195c3.771,5.761,7.434,11.387,11.138,16.986c0.664,1.005,0.863,1.694,0.112,2.928
			c-2.94,4.83-5.762,9.742-8.364,14.76c-0.75,1.447-1.485,1.748-2.924,1.724c-5.94-0.097-11.881-0.056-17.821-0.129
			c-1.476-0.019-2.279,0.35-2.719,1.962c-1.974,7.234-2.347,14.591-2.091,22.027c0.051,1.471,0.892,1.78,2.116,2.021
			c5.661,1.116,11.296,2.37,16.964,3.446c1.633,0.311,2.317,0.867,2.732,2.651c1.432,6.161,3.222,12.239,5.009,18.841
			c-4.604,4.487-9.829,9.578-15.053,14.667c4.368,7.784,9.622,14.502,16.17,20.29c6.266-4.145,12.362-8.178,17.884-11.83
			c5.489,2.819,10.524,5.573,15.717,7.988c1.962,0.913,2.649,1.919,2.572,4.051c-0.207,5.678-0.193,11.365-0.209,17.048
			c-0.004,1.123-0.322,2.557,1.506,2.748c7.436,0.777,14.87,1.561,22.306,2.335c1.581,0.164,2.228-0.605,2.523-2.15
			c1.103-5.75,2.457-11.454,3.462-17.22c0.387-2.224,1.547-2.769,3.495-3.262c4.813-1.219,9.628-2.542,14.27-4.283
			c2-0.75,2.934-0.525,4.311,0.969c4.424,4.801,9.036,9.429,13.479,14.026c4.913-1.974,16.613-11.538,20.233-16.472
			c-3.684-5.522-7.351-11.146-11.172-16.662c-0.956-1.38-0.767-2.214,0.028-3.595c2.565-4.454,4.815-9.088,7.336-13.57
			c0.424-0.753,1.584-1.541,2.41-1.548c5.251-0.045,10.504,0.093,15.755,0.231c2.936,0.078,4.12,0.12,4.822-0.91l2.656-23.696
			C1087.237,1160.074,1085.851,1159.761,1082.107,1158.956z M1040.418,1167.753c-2.375,21.18-21.471,36.425-42.65,34.051l0,0
			c-21.181-2.375-36.426-21.471-34.051-42.651v0c2.375-21.181,21.47-36.425,42.65-34.05l0,0
			C1027.548,1127.478,1042.793,1146.572,1040.418,1167.753L1040.418,1167.753z"/>
		<path style="fill:#F9C38A;" d="M1316.939,1671.838c3.193-2.671,7.053-1.46,18.137-6.585c2.148-0.993,7.792-2.569,10.319-3.081
			c0.475-0.096,0.851-0.455,0.974-0.923c3.37-12.747,18.128-71.682,19.747-88.676c1.657-17.38,12.865-91.06,14.575-102.262
			c0.116-0.763,0.873-1.248,1.616-1.04l32.202,8.979c0.66,0.185,1.062,0.851,0.91,1.52c-1.989,8.781-14.366,63.925-18.003,91.832
			c-2.897,22.249-36.042,93.624-36.707,98.188c-0.006,0.043-0.013,0.085-0.019,0.128c-0.2,1.373-1.377,2.39-2.764,2.39
			c-8.178-0.002-34.392-0.007-35.887,0.001C1320.677,1672.316,1315.941,1672.672,1316.939,1671.838z"/>
		<path style="fill:#C12925;" d="M1388.599,1442.25c17.135-51.98,36.299-49.766,36.299-49.766l-14.82,109.283
			c-10.581-2.893-24.359-9.333-34.93-12.319C1378.652,1473.015,1384.378,1455.051,1388.599,1442.25z"/>
		<path style="fill:#353535;" d="M1393.919,1307.083c5.244-34.186,36.174-58.767,68.521-42.179
			c7.275,3.731,17.124,11.301,22.149,17.75c13.583,17.434,17.058,38.969,31.09,55.896c-5.154,3.909-11.389,8.008-18.812,11.947
			l-8.736-11.65l3.008,14.539c-21.717,10.392-52.385,18.964-94.331,18.722C1391.536,1348.36,1391.122,1325.319,1393.919,1307.083z"
			/>
		<path style="fill:#F9C38A;" d="M1383.835,2064.89c4.937-3.638,8.92-6.043,24.689-13.688c1.028-0.498,4.772-2.885,6.123-3.711
			c3.424-2.096,6.862-5.395,9.822-8.697c2.826-3.153,4.174-13.264,4.809-21.32c-1.622-17.996-27.699-306.612-33.199-337.856
			c-5.678-32.252,2.97-81.446,2.97-81.446l20.132-7.592l38.215,132.454l-3.014,100.823c0,0,8.986,29.062,10.121,46.428
			c1.137,17.366-12.989,158.334-12.989,158.334l-0.001-0.001c-0.001,5.041,0.197,9.601,0.757,12.448
			c1.037,5.272,6.813,16.127,4.164,21.089s-5.678,6.202-5.678,6.202l-68.668,1.108
			C1378.347,2069.524,1380.819,2067.112,1383.835,2064.89z"/>
		<path style="fill:#F9C38A;" d="M1488.054,1587.824c0,0,23.845,35.973,29.521,65.743c5.679,29.771-4.166,121.263,6.755,160.274
			c5.912,21.118,28.32,53.731,31.727,81.021c3.406,27.289,15.259,106.056,15.259,106.056h-0.001
			c1.793,8.269,4.602,18.497,8.25,23.251c2.232,2.91,6.308,6.591,8.984,11.852c4.166,8.188,1.862,20.376-1.21,27.089
			c-1.578,3.446,0.11,3.437-3.481,4.547c-10.636,3.289-21.949-2.25-26.478-12.458c-2.53-5.704-4.749-13.312-5.195-22.897
			c-0.473-10.16-2.063-18.233-3.756-24.204l0,0l-76.221-186.974l-55.181-161.359l-14.136-83.104L1488.054,1587.824z"/>
		<path style="fill:#DC4437;" d="M1555.316,2049.829c16.498,3.014,27.475-6.658,33.186-13.899
			c4.193,8.203,6.238,20.443,3.154,27.181c-2.716,5.937-10.655,5.766-16.904,5.999c-6.609,0.246-11.723-3.435-15.002-9.202
			C1558.22,2057.214,1556.64,2053.859,1555.316,2049.829z"/>
		<path style="fill:#DC4437;" d="M1414.656,2047.484c18.16,4.67,31.585,1.495,39.095-1.54c1.937,5.501,4.504,12.402,3.143,16.382
			c-1.667,4.873-4.041,5.975-6.138,6.029c-16.588,0.437-60.763,1.031-73.41,1.195c-1.768,0.023-2.741-2.045-1.605-3.404
			C1378.877,2062.393,1413.304,2048.313,1414.656,2047.484z"/>
		<path style="fill:#748828;" d="M1472.59,1817.599c-1.425,0.097-2.859,0.189-4.303,0.276c-0.074,0.004-0.147,0.009-0.222,0.014
			c-1.414,0.085-2.835,0.164-4.262,0.238c-0.087,0.005-0.173,0.01-0.259,0.014c-1.428,0.073-2.859,0.143-4.294,0.203
			c-0.073,0.003-0.146,0.006-0.22,0.01c-1.46,0.062-2.922,0.117-4.384,0.166c-16.276,0.535-36.382,0.327-49.282-1.866
			c-6.577-65.837-9.026-125.922-11.461-139.221c-5.904-32.251,5.145-83.158,5.145-83.158l5.274-0.946l-3.335-18.852l88.561,11.164
			c0,0,24.796,35.973,30.7,65.743c5.903,29.771-4.333,121.263,7.023,160.274C1527.272,1811.658,1501.99,1815.597,1472.59,1817.599z"
			/>
		<path style="fill:#DC4437;" d="M1468.75,1383.151c0,0,27.819-3.636,40.31,10.009s-23.955,123.204-26.226,140.57
			s11.577,63.541,11.577,63.541s-74.165,14.958-95.362,0.898c0,0-2.271-124.876,0-137.282c2.271-12.405,21.197-62.852,25.739-67.814
			S1468.75,1383.151,1468.75,1383.151z"/>
		<path style="fill:#F9C38A;" d="M1458.24,1340.869c0,0,0.163,0.932,0.456,2.518c1.408,7.608,6.828,32.845,10.49,39.784
			c4.426,8.384-15.15,35.125-33.991,31.862c-5.609-0.972,4.74-24.57,4.242-27.07c-0.951-4.785-2.242-11.313-3.563-18.007
			c-0.745-3.776-1.5-7.604-2.21-11.203c-2.015-10.226-3.659-18.588-3.659-18.588L1458.24,1340.869z"/>
		<path style="fill:#E5AC7A;" d="M1458.696,1343.387c-0.293-1.586-0.456-2.518-0.456-2.518l-28.235-0.705
			c0,0,1.645,8.362,3.659,18.588c0.706,3.579,1.456,7.384,2.197,11.14c4.358-0.644,8.914-2.767,13.48-6.774
			c4.979-4.368,8.242-9.617,10.211-15.222C1459.205,1346.107,1458.915,1344.566,1458.696,1343.387z"/>
		<path style="fill:#F9C38A;" d="M1439.236,1276.546c0,0,13.308-1.541,21.65,9.272c8.342,10.813,17.332,44.253-3.39,62.435
			c-20.722,18.181-41.197-2.399-44.232-24.219C1410.229,1302.214,1409.049,1275.759,1439.236,1276.546z"/>
		<path style="fill:#F9C38A;" d="M1407.135,1323.712c2.474,4.819,6.625,7.487,9.272,5.96c2.648-1.527,2.79-6.672,0.317-11.491
			c-2.474-4.819-6.626-7.488-9.274-5.961C1404.803,1313.748,1404.661,1318.893,1407.135,1323.712z"/>
		<path style="fill:#353535;" d="M1437.748,1272.971c0,0,17.779,31.8,30.498,33.269c12.719,1.47,14.389,18.367,14.389,18.367
			s-4.547-38.936-17.139-46.444C1452.904,1270.654,1437.748,1272.971,1437.748,1272.971z"/>
		<path style="fill:#F9C38A;" d="M1464.91,1314.231c-1.034,5.647,1.047,10.826,4.646,11.567c3.602,0.741,7.358-3.236,8.393-8.883
			c1.035-5.647-1.045-10.826-4.646-11.567C1469.703,1304.606,1465.944,1308.584,1464.91,1314.231z"/>
		<path style="fill:#FFFFFF;" d="M1449.244,1334.744l-19.239,3.784c0,0,1.881,7.221,10.39,5.801
			C1450.771,1342.597,1449.244,1334.744,1449.244,1334.744z"/>
		<path style="fill:#353535;" d="M550.316,2055.943H678.83c5.919,0,10.717,4.799,10.717,10.718l0,0c0,1.035-0.839,1.874-1.874,1.874
			H541.472c-1.035,0-1.874-0.84-1.874-1.874l0,0C539.599,2060.742,544.397,2055.943,550.316,2055.943z"/>
		<path style="fill:#353535;" d="M608.205,2047.51h15.742c4.658,0,8.433,3.775,8.433,8.434l0,0c0,4.658-3.775,8.434-8.433,8.434
			h-15.742c-4.658,0-8.434-3.775-8.434-8.434l0,0C599.771,2051.285,603.547,2047.51,608.205,2047.51z"/>
		<path style="fill:#353535;" d="M680.592,1476.641c0.699-16.839-1.781-33.469-9.315-49.146
			c-6.482-13.489-22.521-21.143-37.148-21.162c-46.446-0.06-52.351,61.306-81.917,84.976c-9.034,7.233-19.131,13.125-27.68,20.923
			c-31.564,28.802-17.347,82.117,11.637,107.368c20.113,17.521,51.724,27.478,76.513,13.779
			c12.94-7.149,22.763-19.036,29.761-32.058c9.933-18.482,16.335-39.808,23.4-59.506
			C673.363,1520.851,679.664,1499.024,680.592,1476.641z"/>
		<path style="fill:#F2B986;" d="M808.723,1653.087l-101.067-28.178c0,0-21.294-28.604-48.688-66.974
			c-8.957,8.865-13.935,22.485-22.955,31.264l66.902,74c2.413,2.669,5.839,4.197,9.437,4.209l92.876,0.309l31.782,2.533v-20.341
			L808.723,1653.087z"/>
		<path style="fill:#5B6B1A;" d="M663.223,1631.635c0,0-34.687-35.567-43.613-51.02c-8.926-15.452,6.079-5.393,21.404-9.458
			c5.804-1.54,4.335-35.551,15.307-24.495c18,18.138,40.629,49.853,40.629,49.853L663.223,1631.635z"/>
		<path style="fill:#748828;" d="M613.906,1531.06c0,0-31.129-6.146-45.334,5.723c-14.205,11.868,3.043,117.387,3.029,134.88
			c-0.015,17.492-9.754,66.913-9.754,66.913s94.349,16.515,109.336-9.745c0,0,4.264-100.045,3.629-112.625
			c-0.634-12.581-14.623-64.033-18.49-69.543C652.454,1541.152,613.906,1531.06,613.906,1531.06z"/>
		<path style="fill:#F9C38A;" d="M613.71,1482.907c0,0-0.164,0.931-0.458,2.515c-1.412,7.598-6.849,32.802-10.522,39.732
			c-4.438,8.373,15.196,35.081,34.094,31.821c5.626-0.971-4.755-24.539-4.256-27.035c0.955-4.779,2.25-11.299,3.575-17.983
			c0.747-3.771,1.504-7.595,2.216-11.188c2.021-10.212,3.67-18.565,3.67-18.565L613.71,1482.907z"/>
		<path style="fill:#E5AC7A;" d="M613.252,1485.421c0.294-1.583,0.458-2.515,0.458-2.515l28.319-0.704c0,0-1.649,8.353-3.67,18.565
			c-0.707,3.573-1.46,7.375-2.203,11.126c-4.372-0.644-8.941-2.764-13.521-6.766c-4.994-4.363-8.267-9.605-10.242-15.202
			C612.742,1488.139,613.034,1486.6,613.252,1485.421z"/>
		<path style="fill:#F9C38A;" d="M632.77,1418.668c0,0-13.348-1.539-21.714,9.26c-8.367,10.8-17.384,44.196,3.4,62.354
			c20.784,18.157,41.319-2.396,44.364-24.187C661.865,1444.302,663.049,1417.881,632.77,1418.668z"/>
		<path style="fill:#F9C38A;" d="M664.969,1465.772c-2.481,4.813-6.645,7.478-9.301,5.953c-2.655-1.526-2.798-6.664-0.317-11.478
			c2.481-4.812,6.645-7.478,9.301-5.952C667.308,1455.821,667.45,1460.959,664.969,1465.772z"/>
		<path style="fill:#353535;" d="M634.264,1415.098c0,0-17.833,31.758-30.589,33.227c-12.756,1.467-14.432,18.343-14.432,18.343
			s4.561-38.886,17.19-46.385C619.061,1412.783,634.264,1415.098,634.264,1415.098z"/>
		<path style="fill:#F9C38A;" d="M607.019,1456.304c1.038,5.64-1.049,10.813-4.661,11.552c-3.611,0.74-7.379-3.232-8.417-8.872
			c-1.038-5.639,1.049-10.812,4.661-11.552C602.214,1446.691,605.982,1450.665,607.019,1456.304z"/>
		<path style="fill:#F9C38A;" d="M752.786,1649.699l-87.629-19.388c0,0-31.692-40.719-62.126-75.765
			c-8.957,8.865-13.935,22.486-22.955,31.264l66.902,74c2.413,2.669,5.839,4.197,9.437,4.209l92.876,0.309l31.782,2.533v-20.341
			L752.786,1649.699z"/>
		<path style="fill:#5B6B1A;" d="M607.286,1628.246c0,0-34.687-35.566-43.612-51.019c-8.926-15.453-2.306-41.341,13.021-45.407
			c15.326-4.065,64.32,61.306,64.32,61.306L607.286,1628.246z"/>
		<g>
			<path style="fill:#DC4437;" d="M932.812,1549.947H788.29c-3.824,0-7.268,2.311-8.719,5.849l-44.5,108.532h-79.675
				c-2.228,0-4.035,1.806-4.035,4.031l0,0c0,2.227,1.806,4.031,4.035,4.031H882.16c6.234,0,11.888-3.659,14.441-9.347l44.808-99.813
				C944.208,1556.995,939.647,1549.947,932.812,1549.947z"/>
			<path style="fill:#FFFFFF;" d="M855.002,1613.147c-0.976,4.874-5.229,8.134-9.498,7.28c-4.269-0.853-6.938-5.497-5.962-10.372
				c0.977-4.875,5.228-8.135,9.498-7.281C853.308,1603.628,855.977,1608.272,855.002,1613.147z"/>
		</g>
		<path style="fill:#FFFFFF;" d="M640.803,1478.282l-19.581-1.014c0,0,0.066,7.46,8.664,8.155
			C640.37,1486.271,640.803,1478.282,640.803,1478.282z"/>
		<path style="fill:#353535;" d="M702.061,1836.591l-8.843-36.811c-6.184-25.744-28.981-44.475-55.438-45.543l-111.999-4.527
			l-3.456-11.402l115.909,4.685c31.463,1.273,58.573,23.545,65.926,54.16l9.396,39.114
			C710.375,1836.402,706.494,1836.509,702.061,1836.591z"/>
		<path style="fill:#DC4437;" d="M551.835,1816.984c0,0,153.873,2.634,169.915,0c16.042-2.633,22.985,17.479,18.197,28.014
			c-4.789,10.535-17.958,14.605-37.352,15.563c-19.394,0.957-180.769,5.506-185.319,1.197
			c-3.715-3.521-52.637-170.772-70.437-231.936c-3.558-12.225,3.458-24.999,15.675-28.585l0,0c12.16-3.568,24.924,3.33,28.6,15.457
			L551.835,1816.984z"/>
		<rect x="304.241" y="617" style="fill:#13375B;" width="0" height="0"/>
		<path style="fill:#282828;" d="M639.327,1696.622h780.597c6.691,0,12.115-5.425,12.115-12.116l0,0
			c0-6.691-5.424-12.115-12.115-12.115H639.327c-6.691,0-12.115,5.424-12.115,12.115l0,0
			C627.211,1691.197,632.636,1696.622,639.327,1696.622z"/>
		<polygon style="fill:#282828;" points="1423.417,2068.535 1440.662,2068.535 1403.506,1696.622 1386.262,1696.622 		"/>
		<polygon style="fill:#282828;" points="1276.887,2068.535 1259.643,2068.535 1296.798,1696.622 1314.043,1696.622 		"/>
		<polygon style="fill:#282828;" points="781.03,2068.535 798.275,2068.535 761.119,1696.622 743.874,1696.622 		"/>
		<g>
			<path style="fill:#F9C38A;" d="M1181.403,1496.533c-0.858,2.958-1.353,3.939-2.444,5.925
				c-7.039,12.812-23.37,31.095-23.37,31.095l-12.635-28.464c0,0,2.061-8.938,5.632-21.714
				C1160.789,1486.561,1172.409,1488.404,1181.403,1496.533z"/>
			<path style="fill:#E6E6E6;" d="M1108.97,1471.844c0,0,70.464,30.345,72.743,29.764c1.467-0.373,28.903-46.296,29.196-89.482
				c0.136-19.946-20.579-43.939-43.69-39.194c-11.635,2.389-11.455,5.625-28.67,30.64
				C1121.334,1428.585,1108.97,1471.844,1108.97,1471.844z"/>
			<path style="fill:#F9C38A;" d="M1048.818,2015.885c0,0,1.672,27.674,1.682,27.73c0.614,3.514,3.034,12.195,3.034,15.389
				c0,11.999-56.979-10.186-44.209-15.504c1.156-0.481,7.211-4.121,7.591-8.205c0.586-6.293,2.072-19.022,2.072-19.022
				L1048.818,2015.885z"/>
			<path style="fill:#DC4437;" d="M1009.467,2043.387c0,0,13.377,3.67,20.229,4.588c6.852,0.918,15.885-6.81,20.73-4.722
				c5.334,2.297,5.125,22.975,5.125,22.975s-71.738,5.886-91.911-0.202C955.648,2063.612,982.118,2051.937,1009.467,2043.387z"/>
			<path style="fill:#F9C38A;" d="M1165.379,2015.885c0,0,1.671,27.674,1.682,27.73c0.614,3.514,3.034,12.195,3.034,15.389
				c0,11.999-56.979-10.186-44.209-15.504c1.156-0.481,9.006-6.84,9.387-10.923c0.586-6.293,0.275-16.305,0.275-16.305
				L1165.379,2015.885z"/>
			<path style="fill:#DC4437;" d="M1126.026,2043.387c0,0,13.378,3.67,20.229,4.588s15.884-6.81,20.73-4.722
				c5.335,2.297,5.548,22.975,5.548,22.975s-72.064,6.862-92.333-0.202C1072.331,2063.282,1098.678,2051.937,1126.026,2043.387z"/>
			<g>
				<path style="fill:#F9C38A;" d="M1147.965,1511.867l-50.184-70.301c-0.211-0.615-0.667-1.874-1.364-3.798
					c-2.527-6.976-7.787-21.491-12.368-35.933l-0.049-0.154c-1.439-5.047-4.49-13.852-7.441-22.372
					c-3.282-9.471-7.353-21.216-7.495-23.219c0.127-0.342,0.363-0.958,0.679-1.774c1.84-4.777,4.326-16.152,5.206-21.098
					c0.562-3.149,1.12-10.805-2.624-10.805c-5.886,0-3.081,7.646-5.795,12.421c-0.998-3.192-3.015-9.523-4.079-15.931l-0.984-14.946
					c-0.188-1.127,1.01-9.373-3.119-9.373l-0.197,0.007c-3.709,0.271-3.625,9.037-5.167,23.863
					c-0.488-1.706-0.977-3.764-1.344-5.655c0.043-1.014-0.699-5.471-1.256-7.824c0.745-4.131,0.313-10.647-4.087-10.033
					c-2.206,0.309-2.023,9.402-2.023,9.402c0.023,1.248,0.153,10.863,0.086,12.763c-0.454-3.227-2.217-16.986-5.668-16.986
					c-2.862,0-3.093,3.704-3.032,6.633c0.034,1.735,1.833,16.642,1.934,18.375c-1.348-2.262-2.946-15.399-4.281-15.399
					c-5.583,0-3.564,18.679-1.514,23.546c0.192,0.498,0.397,1.475,0.635,2.606c0.696,3.328,1.864,8.897,4.785,13.897
					c3.505,5.995,8.339,15.527,9.077,16.989c0.54,2.978,2.219,13.685,4.332,27.155c0.903,5.764,1.895,12.084,2.927,18.629
					l0.055-0.007c0.189,1.417,1.235,5.921,5.205,22.821c5.432,23.128,5.996,24.127,6.237,24.554
					c2.358,4.176,56.466,77.656,58.769,80.781l1.358,1.844L1147.965,1511.867z"/>
				<path style="fill:#F47458;" d="M1054.624,1347.905c0,0,4.073-10.417,11.324-10.436c0,0-4.051-1.462-7.526,1.289
					C1054.948,1341.508,1054.624,1347.905,1054.624,1347.905z"/>
			</g>
			<g>
				<path style="fill:#F9C38A;" d="M1160.09,1327.778l6.459,40.856c0,0-24.614,19.765-38.965,15.596
					c-12.039-3.499-3.782-19.239-3.782-19.239s6.414-21.811,4.446-33.243C1126.279,1320.317,1160.09,1327.778,1160.09,1327.778z"/>
				<path style="fill:#E5AC7A;" d="M1155.451,1340.131c-6.17,2.913-18.367,6.889-27.859,7.851
					c0.908-5.717,1.425-11.764,0.656-16.233c-0.909-5.275,5.805-6.524,13.297-6.342c9.805,0.84,18.545,2.372,18.545,2.372
					l1.241,7.852C1159.467,1337.597,1157.506,1339.161,1155.451,1340.131z"/>
				<path style="fill:#F9C38A;" d="M1191.154,1280.653c1.016,0.005-9.73,45.643-26.36,53.495
					c-16.631,7.852-41.433,3.76-46.086-8.533c-5.147-13.597,13.629-60.16,37.02-66.075
					C1179.117,1253.625,1191.154,1280.653,1191.154,1280.653z"/>
				<path style="fill:#353535;" d="M1171.91,1238.717c13.284,7.662,19.38,19.025,21.432,23.679
					c6.235,2.959,13.778,9.359,17.4,26.601c4.452,21.201-11.378,37.544-28.162,42.46c-16.783,4.917-19.375,16.022-19.375,16.022
					l-1.904-11.952c0,0,3.734-10.407,9.348-15.615c5.615-5.208-2.659-12.799-3.387-18.99c-0.561-4.767,2.95-14.023,2.189-21.846
					c0,0-9.325-14.134-18.519-17.626C1135.261,1255.498,1154.866,1228.887,1171.91,1238.717z"/>
				<path style="fill:#F9C38A;" d="M1164.84,1308.869c-2.173,5.271-1.284,10.505,1.985,11.689c3.269,1.185,7.683-2.128,9.856-7.399
					c2.173-5.272,1.284-10.505-1.985-11.689C1171.427,1300.285,1167.014,1303.598,1164.84,1308.869z"/>
			</g>
			<path style="fill:#F9C38A;" d="M1102.894,1512.998l-96.801-15.782c0,0,11.014-27.727,14.949-27.727
				c3.935,0,73.194,30.235,73.194,30.235l5.508,11.062L1102.894,1512.998z"/>
			<path style="fill:#282828;" d="M1152.477,1579.368c0,0,9.656,46.684,5.721,82.08c-3.936,35.398-4.244,161.141-4.244,161.141
				l15.016,201.188l-35.63,0.776c0,0-42.251-201.092-41.464-195.93c0.786,5.163-14.167-141.589-14.167-141.589l50.37-112.092
				L1152.477,1579.368z"/>
			<path style="fill:#353535;" d="M1143.032,1577.155c0,0,6.296,42.035-1.575,60.471c-7.869,18.437-67.504,199.328-68.291,214.077
				s-20.619,177.769-20.619,177.769l-41.432-1.165l-8.963-181.246l18.77-227.798l18.222-57.594L1143.032,1577.155z"/>
			<path style="fill:#F9C38A;" d="M1166.549,1368.635c0,0-10.216,6.704-19.745,5.927c-9.529-0.777-23.002-9.57-23.002-9.57
				l1.872-6.347c0,0,24.651-3.591,25.273-3.203C1151.568,1355.831,1166.549,1368.635,1166.549,1368.635z"/>
			<path style="fill:#F9C38A;" d="M1057.657,1468.12c0,0-36.615,34.554-53.144,28.654c-16.527-5.899-23.366-26.066,16.96-55.569
				C1057.564,1414.799,1057.657,1468.12,1057.657,1468.12z"/>
			<path style="fill:#FFFBF3;" d="M1032.848,1510.786c5.439-29.592,44.86-121.679,48.009-138.64
				c1.531-8.249,22.794-8.431,43.048-7.354c21.394,1.137,42.645,3.843,42.645,3.843s18.939,3.11,27.271,10.918
				c8.334,7.807,10.547,29.4-1.432,70.39c-9.455,32.357-21.177,50.124-26.978,73.692c-1.175,7.906-2.183,15.706-3.516,24.818
				c-2.133,35.241,0.024,81.798,0.024,81.798s-103.101,21.386-141.665-11.062C1020.255,1619.19,1027.274,1541.104,1032.848,1510.786
				z"/>
			<path style="fill:#E6E6E6;" d="M1006.559,1447.157c0,0,40.455,33.393,42.816,33.393c1.521,0,57.731-41.349,70.705-75.32
				c7.173-18.78-7.871-39.791-25.058-39.721c-11.911,0.048-17.207,3.118-40.818,23.028
				C1030.594,1408.449,1006.559,1447.157,1006.559,1447.157z"/>
		</g>
		<path style="fill:#F9C38A;" d="M1342.354,1504.473c-1.384-2.688,12.043-6.9,12.373-9.861c0.332-2.962-17.788-0.646-18.788-3.068
			c-1.842-4.459,19.688-3.755,18.971-5.861c-0.718-2.105-22.885-3.925-21.083-7.964c1.803-4.04,22.789,4.285,23.025,1.683
			c0.233-2.603-20.214-5.985-20.638-11.558c-0.228-2.979,34.214,10.214,37.695,8.088c3.482-2.125-6.158-14.922-3.495-17.395
			c2.661-2.473,15.378,26.601,17.556,27.325c2.171,0.722,48.814,19.31,64.729,21.074c1.144-5.408,10.723-34.574,11.686-39.67
			c9.481,4.925,19.668,4.862,29.35,9.207c-4.179,17.058-20.745,59.935-24.952,62.594c-12.807,8.096-71.843-28.346-83.451-34.371
			c-11.62-6.031-17.324-2.746-24.801-4.117C1353.052,1499.205,1343.736,1507.161,1342.354,1504.473z"/>
		<path style="fill:#C12925;" d="M1492.849,1501.356c0,0,28.712-57.758,29.581-77.88c0.867-20.123-19.196-42.627-36.595-38.74
			c-17.399,3.888-31.304,96.721-31.304,96.721L1492.849,1501.356z"/>
		<polygon style="fill:#282828;" points="634.5,2068.535 617.255,2068.535 654.411,1696.622 671.656,1696.622 		"/>
		<path style="fill:#FFFFFF;" d="M1142.133,1312.891l-17.905-7.99c0,0-2.622,6.985,5.15,10.727
			C1138.855,1320.189,1142.133,1312.891,1142.133,1312.891z"/>
		<path style="fill:#EFBE5E;" d="M1872.564,2072H203.087c-1.897,0-3.435-1.538-3.435-3.436l0,0c0-1.897,1.538-3.436,3.435-3.436
			h1669.477c1.897,0,3.435,1.538,3.435,3.436l0,0C1875.999,2070.462,1874.462,2072,1872.564,2072z"/>
	</g>
</g>
</svg>
