<svg width="1000" height="1300" viewBox="0 0 1000 1300" fill="none" xmlns="http://www.w3.org/2000/svg">
<path opacity="0.36" d="M885.812 997.488C886.921 1084.55 944.377 1163.34 928.608 1247.57C926.438 1259.15 923.039 1269.82 918.627 1279.58C918.627 1279.58 155.957 1279.58 149.683 1279.58C122.967 1279.58 91.712 1175.35 83.0636 1147.42C66.1332 1092.72 56.2382 1033.7 54.4347 974.118C51.9176 890.91 67.5605 817.686 109.759 757.089C139.458 714.442 176.909 682.386 202.5 634.795C223.469 595.798 235.384 547.407 236.035 498.596C236.932 431.214 215.84 367.771 216.009 300.72C216.171 237.269 234.003 174.572 262.996 126.19C300.382 63.8 354.893 24.2126 411.816 7.54277C467.644 -8.8062 531.807 -0.984637 572.498 54.9923C601.419 94.7755 613.869 152.137 621.992 207.763C634.838 295.749 642.841 378.412 693.656 441.633C722.036 476.942 757.166 499.491 791.868 521.031C826.573 542.57 861.926 564.039 891.297 597.72C920.669 631.401 943.8 679.64 945.235 732.77C947.844 829.287 884.59 901.349 885.812 997.488Z" fill="#D2E8F9"/>
<path d="M856.763 878.768C854.349 888.012 851.299 896.877 847.685 905.279C860.319 925.995 872.311 946.721 872.548 951.128C872.683 953.63 836.107 1006.42 833.759 1005.46C828.886 1003.47 813.747 986.268 799.194 968.753C793.591 972.88 787.775 976.42 781.798 979.307C780.445 1007.86 778.365 1036.61 775.406 1039.32C772.342 1042.13 721.539 1042.98 720.55 1039.32C719.06 1033.8 717.179 1008.55 715.574 982.718C708.095 979.75 700.854 975.7 693.997 970.584C680.052 986.943 666.251 1002.62 662.2 1005.46C657.906 1008.48 621.755 954.745 623.411 951.128C627.592 941.993 637.571 924.597 647.84 907.336C644.893 899.967 642.335 892.291 640.313 884.314C639.531 881.227 638.825 878.106 638.191 874.959C619.65 872.423 601.953 869.95 599.243 869.397C592.446 868.005 595.587 792.819 599.243 792.559C607.701 791.951 623.194 789.911 638.654 787.692C640.843 777.071 643.842 766.801 647.555 757.061C635.691 737.859 624.564 718.311 623.411 710.828C622.627 705.738 660.515 654.786 662.2 656.495C670.337 664.736 682.974 679.055 695.022 693.043C701.409 688.69 708.061 685.205 714.884 682.601C716.085 653.246 717.488 626.6 720.579 622.629C725.346 616.506 764.93 617.333 775.377 622.632C778.794 624.365 780.139 652.608 781.277 683.486C787.638 686.032 793.846 689.295 799.835 693.256C814.21 676.191 828.997 659.376 833.759 656.499C836.396 654.905 872.864 707.93 872.548 710.831C871.781 717.92 860.907 737.116 849.107 756.19C849.153 756.301 849.206 756.406 849.252 756.517C852.905 765.481 855.82 775.004 858.043 784.839C874.231 786.75 890.035 789.33 896.719 792.562C899.501 793.906 900.538 865.867 896.719 869.4C891.511 874.216 874.325 877.076 856.763 878.768ZM782.034 776.831C768.277 760.131 747.99 754.734 730.819 763.208C711.687 772.65 697.107 799.141 696.206 827.688C694.933 868.046 720.104 902.152 748.434 902.821C778.722 903.537 798.514 867.667 799.04 830.957C799.319 811.339 794.097 791.478 782.034 776.831Z" fill="#AAD6E0"/>
<path d="M736.57 255.331C732.941 258.309 729.125 260.775 725.171 262.727C725.371 279.029 725.269 294.996 724.182 297.154C723.562 298.38 692.325 303.24 691.5 301.541C689.793 298.022 687.481 282.004 685.526 266.155C681.817 265.071 678.169 263.602 674.625 261.744C666.235 274.206 657.459 286.367 655.356 286.04C653.179 285.698 629.493 258.992 630.033 256.773C630.845 253.433 636.844 240.772 643.127 227.989C640.482 222.63 638.24 216.895 636.465 210.877C625.58 210.992 614.947 210.86 612.302 210.016C609.498 209.117 607.422 165.025 609.17 164.238C613.585 162.252 622.92 159.544 632.355 157.055C632.998 152.08 633.905 147.173 635.139 142.411C635.617 140.571 636.14 138.754 636.704 136.96C628.834 125.897 621.339 115.316 620.237 113.614C617.476 109.345 639.371 76.3128 641.131 78.1433C645.201 82.3749 652.906 89.6966 660.648 96.9238C664.547 93.1886 668.723 90.0478 673.087 87.5318C672.831 72.3379 673.01 57.3769 674.512 53.3074C675.534 50.5381 706.878 47.2319 707.194 48.9205C708.71 57.0662 710.649 70.4163 712.409 83.3036C716.541 84.7018 720.558 86.6403 724.416 89.0786C732.951 76.1676 740.845 64.6176 743.352 64.4319C747.217 64.1482 765.266 85.6474 768.649 93.6682C769.756 96.2889 762.696 110.044 754.827 124.907C757.071 129.477 759.051 134.292 760.736 139.318C772.013 139.108 783.412 139.237 786.392 140.446C788.044 141.118 790.46 185.048 789.524 186.223C787.241 189.087 777.003 192.147 766.368 194.656C766.359 194.734 766.356 194.808 766.347 194.883C765.597 200.968 764.353 206.919 762.703 212.647C769.657 222.167 776.251 231.788 778.457 236.844C779.376 238.948 760.288 272.72 757.563 272.315C753.848 271.768 745.137 263.919 736.57 255.331ZM739.172 166.369C736.806 146.71 726.492 129.321 713.127 122.462C698.237 114.823 680.036 120.635 669.355 137.224C654.252 160.672 657.319 198.78 674.162 218.925C692.173 240.464 716.845 232.626 730.203 210.857C737.339 199.222 741.243 183.606 739.172 166.369Z" fill="#AAD6E0"/>
<path d="M680.178 149.649C671.727 162.901 673.149 182.728 681.376 195.582C686.675 203.859 694.632 208.668 702.569 208.385C723.017 207.659 729.182 173.725 718.839 152.681C715.654 146.2 710.938 141.496 705.421 139.821C696.867 137.221 686.186 140.223 680.178 149.649Z" fill="#AAD6E0"/>
<path d="M451.216 356.884C452.27 359.576 453.13 362.396 453.798 365.31C459.862 365.405 465.798 365.712 466.584 366.54C467.03 367.009 468.378 389.869 467.734 390.443C466.401 391.639 460.412 393.088 454.49 394.28C454.032 396.968 453.432 399.609 452.692 402.166C457.203 408.471 461.596 415.053 461.441 416.58C461.282 418.163 451.004 435.049 450.187 434.624C448.957 433.982 444.337 429.42 439.677 424.651C437.644 426.502 435.479 428.052 433.215 429.257C433.097 437.201 432.892 444.955 432.54 446.873C432.164 448.906 415.74 449.771 415.472 448.484C414.799 445.235 413.929 438.383 413.143 431.466C411.303 430.922 409.49 430.19 407.74 429.22C407.062 428.845 406.395 428.437 405.736 427.998C401.507 433.577 397.464 438.889 396.813 439.666C395.186 441.618 383.227 425.158 383.931 423.901C385.563 420.994 388.401 415.482 391.2 409.94C389.869 407.042 388.762 403.949 387.892 400.727C382.238 400.69 376.678 400.339 375.188 399.184C374.173 398.397 373.406 375.483 374.038 375.28C377.088 374.294 382.081 373.075 386.899 371.98C387.48 368.988 388.259 366.084 389.223 363.304C384.548 356.888 380.37 350.957 380.338 349.127C380.29 346.304 388.55 333.453 391.581 331.103C392.572 330.336 397.582 335.686 402.993 341.646C404.724 340.076 406.544 338.705 408.437 337.547C408.526 329.316 408.74 321.005 409.235 318.847C409.51 317.652 425.878 316.537 426.3 317.236C427.332 318.942 428.318 326.456 429.095 334.25C429.124 334.257 429.15 334.261 429.179 334.271C431.431 334.909 433.625 335.902 435.73 337.189C439.371 332.258 443.047 327.587 444.959 326.051C445.755 325.412 458.032 339.833 457.842 341.815C457.581 344.524 454.536 350.761 451.216 356.884ZM418.797 360.552C413.174 361.65 408.109 367.215 406.006 374.604C403.665 382.835 405.114 393.064 409.715 399.217C416.22 407.917 427.101 406.634 433.025 397.451C439.358 387.637 437.405 373.767 431.359 366.064C428.128 361.947 423.728 359.589 418.797 360.552Z" fill="#AAD6E0"/>
<path d="M574.515 750.738C583.648 849.416 592.784 948.098 601.917 1046.78C603.708 1066.13 606.527 1087.9 618.143 1098.68C634.206 1113.59 656.028 1098.16 674.858 1103.87C703.381 1112.54 714.824 1164.7 742.03 1179.51C762.478 1190.63 785.224 1177.42 807.16 1177.32C829.925 1177.22 851.752 1191.61 869.561 1211.48C887.369 1231.35 915.911 1279.6 915.911 1279.6H132.598C148.843 1247.09 174.548 1224.17 202.446 1217.29C225.028 1211.73 249.326 1216.02 270.004 1202.13C289.646 1188.95 296.294 1104.21 324.556 1108.73C339.015 1111.05 352.978 1117.54 367.364 1120.62C381.751 1123.7 397.351 1123.01 409.645 1112.1C428.586 1095.3 433.922 1060.63 437.584 1029.65C448.291 939.084 459.001 848.518 469.709 757.955" fill="#ABDBE8"/>
<path d="M812.911 1279.6H271.988C276.557 1255.04 296.617 1239.29 315.067 1232.73C335.778 1225.39 358.948 1222.59 374.287 1201.8C384.404 1188.12 390.234 1167.52 403.005 1159.29C416.124 1150.85 433.006 1158.19 444.972 1146.83C455.699 1136.65 457.787 1116.08 458.852 1097.97C461.203 1059.12 463.53 1020.27 465.859 981.381C467.882 947.464 469.926 913.547 471.952 879.63C473.779 849.4 471.669 811.491 478.174 782.569C487.486 741.215 546.75 752.887 560.218 784.001C565.484 796.189 566.376 811.032 567.113 825.264C571.921 915.863 576.707 1006.49 581.517 1097.12C582.843 1122.45 585.912 1151.85 601.642 1164.5C612.564 1173.28 626.358 1170.9 638.083 1177.3C658.577 1188.49 667.368 1222.5 684.836 1241.24C705.047 1262.9 732.917 1260.83 758.349 1261.13C777.167 1261.35 798.051 1265.22 812.911 1279.6Z" fill="#D7F0F4"/>
<path d="M565.748 754.795C570.208 760.59 570.317 782.201 570.905 790.239C571.971 804.774 572.308 819.411 571.927 834.014C571.452 852.257 569.955 870.464 567.339 888.35C564.663 906.664 557.239 943.465 555.727 941.186C553.856 938.359 556.472 919.518 556.894 910.389C557.466 898.079 556.405 881.669 554.594 881.102C553.042 880.616 550.474 906.181 548.591 918.285C544.34 946.363 538.906 972.945 530.358 999.121C526.018 1012.41 522.392 1005.58 517.828 996.203C510.069 980.263 503.834 961.509 499.027 943.438C490.923 912.976 489.587 880.501 487.331 848.462C486.082 847.894 485.122 850.025 484.715 851.775C481.612 865.037 482.899 891.115 480.527 892.149C479.01 892.807 476.107 848.995 476.264 827.78C476.409 807.935 477.689 788.104 480.095 768.547C481.243 759.223 480.261 753.468 487.22 752.509C491.427 751.928 495.762 753.789 499.977 753.785C512.326 753.779 524.675 753.782 537.025 753.782C543.872 753.782 558.401 749.74 564.685 753.779C565.065 754.025 565.417 754.366 565.748 754.795Z" fill="#DC2400"/>
<path d="M492.5 829.609C498.371 805.969 504.326 794.979 503.072 804.567C492.611 884.62 517.664 954.936 520.941 954.936C529.181 954.936 541.562 822.101 547.901 822.253C556.065 822.449 552.518 854.418 554.662 855.235C558.469 856.687 560.566 783.548 554.461 748.752C553.504 743.298 527.009 743.497 523.46 743.66C515.684 744.011 503.918 743.393 499.14 752.633C488.358 773.473 486.66 853.124 492.5 829.609Z" fill="#F59501"/>
<path d="M480.231 589.818C471.445 588.076 460.766 587.127 452.034 589.605C447.923 590.774 448.933 590.497 447.737 595.083C443.327 612.016 441.673 631.341 438.785 648.919C435.453 669.209 432.121 689.499 428.789 709.789C422.045 752.298 406.308 835.62 407.834 837.099C409.191 838.416 419.87 837.542 421.095 837.099C427.294 834.853 430.708 816.583 433.681 808.201C439.633 791.524 445.519 774.804 451.436 758.107C454.481 749.519 457.524 740.93 460.569 732.342C462.64 726.496 464.863 714.626 468.585 710.532C469.157 709.904 469.911 709.725 470.628 709.546C476.438 708.118 479.587 708.263 480.356 700.404C480.749 696.385 480.354 691.887 480.344 687.834C480.315 675.2 480.265 662.563 480.233 649.929C480.183 630.182 479.008 609.548 480.503 589.872C480.412 589.852 480.322 589.835 480.231 589.818Z" fill="#EF290F"/>
<path d="M571.328 589.813C578.607 588.371 596.482 583.565 602.729 590.927C605.603 594.315 606.112 607.104 606.987 612.143C608.485 620.761 609.963 629.387 611.419 638.019C619.072 683.368 626.237 728.835 633.9 774.15C635.816 785.089 637.714 796.031 639.539 807C640.863 814.953 644.617 836.459 643.281 836.888C640.552 837.766 634.637 838.607 630.466 837.094C624.267 834.848 620.853 816.577 617.881 808.195C608.082 780.563 597.739 753.269 589.064 724.89C587.783 720.702 586.489 716.4 584.278 713.056C580.041 706.657 572.227 710.841 571.205 700.395C570.812 696.377 571.207 691.878 571.217 687.826C571.246 675.191 571.297 662.554 571.328 649.92C571.379 630.173 572.553 609.539 571.058 589.863C571.149 589.847 571.239 589.83 571.328 589.813Z" fill="#EF290F"/>
<path opacity="0.36" d="M571.328 589.813C578.607 588.371 596.482 583.565 602.729 590.927C605.603 594.315 606.112 607.104 606.987 612.143C608.485 620.761 609.963 629.387 611.419 638.019C619.072 683.368 626.237 728.835 633.9 774.15C635.816 785.089 637.714 796.031 639.539 807C640.863 814.953 644.617 836.459 643.281 836.888C640.552 837.766 634.637 838.607 630.466 837.094C624.267 834.848 620.853 816.577 617.881 808.195C608.082 780.563 597.739 753.269 589.064 724.89C587.783 720.702 586.489 716.4 584.278 713.056C580.041 706.657 572.227 710.841 571.205 700.395C570.812 696.377 571.207 691.878 571.217 687.826C571.246 675.191 571.297 662.554 571.328 649.92C571.379 630.173 572.553 609.539 571.058 589.863C571.149 589.847 571.239 589.83 571.328 589.813Z" fill="#EF290F"/>
<path d="M502.087 104.02L501.195 105.269V105.235C501.485 104.83 501.798 104.391 502.087 104.02Z" fill="#1994B3"/>
<path d="M605.186 422.828C601.28 499.727 597.35 576.625 593.42 653.524C592.672 668.384 586.548 751.868 583.727 751.597C551.95 748.457 510.166 753.218 478.34 753.489C475.013 753.522 471.324 753.387 468.841 750.247C466.357 747.14 465.875 742.04 465.562 737.379C460.595 664.534 456.737 591.553 452.879 518.605C448.033 426.915 437.328 329.719 451.674 237.826C467.394 248.16 484.006 255.286 501.776 258.629C518.46 261.77 535.458 261.703 552.094 258.325C569.647 254.746 587.247 247.451 601.883 233.672C611.838 293.651 608.535 357.108 605.186 422.828Z" fill="#1994B3"/>
<path opacity="0.36" d="M550.281 626.834C550.783 666.732 551.284 706.634 551.786 746.532C551.822 749.44 551.815 752.563 550.633 754.954C548.784 758.693 544.999 759.021 541.753 758.98C538.05 758.933 533.761 758.477 531.637 754.228C530.66 752.273 530.342 749.838 530.062 747.488C526.677 719.025 525.329 690.089 526.019 661.251C526.368 646.624 527.241 632.025 528.635 617.523C529.491 608.624 529.782 592.698 538.175 592.566C542.911 592.492 548.769 595.399 550.551 601.998C552.622 609.681 550.214 621.552 550.281 626.834Z" fill="#1994B3"/>
<path opacity="0.36" d="M605.186 422.843C601.28 499.741 597.35 576.64 593.42 653.538C592.673 668.398 586.548 751.882 583.728 751.612C578.254 751.072 572.516 750.768 566.561 750.632C565.452 737.698 566.368 724.29 567.26 711.221C574.831 602.374 580.231 492.784 574.999 383.667C572.926 340.676 569.213 297.785 563.33 255.469C561.787 244.122 560.075 232.876 558.194 221.63C553.758 195.085 548.454 168.844 542.137 143.076C537.17 122.779 529.431 102.651 524.223 82.3208C530.009 80.3282 534.59 82.8611 539.436 88.9738C554.554 107.92 568.514 129.905 579.243 154.086C584.812 166.615 589.466 179.922 593.251 193.7C594.312 197.55 603.86 231.761 601.883 233.653C590.888 243.987 578.279 250.674 565.235 254.895C578.254 250.707 590.912 244.021 601.883 233.686C611.84 293.665 608.537 357.123 605.186 422.843Z" fill="#1994B3"/>
<path d="M568.029 131.916C570.079 135.665 572.008 139.447 573.84 143.263C571.983 139.447 570.055 135.665 568.005 131.916C565.98 128.201 563.858 124.52 561.664 120.906C563.882 124.52 566.006 128.201 568.029 131.916Z" fill="#EF290F"/>
<path opacity="0.36" d="M589.234 384.173C596.376 417.813 586.548 457.134 565.987 477.187C545.425 497.241 515.687 496.515 495.64 475.462C475.592 454.408 466.753 414.632 474.731 381.363C492.908 305.565 572.962 307.528 589.234 384.173Z" fill="#1994B3"/>
<path d="M584.414 377.419C591.555 411.059 581.728 450.38 561.167 470.434C540.605 490.487 510.867 489.761 490.819 468.708C470.771 447.654 461.932 407.878 469.911 374.609C488.087 298.812 568.142 300.774 584.414 377.419Z" fill="#ABDBE8"/>
<path d="M482.969 369.481C472.324 398.728 475.102 437.873 494.65 459.088C494.824 459.277 494.998 459.466 495.174 459.649C511.581 476.812 540.472 475.414 557.265 460.007C565.075 452.844 570.91 441.757 573.981 429.41C584.101 388.731 563.884 334.423 531.805 330.14C511.265 327.402 491.991 344.693 482.969 369.481Z" fill="#D7F0F4"/>
<path opacity="0.36" d="M555.553 344.118C539.351 386.299 518.495 424.934 493.927 458.233C490.358 454.248 487.369 449.588 484.934 444.488C488.261 438.375 491.588 432.297 494.939 426.251C505.355 407.44 515.892 388.765 526.597 370.291C531.901 361.139 537.253 352.021 542.63 342.936C543.691 341.18 544.969 338.208 546.415 335.945C549.695 338.14 552.732 340.91 555.553 344.118Z" fill="#D7F0F4"/>
<path opacity="0.36" d="M570.89 371.98C570.456 372.926 569.973 373.838 569.515 374.716C552.397 406.968 535.278 439.186 518.184 471.472C511.939 470.459 505.912 468.129 500.68 464.414C505.14 455.228 512.831 440.841 513.844 438.781C523.85 418.585 534 398.525 544.272 378.566C549.335 368.738 554.422 358.91 559.534 349.15C564.211 355.668 568.045 363.503 570.89 371.98Z" fill="#D7F0F4"/>
<path d="M527.401 321.833C526.919 322.691 526.801 323.91 527.073 324.93C527.346 325.954 527.994 326.751 528.747 327.038C529.289 327.244 529.892 327.186 530.379 326.794C530.856 326.413 531.194 325.734 531.336 324.994C531.478 324.255 531.437 323.454 531.269 322.725C531.138 322.161 530.929 321.624 530.615 321.225C530.138 320.624 529.566 320.631 528.966 320.685C528.363 320.739 527.775 321.165 527.401 321.833Z" fill="#1994B3"/>
<path d="M526.931 478.82C526.759 479.883 527.022 481.059 527.584 481.815C528.143 482.575 528.975 482.906 529.742 482.714C530.294 482.575 530.822 482.16 531.143 481.515C531.456 480.883 531.555 480.069 531.456 479.313C531.36 478.556 531.078 477.861 530.702 477.3C530.412 476.868 530.058 476.506 529.653 476.337C529.035 476.081 528.524 476.432 527.999 476.837C527.466 477.253 527.066 477.989 526.931 478.82Z" fill="#1994B3"/>
<path d="M582.012 397.218C581.233 397.167 580.454 397.738 580.02 398.643C579.584 399.548 579.497 400.75 579.767 401.777C579.962 402.513 580.346 403.169 580.854 403.5C581.351 403.82 581.942 403.814 582.458 403.547C582.971 403.28 583.41 402.77 583.738 402.152C583.991 401.676 584.182 401.125 584.23 400.538C584.302 399.643 583.967 398.998 583.588 398.343C583.205 397.681 582.619 397.255 582.012 397.218Z" fill="#1994B3"/>
<path d="M473.892 398.56C473.419 397.723 472.621 397.284 471.864 397.416C471.109 397.544 470.417 398.226 470.051 399.162C469.788 399.837 469.689 400.651 469.841 401.391C469.991 402.11 470.374 402.718 470.844 403.079C471.314 403.441 471.866 403.566 472.399 403.508C472.812 403.464 473.224 403.309 473.566 402.981C474.085 402.481 474.208 401.722 474.311 400.911C474.415 400.094 474.261 399.216 473.892 398.56Z" fill="#1994B3"/>
<path d="M563.543 341.743C562.564 341.908 561.677 342.847 561.269 344.107C560.862 345.366 560.932 346.893 561.421 348.092C561.776 348.956 562.352 349.659 563.037 349.922C563.707 350.179 564.442 349.996 565.045 349.51C565.648 349.027 566.12 348.257 566.436 347.393C566.68 346.724 566.837 345.981 566.81 345.235C566.767 344.096 566.251 343.391 565.679 342.685C565.103 341.972 564.305 341.614 563.543 341.743Z" fill="#1994B3"/>
<path d="M484.024 449.545C483.366 450.126 482.961 451.22 482.973 452.311C482.985 453.402 483.404 454.462 484.046 455.084C484.506 455.533 485.087 455.762 485.642 455.624C486.182 455.489 486.662 455.009 486.975 454.378C487.289 453.746 487.441 452.976 487.455 452.206C487.467 451.615 487.4 451.007 487.199 450.487C486.893 449.694 486.353 449.437 485.777 449.204C485.193 448.967 484.538 449.089 484.024 449.545Z" fill="#1994B3"/>
<path d="M567.95 453.744C567.424 452.937 566.588 452.569 565.824 452.778C565.059 452.988 564.389 453.751 564.063 454.744C563.83 455.46 563.769 456.301 563.965 457.037C564.155 457.756 564.575 458.337 565.074 458.658C565.573 458.979 566.142 459.053 566.684 458.942C567.101 458.857 567.516 458.658 567.846 458.29C568.35 457.729 568.437 456.939 568.5 456.102C568.562 455.254 568.36 454.373 567.95 453.744Z" fill="#1994B3"/>
<path d="M489.761 349.462C489.852 348.378 489.5 347.25 488.886 346.578C488.271 345.906 487.42 345.696 486.672 346.004C486.135 346.223 485.64 346.713 485.37 347.402C485.105 348.074 485.071 348.901 485.223 349.638C485.377 350.374 485.71 351.026 486.127 351.525C486.448 351.91 486.826 352.218 487.241 352.326C487.873 352.491 488.355 352.066 488.849 351.583C489.346 351.1 489.688 350.306 489.761 349.462Z" fill="#1994B3"/>
<path d="M591.276 764.475C590.979 764.982 581.149 765.566 577.882 765.566C573.432 765.566 568.978 765.566 564.528 765.566C547.747 765.566 530.968 765.566 514.187 765.566C501.833 765.566 489.481 765.566 477.127 765.566C473.238 765.566 469.346 765.603 465.457 765.566C464.235 765.553 460.503 766.194 460.23 764.877C458.567 756.846 458.788 737.836 460.758 737.542C465.547 736.83 480.495 737.025 489.828 736.998C500.456 736.965 511.082 736.965 521.71 736.995C544.615 737.059 567.474 738.116 590.379 737.407C594.579 737.275 593.607 760.49 591.276 764.475Z" fill="#0A2C4A"/>
<path opacity="0.36" d="M526.637 737.025C535.799 737.093 544.937 737.296 554.075 737.431V765.563H526.637V737.025Z" fill="#0A2C4A"/>
<path opacity="0.36" d="M591.279 764.48C590.965 764.986 581.152 765.561 577.873 765.561H564.082V737.564C572.858 737.665 581.61 737.665 590.363 737.395C594.582 737.294 593.593 760.495 591.279 764.48Z" fill="#0A2C4A"/>
<path d="M536.988 835.491C534.601 837.98 514.972 838.037 514.972 832.296C514.972 755.11 514.372 677.871 515.3 600.709C515.469 588.524 517.998 589.422 526.029 589.753C528.387 589.851 536.759 588.933 538.179 592.563C538.842 594.258 538.208 599.037 538.208 600.955C538.208 609.631 538.208 618.307 538.208 626.983C538.208 673.997 538.2 721.011 538.188 768.028C538.186 779.781 538.181 791.537 538.179 803.289C538.174 809.429 537.185 835.285 536.988 835.491Z" fill="#EF290F"/>
<path d="M601.877 233.655C587.237 247.441 569.648 254.735 552.098 258.315C535.457 261.689 518.461 261.767 501.782 258.626C484.01 255.276 467.386 248.163 451.668 237.833C452.001 235.678 452.355 233.523 452.724 231.369C460.767 183.993 476.521 139.941 501.206 105.261C506.917 97.2368 513.15 88.5203 520.706 83.9813C528.217 79.4694 533.646 81.6916 539.45 88.9661C554.567 107.912 568.527 129.894 579.256 154.071C584.821 166.608 589.465 179.914 593.25 193.686C594.308 197.539 603.856 231.777 601.877 233.655Z" fill="#EF290F"/>
<path opacity="0.36" d="M601.883 233.652C601.015 234.463 600.147 235.24 599.279 236.016C599.231 236.084 599.158 236.152 599.11 236.152C599.038 236.219 598.941 236.287 598.869 236.354C598.073 237.03 597.278 237.705 596.482 238.313C593.926 240.407 591.274 242.264 588.574 243.987C587.947 244.392 587.32 244.797 586.669 245.169C585.897 245.675 585.102 246.114 584.306 246.553C583.294 247.127 582.257 247.701 581.196 248.242C579.894 248.951 578.592 249.559 577.29 250.201C576.494 250.538 575.699 250.91 574.903 251.248C574.903 251.248 574.903 251.248 574.879 251.248C574.107 251.619 573.312 251.957 572.516 252.261C572.227 252.396 571.962 252.497 571.696 252.565C570.611 253.004 569.551 253.409 568.466 253.78C567.381 254.152 566.32 254.523 565.235 254.895C564.608 255.098 563.957 255.266 563.33 255.469C561.787 244.122 560.075 232.876 558.194 221.63C553.758 195.085 548.454 168.844 542.137 143.076C537.17 122.779 529.431 102.651 524.223 82.3206C524.536 82.2193 524.874 82.118 525.187 82.0167C525.501 81.9491 525.814 81.8816 526.127 81.814C531.046 80.936 535.145 83.5364 539.436 88.9737C554.554 107.92 568.514 129.905 579.243 154.086C584.812 166.615 589.466 179.921 593.251 193.7C594.312 197.55 603.86 231.761 601.883 233.652Z" fill="#EF290F"/>
<path d="M92.4297 1218.68C92.3333 1218.82 92.232 1219 92.1163 1219.25C91.2121 1221.21 92.6925 1228.14 93.0493 1230.29C94.3079 1237.88 96.7865 1245.05 100.131 1251.27C114.795 1278.51 143.103 1285.38 165.393 1274.99C182.883 1266.85 198.304 1245.1 198.304 1218.11C179.028 1218.11 159.749 1218.11 140.472 1218.11C128.393 1218.11 116.314 1218.11 104.237 1218.11C101.408 1218.11 96.719 1216.82 94.0258 1218.11C93.2085 1218.51 92.9071 1218 92.4297 1218.68Z" fill="#13447D"/>
<path opacity="0.36" d="M92.4297 1218.68C92.3333 1218.82 92.232 1219 92.1163 1219.25C91.2121 1221.21 92.6925 1228.14 93.0493 1230.29C94.3079 1237.88 96.7865 1245.05 100.131 1251.27C114.795 1278.51 143.103 1285.38 165.393 1274.99C182.883 1266.85 198.304 1245.1 198.304 1218.11C179.028 1218.11 159.749 1218.11 140.472 1218.11C128.393 1218.11 116.314 1218.11 104.237 1218.11C101.408 1218.11 96.719 1216.82 94.0258 1218.11C93.2085 1218.51 92.9071 1218 92.4297 1218.68Z" fill="#13447D"/>
<path d="M290.373 909.572C290.525 892.355 289.112 875.128 286.03 858.411C262.795 732.408 156.152 668.522 74.9015 731.631C32.1993 764.802 3.02549 829.84 0.223845 898.123C-1.33128 936.015 5.27501 974.249 18.22 1007.5C24.9878 1024.89 33.4964 1040.97 43.5071 1054.96C51.548 1066.2 68.6496 1076.14 73.1197 1090.66C78.0792 1106.79 75.3596 1125.54 74.711 1142.46C73.8454 1165.07 73.5247 1187.76 72.9316 1210.39C72.8424 1213.84 72.7845 1217.49 73.9997 1220.5C78.1877 1230.84 102.289 1223.45 109.568 1223.52C125.247 1223.66 140.923 1223.79 156.602 1223.84C160.39 1223.85 217.325 1224.78 217.351 1222.56C217.151 1186.23 216.954 1149.89 216.753 1113.56C216.633 1091.61 223.015 1080.1 234.602 1066.91C248.746 1050.81 260.422 1035.22 269.823 1012.81C282.869 981.709 290.054 945.671 290.373 909.572Z" fill="#FDDD50"/>
<path opacity="0.36" d="M290.377 909.564C290.064 945.666 282.879 981.701 269.811 1012.8C260.408 1035.23 248.738 1050.8 234.609 1066.91C223.012 1080.11 216.623 1091.63 216.744 1113.58C216.961 1149.88 217.153 1186.22 217.346 1222.56C217.322 1224.79 160.397 1223.84 156.588 1223.84C140.916 1223.78 125.244 1223.68 109.572 1223.51C102.291 1223.44 78.1802 1230.84 73.985 1220.5C72.7795 1217.5 72.8277 1213.85 72.9241 1210.4C73.5269 1187.78 73.8403 1165.08 74.7083 1142.45C75.3593 1125.54 78.0838 1106.79 73.117 1090.68C68.6325 1076.13 51.5381 1066.2 43.5093 1054.95C42.9547 1054.21 42.4243 1053.43 41.918 1052.66C41.9903 1052.18 42.0867 1051.68 42.1808 1051.22C40.0277 1061.86 88.8202 1071.31 94.0426 1071.03C159.893 1067.5 246.928 1007.96 248.133 902.671C248.818 842.817 240.507 774.605 210.475 729.492C246.4 754.686 275.236 799.839 286.037 858.399C289.099 875.116 290.522 892.374 290.377 909.564Z" fill="#FDDD50"/>
<path d="M229.386 1157.79C226.239 1159.42 221.998 1158.85 218.714 1158.99C211.853 1159.29 204.981 1159.33 198.114 1159.34C183.81 1159.35 169.365 1159.8 155.072 1158.81C125.021 1156.74 94.4632 1158.94 64.3395 1159.18C57.6488 1159.23 60.3588 1148.91 60.3612 1142.63C60.3636 1139.99 59.4788 1126.32 61.7428 1126.32C110.837 1126.3 159.945 1126.79 209.036 1126.28C213.919 1126.23 218.804 1126.27 223.686 1126.39C229.089 1126.53 229.735 1126.85 229.728 1134.27C229.721 1141.99 229.786 1149.71 229.709 1157.43C229.711 1157.56 229.6 1157.68 229.386 1157.79Z" fill="#13447D"/>
<path d="M228.786 1197.62C227.89 1198.66 226.619 1198.93 225.165 1198.93C176.36 1198.98 127.554 1199.02 78.7489 1199.23C75.7809 1199.24 72.8105 1199.25 69.8425 1199.27C67.7473 1199.28 63.5304 1200.49 61.6594 1199.07C58.7227 1196.84 60.0392 1190.07 60.2152 1186.38C60.2369 1185.94 60.261 1185.49 60.2634 1185.05C60.2899 1180.63 60.3864 1176.21 60.5479 1171.8C60.8565 1163.38 68.3428 1165.95 72.3717 1166.02C78.5705 1166.11 84.7718 1166.2 90.973 1166.28C103.373 1166.44 115.773 1166.55 128.173 1166.63C152.976 1166.79 177.778 1166.6 202.581 1166.43C208.782 1166.38 214.981 1166.34 221.182 1166.31C225.078 1166.28 228.603 1164.88 229.896 1171.42C231.263 1178.33 231.248 1187.96 229.924 1194.93C229.698 1196.15 229.305 1197.01 228.786 1197.62Z" fill="#13447D"/>
<path d="M228.076 1236.98C225.988 1239.89 171.988 1239.25 148.434 1239.25C123.692 1239.32 98.9499 1239.48 74.2101 1239.8C71.488 1239.83 68.7659 1239.87 66.0463 1239.91C62.6612 1239.96 60.484 1239.23 60.4213 1234.16C60.3345 1226.93 60.0837 1219.69 60.0837 1212.47C60.0235 1210.85 60.009 1209.03 60.795 1207.83C61.3327 1207.01 62.1356 1206.67 62.9095 1206.42C66.8395 1205.15 70.567 1206.17 74.5043 1206.5C81.7037 1207.09 88.8838 1206.86 96.0953 1206.86C119.883 1206.86 143.67 1206.86 167.46 1206.86C187.252 1206.86 207.038 1207.2 226.83 1206.75C229.089 1206.7 230.107 1207.68 230.058 1211.03C229.964 1217.53 230.917 1224.07 230.188 1230.57C229.868 1233.45 229.128 1235.52 228.076 1236.98Z" fill="#13447D"/>
<path opacity="0.36" d="M229.718 1157.42C229.718 1157.55 229.597 1157.69 229.38 1157.79C226.246 1159.41 222.002 1158.83 218.723 1159C211.852 1159.31 204.98 1159.34 198.109 1159.34C191.213 1159.34 184.269 1159.44 177.326 1159.44C176.868 1148.6 176.265 1137.76 175.107 1127.12C175.083 1126.89 175.059 1126.68 175.035 1126.48C186.367 1126.45 197.699 1126.38 209.031 1126.28C213.925 1126.24 218.796 1126.28 223.69 1126.38C229.091 1126.55 229.742 1126.85 229.718 1134.28C229.718 1141.98 229.79 1149.72 229.718 1157.42Z" fill="#13447D"/>
<path opacity="0.36" d="M229.934 1194.94C229.693 1196.15 229.307 1197 228.777 1197.6C227.884 1198.65 226.607 1198.92 225.16 1198.92C209.609 1198.96 194.057 1198.96 178.482 1198.99C178.385 1190.82 178.169 1182.64 177.879 1174.5C177.783 1171.87 177.686 1169.24 177.59 1166.6C185.908 1166.57 194.25 1166.5 202.568 1166.43C208.789 1166.37 214.985 1166.33 221.182 1166.3C225.088 1166.26 228.608 1164.88 229.886 1171.4C231.26 1178.32 231.236 1187.95 229.934 1194.94Z" fill="#13447D"/>
<path opacity="0.36" d="M230.196 1230.56C229.859 1233.47 229.136 1235.53 228.075 1236.98C226.652 1238.97 201.191 1239.31 177.684 1239.31C178.262 1235.53 178.383 1231.51 178.455 1227.66C178.552 1220.74 178.6 1213.81 178.552 1206.89C194.657 1206.96 210.739 1207.13 226.821 1206.76C229.087 1206.69 230.1 1207.7 230.052 1211.04C229.955 1217.53 230.92 1224.08 230.196 1230.56Z" fill="#13447D"/>
<path d="M294.963 1223.47C294.989 1223.51 295.013 1223.56 295.037 1223.61C295.223 1224.05 295.218 1224.58 295.209 1225.09C294.9 1241.67 294.82 1258.26 294.394 1274.84C294.372 1275.71 294.582 1277.68 294.285 1278.46C293.562 1280.34 265.673 1279.31 258.175 1279.31C246.896 1279.31 235.615 1279.31 224.336 1279.31C223.914 1279.31 223.492 1279.31 223.07 1279.31C222.715 1279.31 223.571 1271.33 223.677 1270.63C224.217 1267.04 225.175 1263.41 227.198 1260.94C228.953 1258.78 231.282 1257.78 233.584 1257.25C240.13 1255.74 246.797 1254.23 253.141 1251.44C257.218 1249.65 261.208 1246.83 263.932 1242.22C267.226 1236.64 267.479 1230.24 268.513 1223.52C268.545 1223.32 268.581 1223.11 268.694 1222.98C268.812 1222.84 268.979 1222.84 269.133 1222.84C277.174 1223.01 285.22 1222.83 293.26 1222.75C293.87 1222.74 294.591 1222.81 294.963 1223.47Z" fill="#000021"/>
<path d="M348.273 1223.47C348.247 1223.51 348.222 1223.56 348.198 1223.61C348.013 1224.05 348.018 1224.58 348.027 1225.09C348.336 1241.67 348.415 1258.26 348.842 1274.84C348.864 1275.71 348.654 1277.68 348.951 1278.46C349.674 1280.34 393.647 1279.31 394.069 1279.31C394.421 1279.31 393.567 1271.33 393.461 1270.63C392.921 1267.04 391.964 1263.41 389.941 1260.94C388.186 1258.78 385.857 1257.78 383.554 1257.25C377.008 1255.74 375.759 1230.24 374.725 1223.52C374.693 1223.32 374.657 1223.11 374.544 1222.98C374.426 1222.84 374.259 1222.84 374.105 1222.84C366.064 1223.01 358.019 1222.83 349.975 1222.75C349.363 1222.74 348.642 1222.81 348.273 1223.47Z" fill="#000021"/>
<path d="M261.551 719.281L263.075 1238.49H295.371L318.924 878.218L345.308 1238.49H377.578L384.994 719.281H261.551Z" fill="#0A2C4A"/>
<path d="M387.434 738.678C389.202 734.429 385.889 678.729 386.296 648.99C386.347 645.268 386.323 641.499 386.581 637.791C386.74 634.134 386.528 633.536 390.513 629.179C396.642 622.476 400.121 602.489 401.573 584.144C403.28 562.564 401.363 462.539 398.945 457.432C395.181 449.486 379.888 441.945 373.807 438.979C362.69 433.552 358.198 431.742 345.231 429.868C327.235 427.267 321.35 427.206 303.322 429.868C294.199 431.215 272.844 438.824 264.065 442.573C258.093 445.122 250.477 448.135 247.692 456.885C246.696 460.016 242.72 525.79 244.138 561.301C244.792 577.674 248.022 603.837 251.357 623.597C252.994 633.293 260.258 634.711 262.204 634.985C262.954 635.089 260.996 719.259 259.284 738.742C259.135 740.431 304.523 745.088 308.193 745.28C321.215 745.962 334.647 745.111 347.785 743.636C354.55 742.876 361.306 741.95 368.062 741.001C371.558 740.512 387.039 739.627 387.434 738.678Z" fill="#1994B3"/>
<path opacity="0.36" d="M386.578 637.801L386.433 644.049C384.239 644.758 381.876 644.657 379.658 644.015C376.138 642.968 372.883 640.638 369.676 638.308C359.212 630.777 348.748 623.212 338.284 615.647C334.692 613.047 330.955 610.412 326.928 610.446C323.649 610.446 320.539 612.236 317.525 613.992C304.626 621.523 291.703 629.088 278.779 636.619C275.597 638.477 266.459 646.413 262.264 645.704L262.191 634.998C286.447 624.495 309.038 613.182 329.532 600.889L386.578 637.801Z" fill="#1994B3"/>
<path d="M329.541 600.883C308.464 613.48 287.314 624.03 266.234 632.969" stroke="#E6F2F4" stroke-width="0.5" stroke-miterlimit="10" stroke-linecap="round" stroke-linejoin="round"/>
<path d="M305.571 395.605L303.324 429.867C303.324 429.867 304.322 464.818 324.279 464.818C341.12 464.818 345.233 429.867 345.233 429.867L343.924 395.605H305.571Z" fill="#FFB48C"/>
<path d="M305.567 395.605L304.301 422.488C304.301 422.488 310.678 439.84 325.166 438.918C339.69 437.993 344.667 422.89 344.667 422.89L343.919 395.605H305.567Z" fill="#F2854C"/>
<path d="M359.85 349.319C359.85 385.647 346.585 425.167 324.273 425.167C301.961 425.167 288.695 385.647 288.695 349.319C288.695 312.99 301.961 317.935 324.273 317.935C346.585 317.931 359.85 312.99 359.85 349.319Z" fill="#FFB48C"/>
<path d="M311.471 365.124C312.972 365.124 314.188 362.868 314.188 360.086C314.188 357.303 312.972 355.047 311.471 355.047C309.97 355.047 308.754 357.303 308.754 360.086C308.754 362.868 309.97 365.124 311.471 365.124Z" fill="#0C0B0B"/>
<path d="M314.31 346.665C314.31 346.665 310.298 344.875 306.383 347.959" stroke="#1E100A" stroke-width="0.684" stroke-miterlimit="10" stroke-linecap="round" stroke-linejoin="round"/>
<path d="M334.375 360.089C334.375 362.872 335.593 365.128 337.092 365.128C338.594 365.128 339.81 362.872 339.81 360.089C339.81 357.306 338.592 355.047 337.092 355.047C335.593 355.05 334.375 357.306 334.375 360.089Z" fill="#0C0B0B"/>
<path d="M334.254 346.665C334.254 346.665 338.266 344.875 342.181 347.959" stroke="#1E100A" stroke-width="0.684" stroke-miterlimit="10" stroke-linecap="round" stroke-linejoin="round"/>
<path d="M323.974 361.953C324.336 368.127 325.553 374.199 327.54 379.734C328.181 381.524 328.926 383.483 328.567 385.418C328.263 387.049 327.186 388.258 326.009 388.63C324.835 389.001 323.591 388.633 322.496 387.93" stroke="#1E100A" stroke-width="0.684" stroke-miterlimit="10" stroke-linecap="round" stroke-linejoin="round"/>
<path d="M337.252 397.439C338.33 397.439 332.842 406.267 325.477 406.267C317.867 406.267 314.687 400.384 313.728 398.115C313.139 396.72 318.533 400.442 325.556 400.101C331.509 399.81 335.89 397.439 337.252 397.439Z" fill="white"/>
<path d="M292.921 359.437C292.369 363.986 293.726 368.451 292.453 373.017C291.638 375.941 289.121 374.158 288.002 371.436C282.479 358.022 283.691 314.098 286.151 308.583C288.699 302.873 295.089 298.641 299.481 301.076C306.813 289.985 315.375 288.739 327.551 288.53C334.234 288.415 340.812 290.613 347.423 292.008C354.032 293.406 360.968 293.964 367.237 290.708C367.126 294.774 366.029 298.773 364.17 301.897C366.036 301.785 367.902 301.674 369.769 301.559C368.459 307.432 366.217 314.75 363.251 319.292C364.954 322.761 365.084 326.756 365.395 329.89C366.246 338.492 364.729 344.358 363.89 351.801C362.924 360.379 363.382 364.351 361.663 372.693C361.103 375.404 358.54 377.654 357.311 374.901C356.785 373.723 356.587 371.801 356.079 370.474C355.442 368.812 354.844 367.154 354.362 365.391C352.448 358.383 352.045 350.545 353.356 343.257C353.815 340.714 351.49 332.977 350.126 332.754C345.923 332.065 339.481 334.676 331.054 337.016C326.526 338.272 303.768 335.581 301.273 329.826C302.445 344.247 294.479 346.584 292.921 359.437Z" fill="#1E100A"/>
<path d="M358.474 360.756C360.365 358.412 363.417 357.504 365.408 359.679C367.099 361.523 367.494 365.012 366.898 367.892C366.303 370.773 364.909 373.184 363.506 375.45C362.103 377.717 360.627 379.986 359.81 382.759C359.243 384.68 358.657 387.217 357.175 387.331C355.94 387.429 355.082 385.65 354.636 384.032C352.514 376.298 353.939 366.376 358.474 360.756Z" fill="#FFB48C"/>
<path d="M359.128 363.873C359.673 363.214 360.334 362.609 361.052 362.67C361.898 362.741 362.581 363.744 362.887 364.852C363.415 366.763 363.049 368.959 362.347 370.755C361.643 372.552 360.633 374.065 359.753 375.703C358.875 377.341 358.106 379.205 358.017 381.252C357.99 381.883 358.026 382.528 357.894 383.133C357.761 383.737 357.387 384.301 356.936 384.274C356.433 384.244 356.097 383.528 355.931 382.859C355.475 381.022 355.647 378.901 356.384 377.25C356.855 376.196 357.566 375.237 357.607 373.994C357.641 373.025 357.202 372.248 356.633 371.782C356.314 371.518 356.025 371.677 355.907 371.188C355.825 370.85 356.201 369.833 356.29 369.512C356.896 367.348 357.874 365.389 359.128 363.873Z" fill="#F2854C"/>
<path d="M289.938 360.756C288.048 358.412 284.993 357.504 283.004 359.679C281.316 361.523 280.919 365.012 281.514 367.892C282.11 370.773 283.503 373.184 284.907 375.45C286.31 377.717 287.785 379.986 288.605 382.759C289.172 384.68 289.758 387.217 291.24 387.331C292.477 387.429 293.333 385.65 293.779 384.032C295.899 376.298 294.474 366.376 289.938 360.756Z" fill="#FFB48C"/>
<path d="M289.287 363.873C288.742 363.214 288.081 362.609 287.363 362.67C286.516 362.741 285.834 363.744 285.528 364.852C285 366.763 285.366 368.959 286.068 370.755C286.77 372.552 287.782 374.065 288.662 375.703C289.54 377.341 290.309 379.205 290.396 381.252C290.422 381.883 290.386 382.528 290.519 383.133C290.654 383.737 291.025 384.301 291.476 384.274C291.98 384.244 292.315 383.528 292.481 382.859C292.937 381.022 292.766 378.901 292.028 377.25C291.558 376.196 290.849 375.237 290.806 373.994C290.772 373.025 291.213 372.248 291.78 371.782C292.098 371.518 292.387 371.677 292.506 371.188C292.588 370.85 292.211 369.833 292.122 369.512C291.522 367.348 290.543 365.389 289.287 363.873Z" fill="#F2854C"/>
<path d="M372.4 536.392C372.525 527.257 371.985 518.003 370.963 508.716C370.054 500.465 368.595 495.417 369.772 487.365C370.977 479.122 375.066 471.901 380.621 468.203" stroke="#E6F2F4" stroke-width="0.4903" stroke-miterlimit="10" stroke-linecap="round" stroke-linejoin="round"/>
<path d="M377.259 583.682C374.503 577.792 371.842 574.533 367.75 572.797" stroke="#E6F2F4" stroke-width="0.4903" stroke-miterlimit="10" stroke-linecap="round" stroke-linejoin="round"/>
<path opacity="0.36" d="M384.548 521.812C385.358 522.224 386.231 522.332 387.051 522.7C387.871 523.068 388.686 523.798 388.956 524.943C389.274 526.287 388.746 527.729 388.136 528.86C387.526 529.992 386.788 531.082 386.6 532.477C386.393 534.004 386.892 535.615 386.61 537.117C386.27 538.917 384.939 539.978 384.302 541.613C383.512 543.639 383.888 546.253 383.109 548.286C382.063 551.008 379.495 551.552 377.621 553.186C375.666 554.892 374.46 557.853 373.535 560.808C372.609 563.764 371.866 566.881 370.494 569.474C369.701 570.97 368.628 572.321 367.314 572.618C366.253 572.858 365.183 572.385 364.165 571.903C362.69 571.203 361.185 570.45 359.985 569.059C358.589 567.441 357.713 565.067 357.289 562.598C356.122 555.82 358.155 548.813 360.447 542.622C362.668 536.624 365.207 530.775 368.592 525.959C371.08 522.42 374.053 519.455 377.383 517.689C378.646 517.02 380.083 516.051 381.221 517.459C382.443 518.972 382.858 520.958 384.548 521.812Z" fill="#1994B3"/>
<path d="M360.73 526.601C363.121 522.626 366.842 520.843 370.371 519.239C373.214 517.945 376.059 516.652 378.902 515.355C379.502 515.082 380.136 514.805 380.756 514.973C382.226 515.372 382.791 518.195 382.108 520.066C381.426 521.937 379.972 522.974 378.562 523.683C377.151 524.392 375.644 524.929 374.487 526.263C372.421 528.638 372.025 532.876 372.334 536.594C372.643 540.312 373.494 543.98 373.315 547.715C373.016 554.047 370.169 563.119 367.181 567.887C365.805 570.086 360.081 570.292 358.504 568.374C355.768 565.044 354.914 555.733 355.601 548.918C356.257 542.437 357.68 531.663 360.73 526.601Z" fill="#FFB48C"/>
<path d="M381.941 523.111C382.913 522.635 383.914 522.162 384.926 522.311C385.939 522.46 386.973 523.385 387.282 524.908C387.622 526.593 386.961 528.447 386.035 529.45C385.109 530.457 383.974 530.818 382.879 531.227C379.12 532.632 375.487 534.847 372.112 537.799C370.67 539.058 369.247 540.467 367.646 541.095C366.045 541.72 364.184 541.412 363.012 539.589C359.263 533.75 366.103 531.331 368.314 530.133C372.835 527.684 377.377 525.34 381.941 523.111Z" fill="#FFB48C"/>
<path d="M380.201 532.67C381.172 532.197 382.173 531.721 383.186 531.869C384.198 532.018 385.233 532.947 385.541 534.467C385.881 536.152 385.221 538.006 384.295 539.012C383.369 540.015 382.233 540.38 381.139 540.789C377.38 542.194 373.746 544.409 370.371 547.361C368.929 548.62 367.506 550.029 365.908 550.657C364.307 551.282 362.446 550.974 361.274 549.151C357.525 543.311 364.365 540.893 366.576 539.694C371.094 537.239 375.637 534.899 380.201 532.67Z" fill="#FFB48C"/>
<path d="M377.697 541.496C378.536 541.084 379.404 540.675 380.279 540.803C381.155 540.932 382.052 541.735 382.317 543.053C382.611 544.511 382.04 546.116 381.239 546.984C380.439 547.851 379.455 548.166 378.51 548.52C375.26 549.736 372.116 551.654 369.193 554.204C367.947 555.295 366.715 556.514 365.331 557.054C363.947 557.595 362.334 557.328 361.321 555.751C358.076 550.698 363.995 548.608 365.907 547.571C369.818 545.454 373.748 543.427 377.697 541.496Z" fill="#FFB48C"/>
<path opacity="0.36" d="M291.945 535.596C294.04 537.673 295.892 540.247 298.144 541.966C301.936 544.863 306.433 545.052 310.73 545.677C324.583 547.693 337.755 554.833 350.736 561.908C353.42 563.37 357.559 566.2 359.539 569.128C342.806 561.232 329.201 554.411 310.874 550.209C306.754 549.264 297.498 546.738 293.777 544.083C291.031 542.121 288.471 539.429 286.631 535.927C283.33 529.649 290.11 533.776 291.945 535.596Z" fill="#1994B3"/>
<path d="M281.186 529.36C279.409 529.931 275.122 529.579 273.81 531.592C272.504 533.598 274.047 538.137 273.437 540.876C272.781 543.824 273.005 547.07 273.237 550.18C273.683 556.158 273.912 560.832 275.047 566.978C275.216 567.89 275.901 572.061 276.873 571.919C280.036 571.446 284.171 570.832 287.334 570.359C288.327 570.359 292.289 558.258 292.988 556.553C294.447 552.99 297.251 547.134 296.489 546.229C294.439 543.794 290.953 538.059 289.13 535.243C287.025 531.997 284.327 528.353 281.186 529.36Z" fill="#FFB48C"/>
<path d="M277.924 476.619C280.584 495.386 277.018 501.063 274.773 519.928C272.528 538.793 271.161 558.884 277.553 575.949" stroke="#E6F2F4" stroke-width="0.5" stroke-miterlimit="10" stroke-linecap="round" stroke-linejoin="round"/>
<path d="M277.08 507.586C277.08 488.67 274.541 477.813 266.336 464.996" stroke="#E6F2F4" stroke-width="0.5" stroke-miterlimit="10" stroke-linecap="round" stroke-linejoin="round"/>
<path d="M262.203 609.694C263.262 595.956 269.108 583.099 277.55 575.949C273.005 581.788 271.929 587.803 271.816 595.132" stroke="#E6F2F4" stroke-width="0.5" stroke-miterlimit="10" stroke-linecap="round" stroke-linejoin="round"/>
<path d="M355.598 546.49C354.509 554.734 356.045 561.738 358.858 569.128" stroke="#E6F2F4" stroke-width="0.5" stroke-miterlimit="10" stroke-linecap="round" stroke-linejoin="round"/>
<path d="M373.808 597.385C373.714 591.755 373.246 586.476 372.101 581.073C371.515 578.314 370.03 575.254 367.985 573.407L333.676 557.314" stroke="#E6F2F4" stroke-width="0.5" stroke-miterlimit="10" stroke-linecap="round" stroke-linejoin="round"/>
<path d="M370.821 510.195C366.035 501.225 364.212 494.17 365.345 484.184" stroke="#E6F2F4" stroke-width="0.4106" stroke-miterlimit="10" stroke-linecap="round" stroke-linejoin="round"/>
<path d="M296.491 546.227C296.491 546.227 293.379 558.975 286.613 571.92L370.824 627.634" stroke="#E6F2F4" stroke-width="0.5" stroke-miterlimit="10" stroke-linecap="round" stroke-linejoin="round"/>
<path d="M238.723 1254.97C242.081 1256.19 244.637 1260.84 244.613 1265.7" stroke="white" stroke-miterlimit="10" stroke-linecap="round" stroke-linejoin="round"/>
<path d="M247.266 1252.43C251.451 1253.7 254.636 1258.54 254.607 1263.6" stroke="white" stroke-miterlimit="10" stroke-linecap="round" stroke-linejoin="round"/>
<path d="M256.168 1248.56C260.354 1249.83 262.531 1254.45 263.326 1260.33" stroke="white" stroke-miterlimit="10" stroke-linecap="round" stroke-linejoin="round"/>
<path d="M384.286 1256.73C379.337 1255.66 373.938 1258.24 371.086 1263.03" stroke="white" stroke-width="0.7442" stroke-miterlimit="10" stroke-linecap="round" stroke-linejoin="round"/>
<path d="M380.061 1251.41C373.766 1247.95 368.62 1253.44 365.766 1258.23" stroke="white" stroke-width="0.7442" stroke-miterlimit="10" stroke-linecap="round" stroke-linejoin="round"/>
<path d="M378.062 1245.7C371.767 1242.24 365.421 1245.78 362.301 1251.98" stroke="white" stroke-width="0.7442" stroke-miterlimit="10" stroke-linecap="round" stroke-linejoin="round"/>
<path d="M294.46 1275.35C281.859 1275.4 269.259 1275.44 256.659 1275.49C245.503 1275.53 234.347 1275.64 223.194 1275.41C222.451 1275.39 222.451 1279.59 223.194 1279.59C230.861 1279.59 238.526 1279.58 246.193 1279.58C255.668 1279.58 265.146 1279.58 274.621 1279.58C281.288 1279.58 287.952 1279.59 294.619 1279.6C294.91 1279.6 294.693 1275.35 294.46 1275.35Z" fill="white"/>
<path d="M393.895 1275.41C382.542 1278.94 355.627 1275.27 349.067 1275.41C348.353 1275.43 348.353 1279.6 349.067 1279.6C361.884 1279.58 384.058 1279.58 393.895 1279.6C394.609 1279.6 394.592 1275.19 393.895 1275.41Z" fill="white"/>
<path d="M288.614 114.383C277.294 134.082 258.905 153.619 245.751 170.995C230.161 191.582 213.734 211.183 198.588 232.399C197.65 233.638 195.878 237.258 195.757 235.506C195.637 233.77 193.373 214.344 193.37 203.703C193.368 196.145 191.251 183.568 193.298 176.327C195.736 167.709 208.787 165.932 214.701 162.146C226.718 154.453 238.722 146.723 250.729 138.999C256.571 135.24 262.411 131.485 268.255 127.733C273.977 124.062 282.293 115.808 288.614 114.383Z" fill="#0A2C4A"/>
<path d="M174.902 143.787C175.51 142.437 193.499 135.064 198.178 133.555C208.614 130.188 219.058 126.871 229.51 123.609C242.397 119.583 255.299 115.632 268.21 111.758C273.317 110.225 278.44 108.817 283.566 107.415C288.007 106.203 298.382 102.586 298.705 103.923C299.026 105.257 291.264 123.491 286.859 132.362C281.466 143.224 276.892 155.017 271.993 166.327C267.101 180.031 260.449 192.99 254.773 206.093C251.81 212.935 248.847 219.778 245.886 226.62C243.639 231.811 241.819 240.814 237.681 238.582C235.022 237.146 216.97 207.991 215.598 209.913C239.374 178.475 263.149 147.036 286.927 115.598C255.718 135.841 195.582 176.529 193.299 176.327C192.146 176.225 184.58 162.649 180.313 155.699C177.525 151.157 173.535 146.82 174.902 143.787Z" fill="#1994B3"/>
<path d="M188.156 245.545C186.294 248.5 184.433 251.458 182.574 254.42" stroke="#0A2C4A" stroke-width="2" stroke-linecap="round" stroke-linejoin="round"/>
<path d="M171.492 272.246C156.794 296.241 142.716 320.955 131.089 348.003C115.116 385.162 103.866 427.37 103.871 470.747C103.876 514.124 116.261 558.645 140.591 585.48C160.456 607.391 188.576 615.108 212.159 603.913" stroke="#0A2C4A" stroke-width="2" stroke-linecap="round" stroke-linejoin="round" stroke-dasharray="7 7"/>
<path d="M219.941 599.395C222.451 597.656 224.884 595.674 227.225 593.441" stroke="#0A2C4A" stroke-width="2" stroke-linecap="round" stroke-linejoin="round"/>
<path d="M965.044 1279.58H34.9414V1300H965.044V1279.58Z" fill="#0A2C4A"/>
<path d="M872.328 1223.47C872.307 1223.51 872.287 1223.56 872.271 1223.61C872.126 1224.05 872.128 1224.58 872.135 1225.09C872.377 1241.67 872.439 1258.26 872.772 1274.84C872.789 1275.71 872.625 1277.68 872.856 1278.46C873.423 1280.34 895.236 1279.31 901.099 1279.31C909.921 1279.31 918.744 1279.31 927.568 1279.31C927.898 1279.31 928.229 1279.31 928.559 1279.31C928.836 1279.31 928.166 1271.33 928.084 1270.63C927.662 1267.04 926.912 1263.41 925.331 1260.94C923.956 1258.78 922.136 1257.78 920.335 1257.25C915.216 1255.74 910.001 1254.23 905.039 1251.44C901.852 1249.65 896.827 1247.4 894.696 1242.79C892.121 1237.21 892.347 1230.15 891.537 1223.42C891.513 1223.22 891.484 1223.01 891.397 1222.88C891.306 1222.75 891.176 1222.74 891.055 1222.75C884.765 1222.91 879.952 1222.83 873.659 1222.75C873.182 1222.74 872.618 1222.81 872.328 1223.47Z" fill="#000021"/>
<path d="M917.144 1255.48C913.786 1256.7 911.23 1261.35 911.254 1266.21" stroke="white" stroke-miterlimit="10" stroke-linecap="round" stroke-linejoin="round"/>
<path d="M908.736 1252.43C904.548 1253.7 901.366 1258.54 901.395 1263.6" stroke="white" stroke-miterlimit="10" stroke-linecap="round" stroke-linejoin="round"/>
<path d="M901.069 1248.07C896.883 1249.33 894.706 1253.95 893.91 1259.84" stroke="white" stroke-miterlimit="10" stroke-linecap="round" stroke-linejoin="round"/>
<path d="M836.542 1223.47C836.564 1223.52 836.583 1223.57 836.6 1223.62C836.745 1224.05 836.742 1224.59 836.735 1225.09C836.494 1241.67 836.431 1258.27 836.099 1274.84C836.082 1275.72 836.246 1277.69 836.014 1278.46C835.448 1280.35 813.635 1279.32 807.771 1279.32C798.949 1279.32 803.995 1279.32 795.171 1279.32C794.841 1279.32 794.51 1279.32 794.18 1279.32C793.903 1279.32 794.573 1271.33 794.655 1270.64C795.079 1267.04 795.827 1263.42 797.408 1260.94C798.783 1258.79 800.603 1257.78 802.404 1257.25C807.523 1255.74 812.044 1247.41 814.173 1242.8C816.748 1237.22 816.521 1230.15 817.331 1223.43C817.355 1223.23 817.384 1223.02 817.471 1222.89C817.563 1222.75 817.693 1222.75 817.813 1222.75C824.104 1222.92 828.919 1222.84 835.209 1222.75C835.689 1222.74 836.253 1222.82 836.542 1223.47Z" fill="#000021"/>
<path d="M803.418 1256.09C807.415 1255.02 811.777 1257.6 814.082 1262.39" stroke="white" stroke-width="0.6689" stroke-miterlimit="10" stroke-linecap="round" stroke-linejoin="round"/>
<path d="M808.746 1250.77C813.831 1247.32 817.988 1252.8 820.293 1257.59" stroke="white" stroke-width="0.6689" stroke-miterlimit="10" stroke-linecap="round" stroke-linejoin="round"/>
<path d="M812.91 1245.06C817.995 1241.6 823.123 1245.14 825.643 1251.34" stroke="white" stroke-width="0.6689" stroke-miterlimit="10" stroke-linecap="round" stroke-linejoin="round"/>
<path d="M803.695 692.289C799.128 700.884 796.994 724.741 794.627 767.506C790.371 844.347 813.973 1238.49 813.973 1238.49H836.531C836.531 1238.49 847.069 1122.34 846.079 1075.69C845.895 1067.02 844.384 1040.14 844.384 1040.14L855.788 853.435L867.98 1041.52C867.98 1041.52 864.73 1070.24 864.581 1078.86C863.92 1116.74 871.409 1238.5 871.409 1238.5H893.948C893.948 1238.5 925.127 884.343 915.686 760.519C914.282 742.13 912.93 722.343 907.495 688.49C902.77 659.031 816.562 668.068 803.695 692.289Z" fill="#DC2400"/>
<path d="M822.81 383.217C823.736 393.622 824.358 404.389 822.32 414.625C820.57 423.423 816.946 431.264 815.495 440.18C812.486 458.647 819.781 478.38 830.508 488.845C841.233 499.315 854.64 501.973 867.487 501.449C877.784 501.027 888.434 498.521 896.969 489.997C905.504 481.473 911.368 465.722 908.978 450.913C906.702 436.806 897.929 427.009 894.129 413.635C887.913 391.768 892.6 367.5 885.36 346.335C880.176 331.181 866.783 322.502 855.301 321.945C849.787 321.678 849.922 326.234 845.233 329.378C839.75 333.056 833.573 332.644 828.23 337.328C824.064 340.979 818.795 346.895 819.446 353.721C820.567 365.48 822.477 379.492 822.81 383.217Z" fill="#1E100A"/>
<path d="M910.867 707.909C910.308 701.56 904.733 674.455 905.939 634.145C908.434 550.765 922.563 458.696 918.464 456.697C907.345 451.27 882.371 446.42 876.341 439.051C862.709 422.395 858.215 423.364 845.12 440.926C838.01 450.46 799.65 456.842 796.868 465.593C796.364 467.173 800.877 479.449 796.827 539.546C795.079 565.466 809.164 596.979 805.849 650.602C804.089 679.092 799.522 702.823 799.074 707.906C798.997 708.767 816.443 712.428 818.049 712.735C846.359 718.139 874.957 714.559 903.137 709.402C905.63 708.949 908.35 707.909 910.867 707.909Z" fill="#FDDD50"/>
<path opacity="0.36" d="M907.827 595.111C907.513 599.974 906.684 615.631 906.443 620.527C906.033 620.831 896.526 625.36 880.715 628.464C875.666 629.453 863.379 629.99 859.201 633.31C851.218 639.649 818.618 688.385 799.281 706.251C800.511 699.023 805.574 678.051 805.815 652.79C814.495 634.688 826.671 619.862 840.486 609.596C857.339 597.1 876.531 591.257 895.603 591.122C899.147 591.089 902.812 591.291 905.995 593.453C906.525 593.827 907.176 594.402 907.827 595.111Z" fill="#FDDD50"/>
<path d="M876.336 439.054C876.336 439.054 874.745 474.97 861.53 474.97C847.372 474.97 845.373 446.433 845.115 440.928C845.094 440.354 845.094 440.017 845.094 440.017L846.856 405.738L875.066 400.389L876.336 439.054Z" fill="#FFB48C"/>
<path d="M875.321 408.21C875.321 408.21 873.742 428.369 859.929 438.287C856.729 440.584 851.334 441.476 845.115 440.928C845.094 440.354 845.094 440.017 845.094 440.017L846.856 405.738L875.066 400.389L875.321 408.21Z" fill="#F2854C"/>
<path d="M875.475 401.493C871.615 426.126 853.868 434.91 845.096 434.91C834.242 434.91 827.406 412.33 827.406 376.002C827.406 339.673 830.912 333.412 853.224 333.412C875.536 333.412 881.035 366.009 875.475 401.493Z" fill="#FFB48C"/>
<path d="M833.815 387.109C835.316 387.109 836.532 384.853 836.532 382.07C836.532 379.287 835.316 377.031 833.815 377.031C832.314 377.031 831.098 379.287 831.098 382.07C831.098 384.853 832.314 387.109 833.815 387.109Z" fill="#0C0B0B"/>
<path d="M834.242 368.647C834.242 368.647 831.322 366.678 827.406 369.761" stroke="#1E100A" stroke-width="0.684" stroke-miterlimit="10" stroke-linecap="round" stroke-linejoin="round"/>
<path d="M853.871 382.064C853.871 384.847 855.089 387.106 856.588 387.106C858.09 387.106 859.306 384.85 859.306 382.064C859.306 379.281 858.088 377.025 856.588 377.025C855.089 377.022 853.871 379.278 853.871 382.064Z" fill="#0C0B0B"/>
<path d="M851.336 368.644C851.336 368.644 855.348 366.854 859.264 369.937" stroke="#1E100A" stroke-width="0.684" stroke-miterlimit="10" stroke-linecap="round" stroke-linejoin="round"/>
<path d="M865.601 370.702C867.935 375.974 872.265 384.683 876.815 382.063C878.517 381.083 878.194 391.485 878.616 393.984C879.086 396.784 883.602 398.679 885.866 391.451C890.384 377.031 888.947 369.338 885.895 354.211C882.77 338.73 877.461 328.173 866.197 324.559C855.221 321.037 841.963 318.673 832.562 329.369C826.911 326.89 823.082 332.486 821.503 337.275C818.072 347.676 819.191 356.123 821.578 367.055C821.77 367.933 822.007 368.858 822.532 369.425C823.234 370.182 824.28 370.074 825.059 369.473C825.838 368.871 826.402 367.872 826.923 366.879C828.929 363.053 831.277 356.237 833.365 352.705C834.387 356.197 837.503 362.641 847.86 363.843C853.162 364.468 862.233 363.1 865.601 370.702Z" fill="#1E100A"/>
<path d="M838.5 415.855C842.237 418.223 846.695 418.253 850.449 415.933" stroke="#1E100A" stroke-width="0.684" stroke-miterlimit="10" stroke-linecap="round" stroke-linejoin="round"/>
<path d="M842.163 385.053C841.814 389.46 840.924 393.786 839.545 397.778C839.007 399.332 838.388 401.135 838.916 402.692C839.465 404.313 840.941 404.745 842.212 404.978" stroke="#1E100A" stroke-width="0.6414" stroke-miterlimit="10" stroke-linecap="round" stroke-linejoin="round"/>
<path d="M877.297 378.654C879.127 377.145 881.854 377.334 882.987 379.847C884.003 382.096 883.366 385.027 882.705 387.523C881.382 392.518 880.051 397.54 878.177 402.177C877.664 403.446 876.953 404.828 875.913 404.922C874.713 405.034 873.833 403.382 873.338 401.846C870.908 394.314 871.769 383.214 877.297 378.654Z" fill="#FFB48C"/>
<path d="M876.959 382.392C877.482 381.69 878.121 381.021 878.847 381.041C879.51 381.062 880.117 381.697 880.431 382.517C880.744 383.338 880.795 384.314 880.701 385.236C880.202 390.055 876.108 393.142 875.98 398.005C875.966 398.518 875.999 399.045 875.879 399.532C875.761 400.018 875.43 400.457 875.069 400.383C874.738 400.315 874.521 399.869 874.372 399.451C873.851 397.981 873.653 396.293 873.786 394.665C873.921 393.03 874.888 391.409 874.77 389.805C874.669 388.444 874.184 388.201 874.632 386.749C875.134 385.131 876.057 383.601 876.959 382.392Z" fill="#F2854C"/>
<path d="M872.848 1275.41C881.202 1275.73 889.564 1275.82 897.921 1275.82C907.227 1275.88 916.546 1275.97 925.848 1275.55C926.687 1275.51 927.526 1275.46 928.363 1275.41C929.074 1275.36 929.076 1279.6 928.363 1279.6C917.807 1279.58 884.192 1279.6 872.846 1279.6C872.134 1279.6 872.134 1275.38 872.848 1275.41Z" fill="white"/>
<path d="M794.252 1275.41C801.208 1275.13 806.694 1275.93 813.654 1275.87C817.177 1275.84 822.175 1274.96 825.697 1274.98C829.114 1275 832.579 1274.79 835.976 1275.4C836.01 1275.4 836.043 1275.41 836.077 1275.42C836.468 1275.49 836.786 1279.61 836.077 1279.61C828.586 1279.59 799.328 1279.59 794.252 1279.61C793.544 1279.6 794.185 1275.41 794.252 1275.41Z" fill="white"/>
<path d="M997.294 427.845L954.41 367.777L713.006 705.915L755.89 765.983L997.294 427.845Z" fill="#1994B3"/>
<path d="M959.854 441.029L945 420.223L727.027 725.539L741.882 746.346L959.854 441.029Z" fill="#ABDBE8"/>
<path d="M977.743 455.238L934.859 395.17L927.112 406.021L969.996 466.089L977.743 455.238Z" fill="#0A2C4A"/>
<path d="M997.302 427.838L954.418 367.77L937.688 391.203L980.572 451.271L997.302 427.838Z" fill="#0A2C4A"/>
<path d="M704.783 785.552L699.055 777.528L713.012 705.932L755.898 766.002L704.783 785.552Z" fill="#FFB48C"/>
<path d="M695.315 790.784C693.733 788.569 693.733 784.975 695.315 782.76L699.052 777.525L704.781 785.55L701.044 790.784C699.46 793 696.897 793 695.315 790.784Z" fill="#0C0B0B"/>
<path d="M997.699 427.299C992.079 435.171 977.921 428.106 966.078 411.521C954.235 394.932 949.194 375.105 954.814 367.229C960.434 359.357 974.592 366.418 986.435 383.007C998.278 399.596 1003.32 419.427 997.699 427.299Z" fill="#0A2C4A"/>
<path d="M853.699 595.976C853.596 595.729 849.287 597.742 848.86 597.793C848.354 597.857 847.843 597.803 847.334 597.749C843.79 597.374 840.101 596.82 836.487 596.874C833.581 596.918 830.382 597.276 827.6 598.489C827.202 598.661 826.806 598.863 826.433 599.12C825.625 599.677 822.835 601.565 822.753 602.987C822.72 603.585 822.927 604.149 823.139 604.669C823.501 605.56 823.971 606.513 824.689 606.705C825.126 606.824 825.569 606.634 825.999 606.466C828.243 605.591 830.601 605.29 832.921 605.588C831.566 605.415 829.244 607.046 827.86 607.57C826.003 608.276 823.802 609.356 821.005 609.721C817.524 610.177 815.306 610.42 811.824 610.677C811.568 610.694 811.303 610.717 811.079 610.89C810.421 611.396 810.565 613.591 810.867 614.348C811.091 614.912 811.6 615.111 812.06 615.135C813.676 615.216 820.405 615.445 822.58 615.483C824.918 615.523 826.298 615.53 827.539 615.179C824.6 616.009 821.799 617.654 818.867 618.549C816.499 619.272 809.432 620.089 808.948 621.116C808.564 621.93 808.955 623.328 809.143 624.145C809.493 625.641 810.151 626.236 811.347 626.009C813.162 625.665 814.954 625.452 816.791 625.27C818.486 625.101 820.183 624.932 821.878 624.763C820 624.949 818.146 625.435 816.321 626.067C815.388 626.391 814.001 626.513 813.247 627.532C812.738 628.221 812.593 630.062 812.791 630.96C813.312 633.304 818.324 631.46 819.631 631.291C821.403 631.058 823.313 630.494 825.094 630.572L825.637 630.596C824.294 631.041 818.763 631.089 818.283 633.186C818.076 634.098 818.79 635.594 819.269 636.148C819.863 636.833 820.704 636.901 821.466 636.772C823.098 636.496 824.728 636.242 826.363 635.952L837.914 633.909L853.576 623.834L862.196 616.337C862.208 616.354 853.731 596.05 853.699 595.976Z" fill="#FFB48C"/>
<path d="M766.438 696.883C765.635 703.333 768.83 709.247 770.486 715.373C771.766 720.104 772.145 725.309 771.569 730.307C771.34 732.296 770.638 734.657 769.203 734.795C767.477 734.96 766.657 731.813 766.727 729.392C766.797 726.97 767.057 724.079 765.71 722.559C764.55 731.425 766.308 740.459 767.771 749.236C767.947 750.296 768.118 751.421 767.875 752.454C767.631 753.488 766.807 754.335 766.083 753.94C765.608 753.68 765.329 753.005 765.097 752.37C762.749 745.98 761.162 739.044 760.422 731.931C760.237 738.962 760.637 746.027 761.608 752.93C761.78 754.139 761.968 755.379 761.804 756.588C761.64 757.797 761.025 758.982 760.157 759.175C758.556 759.53 757.657 756.72 757.322 754.498C756.719 750.489 756.116 746.477 755.513 742.468C755.663 743.464 755.559 744.656 755.624 745.68C755.687 746.69 755.769 747.696 755.86 748.699C756.008 750.293 756.143 751.89 756.244 753.495C756.278 754.032 756.504 754.852 756.304 755.362C755.967 756.227 754.742 755.946 754.202 755.808C753.324 755.578 752.936 755.014 752.709 753.788C751.757 748.635 750.8 743.454 750.443 738.152C750.665 741.462 750.971 744.778 751.075 748.105C751.106 749.155 750.185 749.074 749.681 748.929C748.782 748.668 748.16 748.128 747.933 746.838C747.422 743.934 746.882 741.036 746.424 738.111C745.862 734.528 745.43 730.898 745.269 727.234C744.815 716.906 746.53 706.717 748.529 696.856C748.861 695.214 749.112 691.766 750.173 691.135C751.157 690.551 754.802 692.763 755.899 693.151C756.784 693.455 766.459 696.697 766.438 696.883Z" fill="#FFB48C"/>
<path d="M929.767 522.455C929.767 522.455 941.099 578.797 935.756 593.764C930.413 608.732 855.47 625.365 855.47 625.365L847.926 597.827C847.926 597.827 902.148 574.379 905.888 566.895C907.339 563.991 906.592 554.92 906.592 554.92L929.767 522.455Z" fill="#FDDD50"/>
<path d="M890.396 577.605L856.473 625.122C855.798 625.291 855.46 625.359 855.46 625.359L847.938 597.835C847.938 597.835 850.903 596.551 855.532 594.491C864.333 590.54 879.088 583.718 890.396 577.605Z" fill="#1994B3"/>
<path d="M935.808 592.655C934.767 595.299 933.166 597.585 930.772 599.318C918.917 607.893 905.817 611.398 892.901 615.383C882.488 618.598 872.009 621.405 861.502 623.938C859.826 624.339 858.146 624.704 856.473 625.123C855.798 625.292 855.46 625.359 855.46 625.359L847.938 597.835C847.938 597.835 850.903 596.552 855.532 594.492C864.333 590.541 879.088 583.719 890.396 577.606C898.425 573.283 904.694 569.298 905.899 566.9C907.346 563.996 906.598 554.911 906.598 554.911L932.139 519.137C932.139 519.137 935.295 555.158 936.295 565.583C937.151 574.509 938.793 585.063 935.808 592.655Z" fill="#FDDD50"/>
<path opacity="0.36" d="M935.816 592.663C934.755 595.297 933.163 597.594 930.776 599.316C926.171 602.659 921.349 605.226 916.455 607.354C916.021 607.354 915.635 607.455 915.273 607.556C916.165 604.753 920.385 602.524 922.314 600.971C924.893 598.843 927.497 596.58 929.378 593.271C932.127 588.441 933.019 581.957 932.729 575.811C932.44 569.63 914.116 561.525 910.379 565.004C902.712 572.13 894.442 578.344 886.365 583.24C875.322 589.961 864.569 594.115 856.058 594.554C855.889 594.554 855.72 594.554 855.527 594.487C864.328 590.535 879.083 583.713 890.391 577.601L906.594 554.906L929.764 522.451L932.102 519.209C932.102 519.209 932.102 519.243 932.127 519.277C932.344 521.708 935.333 555.514 936.298 565.578C937.142 574.494 938.781 585.064 935.816 592.663Z" fill="#FDDD50"/>
<path d="M894.48 575.083C899.479 569.234 905.892 565.806 912.402 565.502C918.912 565.202 925.472 568.025 930.735 573.398" stroke="#E6F2F4" stroke-width="0.4903" stroke-miterlimit="10" stroke-linecap="round" stroke-linejoin="round"/>
<path d="M904.504 560.633C905.333 563.851 905.396 564.284 906.36 566.469C910.421 566.509 914.276 570.089 916.219 575.084" stroke="#E6F2F4" stroke-width="0.4903" stroke-miterlimit="10" stroke-linecap="round" stroke-linejoin="round"/>
<path d="M796.867 465.598C791.476 478.884 762.635 568.848 760.337 581.587C754.847 612.019 749.722 655.669 746.457 697.107L766.638 698.559C767.686 680.579 783.865 604.701 783.865 604.701C783.865 604.701 809.231 538.214 809.036 537.079L796.867 465.598Z" fill="#FDDD50"/>
</svg>
