<svg width="1690" height="1402" viewBox="0 0 1690 1402" fill="none" xmlns="http://www.w3.org/2000/svg">
<path d="M1689.91 294.953V330.964L1524.69 558.876L1206.99 540.945L842.747 956.345L461.595 873.741L14.521 1295.81L0 1280.43L455.186 850.717L835.053 933.04L1197.89 519.256L1514.34 537.106L1689.91 294.953Z" fill="url(#paint0_linear_519_1245)"/>
<path d="M894.005 932.754C900.594 963.192 881.266 993.206 850.827 999.799C820.392 1006.39 790.375 987.059 783.786 956.62C777.194 926.184 796.526 896.167 826.962 889.579C857.399 882.986 887.413 902.318 894.005 932.754Z" fill="white"/>
<path d="M853.065 1010.13C816.98 1017.94 781.264 994.944 773.45 958.86C765.637 922.772 788.639 887.055 824.723 879.244C860.811 871.426 896.527 894.428 904.338 930.515C912.154 966.601 889.152 1002.32 853.065 1010.13ZM829.199 899.909C804.511 905.253 788.773 929.689 794.116 954.381C799.462 979.072 823.898 994.81 848.59 989.464C873.281 984.117 889.019 959.681 883.673 934.992C878.327 910.302 853.89 894.563 829.199 899.909Z" fill="#94BCFC"/>
<path d="M1257.44 521.733C1264.04 552.17 1244.7 582.186 1214.26 588.777C1183.83 595.367 1153.82 576.035 1147.22 545.598C1140.63 515.161 1159.96 485.144 1190.4 478.554C1220.84 471.964 1250.85 491.296 1257.44 521.733Z" fill="white"/>
<path d="M1216.5 599.117C1180.42 606.93 1144.7 583.929 1136.89 547.843C1129.07 511.757 1152.08 476.041 1188.16 468.228C1224.25 460.414 1259.96 483.414 1267.78 519.502C1275.59 555.588 1252.59 591.303 1216.5 599.117ZM1192.64 488.893C1167.94 494.239 1152.21 518.676 1157.56 543.367C1162.9 568.058 1187.34 583.796 1212.03 578.45C1236.72 573.102 1252.46 548.665 1247.11 523.976C1241.76 499.284 1217.33 483.547 1192.64 488.893Z" fill="#C0D8FD"/>
<path d="M1571.58 534.311C1578.17 564.747 1558.83 594.765 1528.4 601.355C1497.96 607.945 1467.95 588.613 1461.35 558.176C1454.77 527.74 1474.1 497.723 1504.53 491.133C1534.97 484.543 1564.99 503.874 1571.58 534.311Z" fill="white"/>
<path d="M1530.64 611.687C1494.55 619.5 1458.84 596.5 1451.02 560.414C1443.21 524.327 1466.21 488.611 1502.3 480.797C1538.38 472.984 1574.1 495.985 1581.91 532.073C1589.72 568.16 1566.72 603.874 1530.64 611.687ZM1506.77 501.466C1482.08 506.812 1466.34 531.249 1471.69 555.94C1477.03 580.63 1501.47 596.367 1526.16 591.021C1550.85 585.675 1566.59 561.238 1561.24 536.549C1555.9 511.856 1531.46 496.12 1506.77 501.466Z" fill="#D2E3FD"/>
<path d="M513.196 855.523C519.788 885.959 500.456 915.975 470.017 922.568C439.581 929.156 409.564 909.825 402.972 879.389C396.383 848.95 415.716 818.933 446.151 812.344C476.59 805.752 506.607 825.084 513.196 855.523Z" fill="white"/>
<path d="M472.257 932.898C436.169 940.712 400.457 917.711 392.642 881.624C384.827 845.536 407.832 809.823 443.916 802.009C480.004 794.194 515.716 817.196 523.531 853.283C531.343 889.37 508.345 925.086 472.257 932.898ZM448.391 822.675C423.701 828.022 407.965 852.458 413.312 877.149C418.658 901.84 443.094 917.575 467.783 912.232C492.473 906.883 508.212 882.447 502.866 857.758C497.519 833.066 473.082 817.329 448.391 822.675Z" fill="#82AEFB"/>
<path d="M793.076 620.883H624.547V653.336H793.076V620.883Z" fill="#DEDEDE"/>
<path d="M1271.94 940.812H1111.05V971.792H1271.94V940.812Z" fill="#DEDEDE"/>
<path d="M1203.04 382.047C1194.05 373.211 1180.92 363.666 1163.86 353.292C1144.93 341.785 1124.82 332.099 1104.83 323.076C1081.54 312.563 1056.79 304.143 1032 297.034C1005.57 289.454 978.466 284.166 951.116 281.236C951.567 376.058 952.02 470.879 952.48 565.7C963.709 567.943 969.327 569.052 980.573 571.244C1029.34 582.388 1077.7 594.657 1125.58 609.056C1164.16 620.658 1202.58 636.356 1236.58 657.742C1265.11 675.683 1291.63 699.728 1309.36 728.88C1329.26 761.579 1337.54 797.911 1339.41 834.122C1341.47 874.105 1335.72 917.933 1315.92 955.143C1297.44 989.886 1269.82 1021.45 1237.96 1044.63C1201.3 1071.31 1159.78 1091.13 1117.58 1104.76C1069.67 1120.24 1019.09 1128.67 967.886 1133.74C968.193 1181.74 968.502 1229.76 968.816 1277.77C941.117 1279.93 913.419 1282 885.711 1283.98C885.828 1234.58 885.949 1185.2 886.066 1135.81C812.81 1134.24 740.302 1125.51 671.343 1104.61C606.072 1084.82 545.199 1053.59 488.84 1012.93C517.103 967.064 545.219 921.119 573.189 875.08C587.096 890.013 604.276 901.66 620.972 912.538C644.066 927.587 670.029 939.939 695.343 950.458C725.546 963.01 757.773 972.961 789.767 981.001C824.497 989.727 861.08 995.004 897.259 996.889C897.384 901.448 897.514 806.003 897.648 710.563C891.646 708.769 885.39 707.18 878.903 705.831C872.396 704.47 866.166 702.889 860.177 701.032C813.554 689.236 766.366 676.648 722.366 658.547C687.974 644.4 655.178 627.086 626.357 602.615C602.259 582.156 583.188 555.198 570.673 526.253C556.482 493.429 553.738 456.24 555.075 422.165C556.71 380.545 564.74 336.359 584.558 298.741C602.709 264.293 626.279 234.12 656.08 210.515C686.404 186.496 722.006 169.824 759.849 157.843C800.959 144.825 845.192 141.308 888.69 139.926C888.824 93.283 888.958 46.642 889.091 0C913.009 2.053 936.938 4.00199 960.871 5.84399C961.148 52.048 961.426 98.253 961.707 144.457C1019.95 152.251 1077.27 164.897 1131.32 187.342C1179.89 207.507 1227.34 231.021 1271.46 260.437C1248.79 301.049 1225.96 341.573 1203.04 382.047ZM725.579 406.319C724.786 440.145 738.182 476.358 766.852 496.887C805.64 524.662 852.504 538.779 897.878 551.475C898.012 460.628 898.152 369.779 898.292 278.932C853.942 280.178 805.578 283.459 769.22 312.006C740.802 334.322 726.394 371.466 725.579 406.319ZM1157.12 861.82C1156.12 825.126 1134.41 791.328 1101.73 774.885C1055.56 751.665 1003.9 736.632 953.249 723.721C953.695 814.401 954.143 905.083 954.6 995.765C1006.92 991.483 1061.6 982.908 1106.43 954.961C1138.1 935.215 1158.14 899.326 1157.12 861.82Z" fill="url(#paint1_linear_519_1245)"/>
<path d="M476.604 406.099H411.597C409.004 406.099 406.898 403.361 406.898 399.983C406.898 396.604 409.004 393.867 411.597 393.867H476.604C479.2 393.867 481.304 396.604 481.304 399.983C481.304 403.361 479.2 406.099 476.604 406.099Z" fill="#94C4FC"/>
<path d="M450.219 367.483V432.489C450.219 435.084 447.479 437.189 444.104 437.189C440.728 437.189 437.988 435.084 437.988 432.489V367.483C437.988 364.886 440.728 362.781 444.104 362.781C447.478 362.782 450.219 364.887 450.219 367.483Z" fill="#94C4FC"/>
<path d="M1132.22 51.369H1064.48C1061.78 51.369 1059.59 48.516 1059.59 44.997C1059.59 41.478 1061.78 38.625 1064.48 38.625H1132.22C1134.92 38.625 1137.11 41.478 1137.11 44.997C1137.11 48.516 1134.92 51.369 1132.22 51.369Z" fill="#94C4FC"/>
<path d="M1132.22 83.2596H1064.48C1061.78 83.2596 1059.59 80.4076 1059.59 76.8876C1059.59 73.3676 1061.78 70.5156 1064.48 70.5156H1132.22C1134.92 70.5156 1137.11 73.3676 1137.11 76.8876C1137.11 80.4076 1134.92 83.2596 1132.22 83.2596Z" fill="#94C4FC"/>
<path d="M1334.22 615.724H1290.88C1289.15 615.724 1287.75 613.899 1287.75 611.647C1287.75 609.397 1289.15 607.57 1290.88 607.57H1334.22C1335.95 607.57 1337.35 609.397 1337.35 611.647C1337.35 613.898 1335.95 615.724 1334.22 615.724Z" fill="#94C4FC"/>
<path d="M528.521 712.717C526.747 712.717 525.099 712.413 523.58 711.804C522.06 711.198 520.739 710.375 519.624 709.335C518.512 708.294 517.621 707.081 516.965 705.682C516.307 704.292 515.977 702.783 515.977 701.161C515.977 699.591 516.307 698.095 516.965 696.676C517.621 695.257 518.512 694.041 519.624 693.026C520.739 692.012 522.061 691.201 523.58 690.593C525.099 689.985 526.747 689.68 528.521 689.68C530.244 689.68 531.877 689.985 533.427 690.593C534.969 691.201 536.3 692.012 537.415 693.026C538.531 694.041 539.418 695.257 540.077 696.676C540.735 698.095 541.065 699.591 541.065 701.161C541.065 702.782 540.735 704.292 540.077 705.682C539.418 707.081 538.531 708.294 537.415 709.335C536.3 710.375 534.969 711.197 533.427 711.804C531.878 712.413 530.244 712.717 528.521 712.717ZM520.233 740.846L541.675 715.835L561.442 689.833L566.08 693.938L545.322 718.495L524.872 744.954L520.233 740.846ZM528.521 707.625C529.281 707.625 529.979 707.446 530.612 707.094C531.245 706.736 531.816 706.266 532.321 705.682C532.83 705.105 533.221 704.419 533.499 703.633C533.779 702.847 533.92 702.025 533.92 701.161C533.92 699.388 533.389 697.879 532.321 696.636C531.258 695.395 529.992 694.774 528.521 694.774C527.761 694.774 527.063 694.952 526.43 695.305C525.797 695.661 525.223 696.13 524.718 696.713C524.212 697.297 523.821 697.967 523.54 698.727C523.26 699.487 523.122 700.299 523.122 701.161C523.122 702.935 523.654 704.455 524.718 705.721C525.785 706.989 527.051 707.625 528.521 707.625ZM557.867 745.181C556.093 745.181 554.445 744.878 552.926 744.268C551.406 743.662 550.088 742.849 548.973 741.835C547.858 740.823 546.97 739.62 546.315 738.228C545.653 736.831 545.323 735.325 545.323 733.703C545.323 732.078 545.653 730.574 546.315 729.179C546.97 727.783 547.858 726.567 548.973 725.529C550.088 724.492 551.407 723.664 552.926 723.057C554.446 722.45 556.093 722.144 557.867 722.144C559.641 722.144 561.292 722.451 562.808 723.057C564.329 723.663 565.659 724.491 566.8 725.529C567.942 726.567 568.829 727.783 569.462 729.179C570.095 730.575 570.411 732.078 570.411 733.703C570.411 735.324 570.095 736.831 569.462 738.228C568.829 739.62 567.941 740.824 566.8 741.835C565.658 742.849 564.328 743.661 562.808 744.268C561.292 744.878 559.641 745.181 557.867 745.181ZM557.867 740.089C558.631 740.089 559.325 739.913 559.958 739.554C560.594 739.202 561.165 738.733 561.671 738.149C562.176 737.568 562.57 736.893 562.848 736.137C563.125 735.373 563.269 734.565 563.269 733.703C563.269 732.79 563.116 731.938 562.809 731.152C562.506 730.369 562.112 729.684 561.631 729.1C561.152 728.516 560.581 728.063 559.922 727.733C559.26 727.401 558.578 727.238 557.867 727.238C557.11 727.238 556.409 727.417 555.779 727.769C555.143 728.124 554.573 728.594 554.067 729.178C553.561 729.758 553.167 730.444 552.886 731.23C552.609 732.016 552.468 732.841 552.468 733.703C552.468 735.478 553 736.984 554.067 738.228C555.131 739.466 556.396 740.089 557.867 740.089Z" fill="#94C4FC"/>
<path d="M975.075 1265.39H419.137V1284.19H975.075V1265.39Z" fill="#668CF4"/>
<path d="M852.996 712.216C852.996 712.216 897.137 582.779 812.906 542.651C728.676 502.524 657.162 560.53 643.655 591.918C630.145 623.306 633.723 680.383 645.244 720.179C656.765 759.979 655.088 820.569 630.057 840.83C605.026 861.092 573.991 894.746 575.528 963.245C576.483 1005.75 742.759 854.535 742.759 854.535L852.996 712.216Z" fill="#2C323D"/>
<path d="M734.648 866.193C734.648 866.193 665.418 881.54 637.941 897.596C610.464 913.654 549.441 987.526 549.441 1019.28C549.441 1051.04 816.305 1080.72 816.305 1080.72L866.885 1265.39C866.885 1265.39 1001.77 1232.46 1017.83 1205.17C1033.88 1177.87 966.596 982.218 955.082 942.621C943.333 902.231 894.983 874.065 838.784 866.192C782.583 858.323 734.648 866.193 734.648 866.193Z" fill="#DEDCFD"/>
<path d="M833.979 865.559C833.979 865.559 832.427 949.702 765.696 952.197C698.963 954.695 712.852 871.492 712.852 871.492C712.852 871.492 761.664 851.716 833.979 865.559Z" fill="#DBA585"/>
<path d="M862.22 611.648C862.22 611.648 885.822 746.98 818.598 844.74C748.979 945.984 862.22 611.648 862.22 611.648Z" fill="#2C323D"/>
<path d="M819.664 806.064C819.664 806.064 815.022 846.313 822.772 871.344C830.519 896.374 720.736 897.07 720.797 876.484C720.869 853.104 732.03 833.57 721.515 793.494C711 753.421 819.664 806.064 819.664 806.064Z" fill="#DBA585"/>
<path d="M734.504 811.203C734.504 811.203 769.163 847.317 813.486 814.971C813.486 814.971 809.827 838.054 777.95 841.032C746.07 844.013 734.504 811.203 734.504 811.203Z" fill="#997761"/>
<path d="M777.914 564.723C777.914 564.723 865.514 590.645 852.999 712.213C840.486 833.783 783.276 827.528 777.914 828.422C772.549 829.312 704.613 833.783 683.158 686.292C661.705 538.799 777.914 564.723 777.914 564.723Z" fill="#DBA585"/>
<path d="M755.301 618.938C755.301 618.938 802.899 694.657 852.999 712.22C852.999 712.22 880.354 585.166 767.369 558.548C654.386 531.927 672.084 686.877 680.515 728.197C680.515 728.197 704.046 667.409 755.301 618.938Z" fill="#2C323D"/>
<path d="M691.449 607.529C691.449 607.529 716.509 559.005 758.82 556.839C801.128 554.672 826.289 591.376 826.289 591.376C826.289 591.376 809.771 550.047 758.872 550.047C707.967 550.046 691.449 607.529 691.449 607.529Z" fill="#98BEFC"/>
<path d="M863.673 989.188L893.381 1265.38H502.376L472.668 989.188H863.673Z" fill="#33457D"/>
<path d="M924.499 1240.54H859.191V1265.39H924.499V1240.54Z" fill="#33457D"/>
<path d="M1206.44 1010.21C1206.44 1010.21 1194.38 1015.06 1191.68 1016.59C1188.99 1018.12 1186.32 1019.57 1185.28 1019.31C1184.23 1019.06 1174.42 1011.22 1171.4 1009.54C1168.38 1007.86 1145.72 990.885 1147.13 990.559C1148.53 990.237 1161.27 989.555 1174.94 997.031C1188.61 1004.51 1197.84 996.327 1202.65 997.491C1207.45 998.65 1206.44 1010.21 1206.44 1010.21Z" fill="#DBA585"/>
<path d="M941.494 1000.5C918.642 1015.27 899.724 1033.86 885.031 1054.87L884.998 1054.89C875.111 1069.05 867.121 1084.31 861.158 1100.29C839.193 1158.79 844.328 1226.58 880.852 1283.07C942.153 1377.87 1068.66 1405.02 1163.44 1343.74C1258.24 1282.44 1285.39 1155.92 1224.09 1061.12C1203.2 1028.82 1174.73 1004.35 1142.52 988.607C1089.36 962.585 1025.97 960.23 969.71 985.238C960.051 989.493 950.611 994.602 941.494 1000.5Z" fill="url(#paint2_linear_519_1245)"/>
<path d="M952.73 946.897L1052.4 1171.97L1160.89 950.958C1096.85 919.613 1020.5 916.775 952.73 946.897Z" fill="#477EE1"/>
<path d="M937.78 994.725C914.181 1009.99 894.64 1029.18 879.465 1050.88L1052.4 1171.97L966.928 978.961C956.953 983.357 947.2 988.635 937.78 994.725Z" fill="#3864B0"/>
<path d="M868.871 1043.47L868.835 1043.49C857.997 1059.02 849.235 1075.74 842.699 1093.26L1052.4 1171.97L868.871 1043.47Z" fill="#2D4F88"/>
<path d="M1311.06 1358.33C1311.06 1358.33 1301.88 1368.9 1292.42 1371.24C1282.97 1373.57 1272.4 1378.05 1272.43 1384.04C1272.45 1390.02 1303.85 1391.96 1314.62 1385.76C1330.69 1376.5 1332.37 1379.2 1334.1 1374.67C1335.83 1370.13 1331.69 1358.15 1331.78 1356.72C1331.9 1354.94 1311.06 1358.33 1311.06 1358.33Z" fill="#2E3048"/>
<path d="M1312.04 1353.31C1312.04 1353.31 1310.88 1358.22 1311.07 1358.32C1311.25 1358.42 1332.49 1360.63 1331.79 1356.71C1331.22 1353.54 1330.43 1350.09 1330.43 1350.09L1312.04 1353.31Z" fill="#454971"/>
<path d="M1506.92 1330.72C1506.92 1330.72 1502.88 1343.83 1495.33 1349.67C1487.78 1355.5 1484.78 1363.64 1487.17 1369C1489.56 1374.36 1513.92 1370.22 1520.97 1353.89C1525.79 1342.71 1531.74 1338.32 1531.49 1333.58C1531.25 1328.83 1525.33 1322.39 1524.84 1321.07C1524.25 1319.43 1506.92 1330.72 1506.92 1330.72Z" fill="#2E3048"/>
<path d="M1504.76 1326.15C1504.76 1326.15 1506.71 1330.71 1506.91 1330.72C1507.12 1330.74 1526.8 1324.44 1524.84 1321.07C1523.29 1318.4 1520.41 1315.58 1520.41 1315.58L1504.76 1326.15Z" fill="#454971"/>
<path d="M1525.76 1101.84C1525.76 1101.84 1519.54 1088.87 1515.18 1088.25C1510.81 1087.63 1514.53 1090.91 1514.53 1090.91C1514.53 1090.91 1520.46 1099.74 1522.5 1103.47C1522.6 1103.65 1525.76 1101.84 1525.76 1101.84Z" fill="#2E3048"/>
<path d="M1497.22 1078.6C1497.22 1078.6 1498.68 1084.96 1499.22 1091.44C1499.77 1097.92 1498.86 1100.44 1500.93 1103.43C1502.49 1105.69 1506.07 1106.41 1506.45 1105.32C1506.83 1104.23 1503.22 1094.43 1507.24 1092.84C1511.26 1091.25 1510.94 1105.29 1512.97 1103.44C1514.99 1101.59 1522.11 1092.81 1519.53 1088.18C1516.96 1083.54 1511.85 1081.53 1509.11 1074.16C1506.62 1067.48 1503.44 1065.56 1503.44 1065.56L1497.22 1078.6Z" fill="#DBA585"/>
<path d="M1506.68 1092.6C1506.68 1092.6 1501.91 1096.14 1509.61 1114.04L1515.23 1110.56C1515.23 1110.56 1511.04 1100.64 1510.62 1094.47C1510.62 1094.47 1508.87 1091.07 1506.68 1092.6Z" fill="#2E3048"/>
<path d="M1494.16 1125.11L1535.7 1092.53L1559.26 1150.46L1523.97 1197.64L1494.16 1125.11Z" fill="#2E3048"/>
<path d="M1343.99 1095.86C1343.99 1095.86 1300.13 1183.62 1292.23 1204.74C1284.91 1224.31 1292.4 1243.66 1293.68 1258.47C1295.16 1275.42 1307.79 1347.68 1307.03 1352.68C1306.27 1357.68 1333.67 1353.62 1333.67 1353.62C1333.67 1353.62 1322.5 1238.32 1329.86 1221.28C1334.76 1209.91 1382.87 1132.88 1386.7 1137.29C1390.53 1141.7 1433.15 1208.27 1439 1221.47C1444.48 1233.84 1502.1 1328.28 1502.1 1328.28C1502.1 1328.28 1517.02 1326.31 1526.66 1316.46C1526.66 1316.46 1473.62 1212.04 1468.57 1194.07C1466.01 1184.92 1442.59 1120.98 1425.52 1079.84C1416.5 1058.09 1343.99 1095.86 1343.99 1095.86Z" fill="#2E3048"/>
<path d="M1512.43 1075.84C1512.43 1075.84 1502.75 1086.4 1497.99 1085.76C1493.24 1085.12 1460.64 1026.74 1456.4 1017.95C1452.16 1009.15 1431.58 989.515 1431.58 989.515C1431.58 989.515 1431.58 989.532 1431.57 989.557C1431.57 989.567 1431.56 989.577 1431.57 989.59C1431.56 989.6 1431.56 989.612 1431.55 989.629C1431.12 991.582 1425.21 1018.64 1425.58 1031.49C1425.95 1044.83 1423.66 1069.64 1423.66 1069.64L1419.58 1070.41L1351.84 1083.29L1345.77 1084.44C1345.77 1084.44 1342.09 1080.03 1342.12 1069.66C1342.13 1063.06 1342.32 1050.65 1341.45 1039.19C1341.44 1039.13 1341.43 1039.07 1341.43 1039.01C1341.42 1038.86 1341.41 1038.72 1341.4 1038.57C1341.39 1038.51 1341.39 1038.46 1341.38 1038.4C1340.87 1032.11 1344.43 1026.55 1343.04 1022.07C1339.16 1009.54 1340.79 998.079 1340.82 997.573L1339.2 972.624C1338.61 974.082 1294.98 984.395 1291.36 985.926C1287.67 987.489 1216.71 1006.03 1212.6 1002.55C1208.22 998.836 1214.2 991.937 1214.2 991.937L1287.86 973.593L1327.77 949.901C1328.31 949.424 1336.4 945.781 1341.15 943.234C1348.47 939.306 1358.67 934.003 1365.21 930.607C1369.05 928.621 1371.63 927.294 1371.63 927.294C1371.63 927.294 1399.44 923.273 1401.63 923.305C1402.31 923.315 1405.71 924.316 1410.18 925.774C1419.84 928.92 1434.49 934.193 1437.51 936.147C1441.93 939.001 1473.7 1000.31 1476.44 1004.63C1479.17 1008.95 1512.43 1075.84 1512.43 1075.84Z" fill="#D7C9C2"/>
<path d="M1345.77 1084.44C1345.77 1084.44 1344.07 1086.69 1343.99 1095.86C1343.99 1095.86 1417.83 1083.63 1425.52 1079.84C1425.52 1079.84 1425.34 1069.74 1423.66 1069.64C1421.83 1069.54 1345.77 1084.44 1345.77 1084.44Z" fill="#3A3D5D"/>
<path d="M1401.37 920.796C1401.7 932.459 1379.44 939.919 1379.44 939.919C1379.44 939.919 1369.43 928.542 1371.63 927.3C1372.5 926.811 1372.77 925.029 1372.79 923.043C1372.8 921.15 1372.58 919.076 1372.4 917.762C1372.3 916.944 1372.2 916.415 1372.2 916.415C1372.2 916.415 1375.27 912.859 1379.17 908.606C1386 901.175 1395.42 891.622 1395.61 895.233C1395.62 895.425 1395.6 895.654 1395.56 895.921C1394.22 904.131 1401.37 920.796 1401.37 920.796Z" fill="#DBA585"/>
<path d="M1351.91 1082.95C1351.91 1082.95 1351.06 1092.3 1351.19 1095.81L1354.81 1095.17C1354.81 1095.17 1354.99 1083.53 1355.35 1082.3L1351.91 1082.95Z" fill="#2E3048"/>
<path d="M1391.86 904.133C1391.86 904.133 1391.86 904.133 1391.86 904.133C1391.81 904.204 1390.93 905.679 1389.39 907.812C1386.14 912.336 1379.97 919.809 1372.79 923.039C1372.8 921.146 1372.58 919.072 1372.41 917.758C1371.66 917.775 1370.9 917.726 1370.15 917.595C1371.99 913.994 1374.71 910.178 1374.71 910.178L1379.18 908.603L1391.86 904.133Z" fill="#997761"/>
<path d="M1395.78 895.386C1394.03 899.727 1392.33 902.891 1391.86 904.14C1391.86 904.14 1391.86 904.14 1391.86 904.14C1391.56 904.949 1390.68 906.289 1389.39 907.819C1385.87 912.007 1379.21 917.624 1372.41 917.764C1371.66 917.781 1370.9 917.732 1370.15 917.601C1367.38 917.135 1364.08 916.016 1362.13 912.615C1346.72 885.728 1355.83 862.7 1355.83 862.7C1355.83 862.7 1393.8 849.961 1400.38 861.259C1404.99 869.184 1399.88 885.185 1395.78 895.386Z" fill="#DBA585"/>
<path d="M1355.83 862.695C1355.83 862.695 1352.25 862.666 1351.04 855.93C1349.84 849.28 1351.52 847.339 1351.52 847.339C1351.52 847.339 1352.54 851.83 1372 841.021C1377.05 838.215 1392.41 836.135 1395.88 839.736C1395.88 839.736 1403.78 837.499 1406.6 850.656C1411.06 871.541 1396.82 892.71 1396.82 892.71C1396.82 892.71 1396.29 878.952 1393.17 877.278C1390.05 875.599 1387.65 880.06 1387.65 880.06L1381.49 881.466C1381.49 881.466 1389.94 860.672 1378.6 860.464C1367.26 860.256 1362.36 863.561 1355.83 862.695Z" fill="#2E3048"/>
<path d="M1387.55 874.57C1387.85 868.487 1398.69 865.646 1398.27 872.029C1397.84 878.416 1392.73 884.776 1390.23 884.681C1387.73 884.587 1387.32 879.212 1387.55 874.57Z" fill="#DBA585"/>
<path d="M1456.4 1017.95C1461.12 1026.5 1490.8 1083.74 1495.55 1084.38C1500.3 1085.02 1512.32 1073.57 1512.32 1073.57C1512.32 1073.57 1479.17 1008.95 1476.44 1004.63C1473.71 1000.31 1441.93 938.999 1437.52 936.146C1434.97 934.492 1424.1 930.467 1414.96 927.365C1413.29 926.798 1411.68 926.257 1410.18 925.773C1408.38 927.978 1379.47 964.008 1383.81 994.505C1385.12 1003.67 1387 1018.62 1390.31 1034.3C1393.73 1050.6 1398.88 1068.96 1402.31 1082.84C1408.5 1107.94 1420.64 1131.56 1420.64 1131.56L1448.58 1115.85C1452.98 1113.38 1454.84 1108.02 1452.92 1103.35C1445.61 1085.62 1431 1049.8 1430.22 1033.98C1430.22 1033.98 1429.52 998.195 1431.57 989.557C1431.57 989.557 1450.98 1008.15 1456.4 1017.95Z" fill="#363957"/>
<path d="M1279.6 972.529L1185.69 996.822C1185.69 996.822 1193.86 1010.72 1196.71 1014.58C1198.25 1016.66 1284.03 994.402 1287.83 993.117C1292.72 991.467 1334.78 978.091 1335.36 976.633L1337.67 998.63C1338.07 1018.49 1341.32 1032.01 1340.87 1047.46C1340 1077.24 1329.98 1111.01 1326.86 1123.11C1326.34 1125.14 1327.02 1127.27 1328.62 1128.62L1337.93 1136.42C1337.93 1136.42 1348.5 1097.61 1349.3 1083.75C1350.07 1070.36 1353.66 1052.3 1354.78 1034.81V1034.8C1356.19 1012.62 1357.71 990.632 1358.92 977.699C1362.09 944.028 1365.4 930.74 1365.4 930.74L1365.21 930.609C1363.1 931.709 1360.59 933.004 1357.94 934.393C1352.37 937.292 1337.5 943.258 1331.58 946.086C1331.58 946.086 1286.51 970.37 1279.6 972.529Z" fill="#363957"/>
<path d="M1405.31 954.999L1394.63 961.714L1399.55 966.275L1390.31 1034.3C1387 1018.62 1385.12 1003.67 1383.81 994.505C1379.47 964.008 1408.38 927.978 1410.18 925.773C1411.68 926.256 1413.29 926.797 1414.96 927.365L1405.31 954.999Z" fill="#404367"/>
<path d="M1365.55 930.438C1365.55 930.438 1362.1 944.029 1358.92 977.7C1357.71 990.633 1356.19 1012.62 1354.78 1034.8L1349.18 971.778L1354.14 965.861L1349.21 960.273L1357.94 934.395C1360.6 933.005 1363.1 931.71 1365.21 930.611L1365.55 930.438Z" fill="#404367"/>
<path d="M1523.97 1197.64L1530.3 1196.32L1564.2 1149.41L1539.71 1091.2L1535.69 1092.53L1523.97 1197.64Z" fill="#2E3048"/>
<path d="M1375.13 1081.48L1373.4 1081.29C1374.37 1072.65 1371.84 1044.17 1369.79 1021.28C1369.14 1013.87 1368.51 1006.88 1368.1 1001.6C1366.48 980.471 1377.14 948.778 1377.25 948.461L1378.9 949.019C1378.79 949.335 1368.24 980.7 1369.84 1001.47C1370.25 1006.73 1370.87 1013.72 1371.53 1021.12C1373.58 1044.09 1376.13 1072.67 1375.13 1081.48Z" fill="#A79D97"/>
<path d="M1383.01 1076.59C1383.01 1076.59 1372.15 1078.42 1368.58 1079.5L1369.64 1091.72L1383.88 1089.51L1383.01 1076.59Z" fill="#5D629A"/>
<path d="M1372.96 949.952C1372.96 949.952 1377.56 982.919 1403.05 985.87C1428.54 988.822 1463.37 1004.92 1473.96 1014.54L1486.95 1027.13L1485.82 1012.09C1485.82 1012.09 1478.99 987.733 1403.84 983.01C1403.84 983.01 1382.41 983.558 1380.59 948.73C1380.59 948.73 1372.71 948.516 1372.96 949.952Z" fill="#E7B270"/>
<path d="M1371.1 950.34C1371.1 950.34 1377.46 954.57 1384.33 950.502C1384.33 950.502 1381.17 940.209 1379.55 939.921C1377.92 939.634 1370.22 948.48 1371.1 950.34Z" fill="#CD985A"/>
<path d="M1410.74 925.956L1401.37 920.797C1401.37 920.797 1401.36 925.797 1379.44 939.92L1386.71 957.644L1410.74 925.956Z" fill="#EEE0D7"/>
<path d="M1372.7 924.688C1372.7 924.688 1373.31 930.06 1379.44 939.914L1367.73 956.803L1365.55 930.432L1372.7 924.688Z" fill="#EEE0D7"/>
<path d="M1561.23 72.5823C1547.74 34.8623 1511.69 11.6943 1473.69 12.8373C1464.5 13.1133 1455.18 14.8143 1446.05 18.0823C1418.37 27.9813 1398.53 50.0243 1390.37 76.0673C1384.73 94.1153 1384.69 114.084 1391.55 133.266C1392.23 135.174 1392.97 137.051 1393.77 138.883C1397.38 147.193 1402.11 154.707 1407.74 161.314C1431.32 189.034 1470.44 200.748 1506.73 187.769C1553.59 171.009 1577.99 119.439 1561.23 72.5823ZM1499.14 166.532C1471.93 176.265 1442.6 167.481 1424.91 146.702C1420.7 141.749 1417.15 136.113 1414.45 129.883C1413.85 128.507 1413.29 127.101 1412.78 125.671C1407.64 111.29 1407.67 96.3193 1411.9 82.7893C1418.01 63.2613 1432.89 46.7323 1453.64 39.3143C1460.49 36.8653 1467.47 35.5913 1474.37 35.3803C1502.85 34.5193 1529.88 51.8913 1540 80.1733C1552.56 115.305 1534.27 153.968 1499.14 166.532Z" fill="url(#paint3_linear_519_1245)"/>
<path d="M1411.9 82.7879L1390.38 76.0659C1398.53 50.0219 1418.37 27.9799 1446.05 18.0809C1455.19 14.8129 1464.5 13.1119 1473.7 12.8359L1474.37 35.3789C1467.47 35.5889 1460.49 36.8629 1453.64 39.3129C1432.89 46.7309 1418.01 63.2599 1411.9 82.7879Z" fill="#4873B0"/>
<path d="M1414.45 129.88L1393.77 138.878C1392.97 137.047 1392.23 135.17 1391.55 133.261C1384.69 114.079 1384.73 94.1115 1390.37 76.0625L1411.9 82.7845C1407.67 96.3145 1407.64 111.285 1412.78 125.666C1413.3 127.097 1413.85 128.504 1414.45 129.88Z" fill="#6F9AD0"/>
<path d="M1407.74 161.313C1402.11 154.706 1397.38 147.191 1393.77 138.882L1414.45 129.883C1417.15 136.113 1420.7 141.749 1424.92 146.702L1407.74 161.313Z" fill="#94C4FC"/>
<path d="M1566.52 235.859H1386.27V249.759H1566.52V235.859Z" fill="#94C4FC"/>
<path d="M1521.16 265.406H1386.27V279.306H1521.16V265.406Z" fill="#94C4FC"/>
<path d="M217.505 768.93H116.098V782.831H217.505V768.93Z" fill="#BCBFC6"/>
<path d="M450.783 768.93H360.711V782.831H450.783V768.93Z" fill="#BCBFC6"/>
<path d="M142.945 587.547H116.098V736.785H142.945V587.547Z" fill="url(#paint4_linear_519_1245)"/>
<path d="M190.081 547.766H163.234V736.792H190.081V547.766Z" fill="url(#paint5_linear_519_1245)"/>
<path d="M239.547 568.516H212.699V736.727H239.547V568.516Z" fill="url(#paint6_linear_519_1245)"/>
<path d="M290.367 536.539H263.516V736.786H290.367V536.539Z" fill="url(#paint7_linear_519_1245)"/>
<path d="M340.421 571.68H313.57V736.787H340.421V571.68Z" fill="url(#paint8_linear_519_1245)"/>
<path d="M387.558 598.336H360.711V736.79H387.558V598.336Z" fill="url(#paint9_linear_519_1245)"/>
<path d="M434.692 581.805H407.844V736.785H434.692V581.805Z" fill="url(#paint10_linear_519_1245)"/>
<path d="M142.945 642.141H116.098V736.792H142.945V642.141Z" fill="#EAAA60"/>
<path d="M190.081 616.898H163.234V736.785H190.081V616.898Z" fill="#EAAA60"/>
<path d="M239.547 630.07H212.699V736.753H239.547V630.07Z" fill="#EAAA60"/>
<path d="M290.367 609.781H263.516V736.785H290.367V609.781Z" fill="#EAAA60"/>
<path d="M340.421 632.07H313.57V736.787H340.421V632.07Z" fill="#EAAA60"/>
<path d="M387.558 648.977H360.711V736.79H387.558V648.977Z" fill="#EAAA60"/>
<path d="M434.692 638.492H407.844V736.785H434.692V638.492Z" fill="#EAAA60"/>
<path d="M385.744 1372.05C385.744 1372.05 391.805 1381.11 400.307 1383.07C408.811 1385.03 417.187 1388.15 417.251 1393.51C417.314 1398.88 392.664 1402.08 382.935 1396.67C368.414 1388.59 366.937 1391.03 365.326 1386.99C363.718 1382.96 367.26 1372.17 367.155 1370.88C367.028 1369.3 385.744 1372.05 385.744 1372.05Z" fill="#393D3F"/>
<path d="M384.8 1367.57C384.8 1367.57 385.905 1371.95 385.742 1372.05C385.576 1372.14 366.579 1374.4 367.153 1370.89C367.62 1368.04 368.285 1364.94 368.285 1364.94L384.8 1367.57Z" fill="#807F7D"/>
<path d="M321.81 1371.44C321.81 1371.44 326.131 1380.12 333.519 1383.07C341.415 1386.23 347.75 1389.86 347.607 1395.09C347.46 1400.32 328.3 1405.62 314.36 1395.58C305.553 1389.25 302.761 1389.21 301.349 1385.22C299.937 1381.23 303.805 1370.85 303.749 1369.6C303.684 1368.05 321.81 1371.44 321.81 1371.44Z" fill="#393D3F"/>
<path d="M322.02 1366.93C322.02 1366.93 321.967 1371.36 321.808 1371.44C321.645 1371.52 303.281 1373.03 303.747 1369.6C304.119 1366.86 305.528 1363.56 305.528 1363.56L322.02 1366.93Z" fill="#807F7D"/>
<path d="M389.348 1101.92C389.348 1101.92 406.404 1177.16 410.297 1200.08C413.618 1219.58 416.257 1239.9 414.668 1253.98C412.705 1271.42 388.023 1361.77 389.054 1366.88C390.088 1372 363.228 1367.7 363.228 1367.7C363.228 1367.7 381.999 1266.91 378.249 1248.15C375.473 1234.26 351.141 1141.96 347.412 1146.7C343.681 1151.43 339.059 1233.8 336.3 1247.48C333.537 1261.15 325.057 1369.19 325.057 1369.19C325.057 1369.19 306.103 1371.99 301.04 1367.7C301.04 1367.7 298.734 1275.45 300.492 1249.81C301.165 1240.04 289.047 1132.67 304.586 1089.45C312.796 1066.61 389.348 1101.92 389.348 1101.92Z" fill="#2E3048"/>
<path d="M463.594 1033.52C451.438 1031.81 413.188 1048.75 409.71 1047.48C407.319 1046.59 401.713 1028.32 397.704 1014.48C395.336 1006.3 393.526 999.672 393.275 999.128L393.261 999.099C393.3 999.464 393.916 1005.72 393.13 1013.94C393.081 1014.47 392.82 1014.72 392.758 1015.26C392.742 1015.4 392.736 1015.66 392.69 1015.8C391.741 1018.57 391.335 1021.65 390.515 1024.83C389.302 1029.51 388.306 1035.85 389.18 1042.61V1042.64C389.177 1042.69 389.178 1042.74 389.171 1042.79C389.168 1042.94 389.157 1043.09 389.157 1043.24C389.157 1043.3 389.154 1043.36 389.154 1043.42C388.811 1055.27 389.631 1068.04 389.973 1074.84C390.504 1085.37 387.04 1090.11 386.943 1090.24C386.94 1090.25 386.939 1090.25 386.939 1090.25L383.273 1089.73L380.625 1089.36L380.595 1089.35L377.057 1088.86L363.185 1086.91L358.162 1086.2L356.974 1086.03L348.184 1084.8L323.408 1081.31L320.688 1080.93L319.569 1080.77L310.224 1079.45L306 1078.86L305.986 1078.86C305.986 1078.86 302.398 1053.42 302.121 1039.67C301.874 1027.04 295.115 1001.39 294.01 997.295C294.007 997.266 293.998 997.236 293.989 997.207C293.982 997.168 293.971 997.129 293.958 997.093C293.938 997.025 293.923 996.966 293.909 996.917C293.903 996.888 293.894 996.858 293.885 996.825C293.885 996.818 293.884 996.808 293.88 996.803C293.877 996.793 293.875 996.783 293.875 996.777C293.864 996.748 293.864 996.731 293.864 996.731C293.864 996.731 273.64 1017.98 269.714 1027.25C268.521 1030.06 264.86 1037.72 260.203 1047.03C257.016 1040.95 255.023 1036.72 255.023 1035.67C255.023 1035.54 255.026 1035.4 255.026 1035.25C255.326 1026.09 264.932 988.917 272.512 964.633C278.4 952.803 283.475 943.234 285.102 942.066C287.575 940.295 297.955 935.849 307.015 932.252C307.312 932.135 307.609 932.018 307.9 931.902C308.745 931.57 309.579 931.244 310.387 930.927C310.791 930.774 311.19 930.616 311.584 930.467C311.796 930.385 312.012 930.304 312.224 930.223C312.397 930.157 312.571 930.092 312.74 930.027H312.742C317.276 928.304 320.719 927.101 321.427 927.059C321.547 927.052 321.734 927.055 321.994 927.062C322.291 927.069 322.675 927.087 323.138 927.115C328.739 927.444 345.454 929.01 350.83 929.521C351.809 929.613 352.415 929.671 352.506 929.681C352.513 929.681 352.516 929.681 352.516 929.681C352.516 929.681 355.08 930.849 358.939 932.613L359.297 932.78C361.629 933.85 364.327 935.272 367.178 936.831C372.772 939.897 378.947 943.478 384.068 945.915C389.091 948.306 395.969 951.637 396.553 952.103L422 1025.48L466.146 1017.42L463.594 1033.52Z" fill="#D7C9C2"/>
<path d="M386.944 1090.24C386.944 1090.24 388.806 1092.47 389.348 1101.92C389.348 1101.92 312.688 1092.98 304.585 1089.45C304.585 1089.45 304.269 1079.04 305.987 1078.86C307.877 1078.67 386.944 1090.24 386.944 1090.24Z" fill="#3B3E60"/>
<path d="M321.57 924.462C321.808 936.495 345.1 943.073 345.1 943.073C345.1 943.073 354.845 930.859 352.517 929.69C351.604 929.231 351.232 927.407 351.118 925.363C351.011 923.415 351.135 921.269 351.248 919.905C351.317 919.054 351.386 918.507 351.386 918.507C351.386 918.507 348.059 914.997 343.825 910.813C336.424 903.497 326.251 894.125 326.237 897.854C326.237 898.05 326.263 898.285 326.322 898.562C328.109 906.95 321.57 924.462 321.57 924.462Z" fill="#DBA585"/>
<path d="M323.502 1080.71C323.502 1080.71 321.829 1091.26 321.682 1094.01L318.137 1093.3C318.137 1093.3 319.113 1082.14 319.686 1080.27L323.502 1080.71Z" fill="#2E3048"/>
<path d="M380.544 1089.01C380.544 1089.01 381.891 1098.61 381.92 1102.23L378.173 1101.74C378.173 1101.74 377.4 1089.76 376.973 1088.52L380.544 1089.01Z" fill="#2E3048"/>
<path d="M330.543 906.828C330.543 906.828 330.543 906.828 330.543 906.831C330.592 906.903 331.577 908.381 333.267 910.501C336.841 915.002 343.564 922.387 351.121 925.358C351.014 923.41 351.138 921.264 351.251 919.9C352.027 919.88 352.798 919.793 353.567 919.624C351.496 916.004 348.502 912.207 348.502 912.207L343.828 910.808L330.543 906.828Z" fill="#997761"/>
<path d="M326.071 898.018C328.087 902.402 329.998 905.579 330.543 906.834C330.543 906.834 330.543 906.834 330.543 906.837C330.898 907.659 331.86 908.996 333.267 910.507C337.103 914.643 344.24 920.096 351.251 919.906C352.027 919.886 352.798 919.799 353.567 919.63C356.398 919.007 359.745 917.692 361.585 914.091C376.115 885.636 365.593 862.373 365.593 862.373C365.593 862.373 325.86 851.134 319.643 863.098C315.281 871.486 321.338 887.717 326.071 898.018Z" fill="#DBA585"/>
<path d="M365.59 862.37C365.59 862.37 369.282 862.165 370.196 855.169C371.095 848.257 369.272 846.339 369.272 846.339C369.272 846.339 352.866 839.474 346.975 838.579C341.084 837.686 326.599 836.828 323.204 840.713C323.204 840.713 314.959 838.795 312.711 852.491C309.143 874.217 324.858 895.313 324.858 895.313C324.858 895.313 324.724 881.118 327.855 879.24C330.983 877.357 333.687 881.83 333.687 881.83L340.089 882.974C340.089 882.974 330.366 861.975 342.03 861.199C353.695 860.424 358.914 863.587 365.59 862.37Z" fill="#EECAA2"/>
<path d="M333.515 876.169C332.905 869.916 321.596 867.528 322.357 874.081C323.11 880.638 328.681 886.936 331.254 886.714C333.824 886.492 333.977 880.937 333.515 876.169Z" fill="#DBA585"/>
<path d="M260.203 1047.03C265.128 1056.43 272.899 1070.25 280.574 1083.66C279.563 1085.54 278.576 1087.42 277.63 1089.26C275.324 1093.78 273.276 1098.15 271.821 1102.22C270.073 1107.12 267.638 1119.67 272.293 1122L296.818 1135.54C296.818 1135.54 296.987 1135.06 297.313 1134.18C298.126 1131.97 299.883 1127.26 302.323 1121.16C302.402 1120.96 302.649 1120.38 303.011 1119.52C303.497 1118.37 304.202 1116.73 305.005 1114.85C305.37 1114.01 305.745 1113.13 306.14 1112.22C306.583 1111.18 307.043 1110.1 307.502 1109.04C308.168 1107.48 308.834 1105.94 309.447 1104.51C311.12 1100.61 312.427 1097.58 312.427 1097.58C312.508 1097.4 312.594 1097.22 312.676 1097.04C313.475 1095.32 314.293 1093.58 315.125 1091.86C316.413 1089.19 317.737 1086.52 319.098 1083.92C319.232 1083.65 319.368 1083.39 319.505 1083.13C319.749 1082.67 319.99 1082.21 320.235 1081.76C320.384 1081.48 320.536 1081.2 320.686 1080.93C320.718 1080.87 320.753 1080.8 320.786 1080.74C320.849 1080.63 320.907 1080.52 320.969 1080.42C328.06 1067.48 336.046 1056.67 338.593 1040.81C338.834 1039.28 339.07 1037.76 339.291 1036.25C339.663 1033.73 339.999 1031.25 340.312 1028.81C340.425 1027.89 340.543 1026.98 340.651 1026.07C341.926 1015.5 342.689 1006.07 343.302 999.501C345.22 979.047 332.692 956.897 323.073 943.214C317.928 935.899 313.616 931.002 312.788 930.076C312.767 930.056 312.752 930.036 312.735 930.023C312.566 930.088 312.392 930.153 312.219 930.219C312.007 930.3 311.792 930.381 311.58 930.463C311.185 930.612 310.788 930.77 310.384 930.923C309.575 931.239 308.74 931.566 307.896 931.898C307.605 932.013 307.307 932.13 307.01 932.248C297.695 935.901 275.74 942.394 273.271 944.166C271.849 945.187 270.999 953.423 267.323 965.214C259.743 989.494 255.244 1026.11 255.022 1035.25C255.022 1035.4 255.02 1035.53 255.02 1035.66C255.023 1036.72 257.016 1040.95 260.203 1047.03ZM297.462 1042.46C297.462 1047.02 295.98 1052.25 293.7 1057.82C293.641 1057.95 293.583 1058.1 293.524 1058.23C291.952 1054.88 290.47 1051.67 289.146 1048.69C289.139 1048.69 289.136 1048.68 289.136 1048.68C285.49 1040.51 282.981 1034.14 282.844 1031.61C281.941 1015.42 293.873 996.774 293.873 996.774C293.873 996.781 293.876 996.791 293.879 996.8C293.883 996.806 293.882 996.816 293.882 996.822C293.892 996.855 293.902 996.885 293.907 996.914C293.924 996.973 293.941 997.028 293.957 997.09C293.971 997.126 293.979 997.165 293.986 997.204C293.996 997.233 294.007 997.263 294.009 997.292C296.457 1006.92 297.462 1042.46 297.462 1042.46Z" fill="#363957"/>
<path d="M479.889 1008.65L424.362 1020.75L397.892 951.526C397.309 951.063 389.718 946.979 384.696 944.588C379.467 942.096 372.846 939.024 366.975 936.313C364.169 935.018 361.528 933.805 359.296 932.781L359.113 932.925C359.113 932.925 362.391 943.838 366.632 971.077C366.632 971.08 366.632 971.084 366.635 971.087C366.779 972.003 366.919 972.933 367.066 973.886C367.083 973.996 367.099 974.108 367.115 974.218C367.21 974.848 367.307 975.484 367.402 976.13C367.416 976.208 367.428 976.286 367.438 976.358C367.503 976.796 367.568 977.229 367.63 977.676C367.79 978.749 367.949 979.845 368.109 980.964C370.001 994.222 372.653 1016.79 375.204 1039.57V1039.58C377.22 1057.53 381.811 1075.96 383.269 1089.71C383.269 1089.72 383.273 1089.73 383.273 1089.74C383.563 1092.43 384.252 1096.02 385.184 1100.07C385.285 1100.53 385.396 1101 385.503 1101.46C389.613 1118.82 397.588 1143.38 397.588 1143.38L399.91 1141.24L406.789 1134.89C408.374 1133.43 408.975 1131.19 408.335 1129.14C404.519 1116.83 391.554 1073.27 389.179 1042.64C389.176 1042.64 389.176 1042.62 389.176 1042.62C388.429 1032.99 391.244 1023.93 392.875 1015.34C392.904 1015.41 392.93 1015.49 392.956 1015.56C394.322 1019.36 395.833 1023.49 397.359 1027.51V1027.51C401.453 1038.3 405.64 1048.3 407.385 1048.94C411.263 1050.37 484.375 1030.38 484.884 1027.51L479.889 1008.65Z" fill="#363957"/>
<path d="M319.21 959.885L330.542 966.275L325.698 971.213L338.592 1040.81C341.218 1024.5 342.417 1009.01 343.304 999.508C346.273 967.882 314.705 932.208 312.741 930.023C311.224 930.601 309.592 931.234 307.895 931.902L319.21 959.885Z" fill="#404367"/>
<path d="M358.938 932.617C358.938 932.617 363.17 946.443 368.106 980.959C369.998 994.221 372.654 1016.79 375.208 1039.57L377.844 974.38L372.446 968.532L377.244 962.533L366.975 936.312C364.169 935.017 361.531 933.804 359.293 932.78L358.938 932.617Z" fill="#404367"/>
<path d="M312.176 930.166L321.573 924.461C321.573 924.461 321.834 929.612 345.103 943.072L338.495 961.684L312.176 930.166Z" fill="#EEE0D7"/>
<path d="M351.29 927.055C351.29 927.055 350.928 932.617 345.102 943.07L357.998 959.884L358.937 932.616L351.29 927.055Z" fill="#EEE0D7"/>
<path d="M345.102 943.07C345.102 943.07 342.567 953.068 343.467 955.867C343.467 955.867 348.963 957.869 352.913 955.367C352.913 955.367 350.151 948.368 345.102 943.07Z" fill="#5070D1"/>
<path d="M357.984 1087.25C359.386 1080.2 358.052 1059.06 357.994 1058.16L356.797 1058.24C356.813 1058.46 358.177 1080.12 356.81 1087.02L357.984 1087.25Z" fill="#A79D97"/>
<path d="M348.2 1084C348.2 1084 359.482 1085.35 363.21 1086.28L362.721 1098.92L347.949 1097.34L348.2 1084Z" fill="#5D629A"/>
<path d="M350.668 954.469C350.668 954.469 363.248 986.238 361.197 1021.8C359.066 1058.67 355.58 1072.03 355.58 1072.03L347.82 1081.76L344.402 1069.81C344.402 1069.81 354.81 1022.8 348.09 977.063C346.874 968.775 345.064 953.07 345.064 953.07L350.668 954.469Z" fill="#5070D1"/>
<path d="M312.865 1104.5C312.865 1104.5 315.567 1109.9 318.264 1110.8C320.965 1111.69 324.901 1116.08 324.901 1116.08L305.891 1126.09C305.891 1126.09 300.832 1116.19 300.608 1109.9C300.383 1103.6 312.865 1104.5 312.865 1104.5Z" fill="#DBA585"/>
<path d="M314.675 1105.01L315.931 1107.54C315.931 1107.54 303.863 1116.37 300.607 1116.93L299.492 1113.56L314.675 1105.01Z" fill="#D7C9C2"/>
<path d="M315.93 1105.12C315.93 1105.12 306.885 1112.6 299.266 1116.05L273.621 1069.93L286.91 1044.25C286.91 1044.25 315.332 1100.62 315.93 1105.12Z" fill="#363957"/>
<path d="M392.959 1015.56C394.325 1019.36 395.836 1023.49 397.362 1027.51C397.717 1022.85 397.809 1018.51 397.705 1014.49C397.095 990.564 389.57 978.023 389.57 978.023C391.296 982.192 392.124 991.138 392.518 999.221C392.939 1007.75 392.877 1015.33 392.877 1015.33C392.877 1015.33 392.877 1015.33 392.877 1015.33L392.959 1015.56Z" fill="#252638"/>
<path d="M277.629 1089.27L298.155 1114.06L280.574 1083.66C279.563 1085.55 278.575 1087.42 277.629 1089.27Z" fill="#252638"/>
<path d="M426.694 1058.19H474.088C477.333 1058.19 480.157 1055.96 480.924 1052.81L501.508 967.814C502.581 963.387 499.225 959.125 494.668 959.125H447.279C444.03 959.125 441.205 961.346 440.439 964.503L419.857 1049.49C418.784 1053.92 422.138 1058.19 426.694 1058.19Z" fill="#988F8A"/>
<path d="M484.659 1034.55C482.34 1032.41 477.865 1031.16 474.033 1028.6C470.203 1026.04 473.403 1023.41 473.403 1023.41C469.466 1022.05 469.89 1020.26 470.395 1019.03C471.077 1017.38 475.373 1017.85 475.373 1017.85C475.373 1017.85 471.521 1017 469.935 1016.29C468.35 1015.59 468.885 1012.83 471.328 1011.95C473.765 1011.08 483.703 1013.53 483.703 1013.53C483.703 1013.53 482.082 1012.74 477.18 1010.28C472.277 1007.82 471.204 1005.58 474.094 1004.5C476.103 1003.76 480.05 1005.32 487.627 1010.42C493.335 1014.25 492.871 1014.75 492.871 1014.75C492.871 1014.75 487.426 1037.12 484.659 1034.55Z" fill="#DBA585"/>
<defs>
<linearGradient id="paint0_linear_519_1245" x1="1977.03" y1="149.832" x2="-37.488" y2="1293.11" gradientUnits="userSpaceOnUse">
<stop stop-color="#699CFB"/>
<stop offset="1" stop-color="#699CFB"/>
</linearGradient>
<linearGradient id="paint1_linear_519_1245" x1="914.322" y1="882.924" x2="914.322" y2="-12.9858" gradientUnits="userSpaceOnUse">
<stop stop-color="#83D1F6"/>
<stop offset="1" stop-color="#4E6BCF"/>
</linearGradient>
<linearGradient id="paint2_linear_519_1245" x1="1052.48" y1="1429.03" x2="1052.48" y2="803.799" gradientUnits="userSpaceOnUse">
<stop stop-color="#A5D4FC"/>
<stop offset="1" stop-color="#F1FFFD"/>
</linearGradient>
<linearGradient id="paint3_linear_519_1245" x1="1386.26" y1="102.926" x2="1566.52" y2="102.926" gradientUnits="userSpaceOnUse">
<stop stop-color="#D7E2FD"/>
<stop offset="1" stop-color="#F1FFFD"/>
</linearGradient>
<linearGradient id="paint4_linear_519_1245" x1="116.098" y1="662.166" x2="142.945" y2="662.166" gradientUnits="userSpaceOnUse">
<stop stop-color="#D7E2FD"/>
<stop offset="1" stop-color="#F1FFFD"/>
</linearGradient>
<linearGradient id="paint5_linear_519_1245" x1="163.234" y1="642.279" x2="190.081" y2="642.279" gradientUnits="userSpaceOnUse">
<stop stop-color="#D7E2FD"/>
<stop offset="1" stop-color="#F1FFFD"/>
</linearGradient>
<linearGradient id="paint6_linear_519_1245" x1="212.699" y1="652.621" x2="239.547" y2="652.621" gradientUnits="userSpaceOnUse">
<stop stop-color="#D7E2FD"/>
<stop offset="1" stop-color="#F1FFFD"/>
</linearGradient>
<linearGradient id="paint7_linear_519_1245" x1="263.516" y1="636.663" x2="290.367" y2="636.663" gradientUnits="userSpaceOnUse">
<stop stop-color="#D7E2FD"/>
<stop offset="1" stop-color="#F1FFFD"/>
</linearGradient>
<linearGradient id="paint8_linear_519_1245" x1="313.57" y1="654.233" x2="340.421" y2="654.233" gradientUnits="userSpaceOnUse">
<stop stop-color="#D7E2FD"/>
<stop offset="1" stop-color="#F1FFFD"/>
</linearGradient>
<linearGradient id="paint9_linear_519_1245" x1="360.711" y1="667.563" x2="387.557" y2="667.563" gradientUnits="userSpaceOnUse">
<stop stop-color="#D7E2FD"/>
<stop offset="1" stop-color="#F1FFFD"/>
</linearGradient>
<linearGradient id="paint10_linear_519_1245" x1="407.844" y1="659.295" x2="434.692" y2="659.295" gradientUnits="userSpaceOnUse">
<stop stop-color="#D7E2FD"/>
<stop offset="1" stop-color="#F1FFFD"/>
</linearGradient>
</defs>
</svg>
